sebastian.ufo
<glyph name="exclam" format="2">
  <advance width="45"/>
  <unicode hex="0021"/>
  <outline>
    <contour>
      <point x="0" y="185" type="line"/>
      <point x="45" y="185" type="line"/>
      <point x="45" y="-145" type="line"/>
      <point x="0" y="-145" type="line"/>
    </contour>
  </outline>
</glyph>
<glyph name="quotedbl" format="2">
  <advance width="448"/>
  <unicode hex="0022"/>
  <outline>
    <contour>
      <point x="151" y="0" type="line"/>
      <point x="408" y="512" type="line"/>
      <point x="448" y="512" type="line"/>
      <point x="192" y="0" type="line"/>
    </contour>
    <contour>
      <point x="0" y="0" type="line"/>
      <point x="257" y="512" type="line"/>
      <point x="298" y="512" type="line"/>
      <point x="40" y="0" type="line"/>
    </contour>
  </outline>
</glyph>
<glyph name="dollar" format="2">
  <advance width="448"/>
  <unicode hex="0024"/>
  <outline>
    <contour>
      <point x="0" y="340" type="line"/>
      <point x="38" y="340" type="line"/>
      <point x="38" y="168" type="line" smooth="yes"/>
      <point x="38" y="158"/>
      <point x="50" y="148"/>
      <point x="58" y="151" type="curve"/>
      <point x="181" y="187" type="line"/>
      <point x="181" y="-340" type="line"/>
      <point x="143" y="-340" type="line"/>
      <point x="143" y="-179" type="line" smooth="yes"/>
      <point x="143" y="-171.224"/>
      <point x="134.042" y="-161.208"/>
      <point x="123.865" y="-161.208" type="curve"/>
      <point x="122.263" y="-161.208"/>
      <point x="120.632" y="-161.456"/>
      <point x="119" y="-162" type="curve"/>
      <point x="0" y="-197" type="line"/>
    </contour>
    <contour>
      <point x="30" y="51" type="line"/>
      <point x="30" y="-75" type="line" smooth="yes"/>
      <point x="30" y="-88"/>
      <point x="41" y="-93"/>
      <point x="50" y="-90" type="curve"/>
      <point x="151" y="-61" type="line"/>
      <point x="151" y="66" type="line" smooth="yes"/>
      <point x="151" y="77"/>
      <point x="139" y="83"/>
      <point x="130" y="80" type="curve"/>
    </contour>
    <contour>
      <point x="228" y="445" type="line"/>
      <point x="280" y="445" type="line"/>
      <point x="280" y="157" type="line" smooth="yes"/>
      <point x="280" y="150.093"/>
      <point x="291.925" y="140.205"/>
      <point x="302.907" y="140.205" type="curve"/>
      <point x="304.645" y="140.205"/>
      <point x="306.36" y="140.453"/>
      <point x="308" y="141" type="curve"/>
      <point x="327" y="149"/>
      <point x="345" y="153"/>
      <point x="361" y="153" type="curve" smooth="yes"/>
      <point x="408" y="153"/>
      <point x="448" y="117"/>
      <point x="448" y="62" type="curve" smooth="yes"/>
      <point x="448" y="-25"/>
      <point x="355" y="-80"/>
      <point x="291" y="-132" type="curve" smooth="yes"/>
      <point x="244" y="-170" type="line" smooth="yes"/>
      <point x="237.807" y="-174.866"/>
      <point x="233.962" y="-177.775"/>
      <point x="231.6" y="-177.775" type="curve" smooth="yes"/>
      <point x="228.622" y="-177.775"/>
      <point x="228" y="-173.153"/>
      <point x="228" y="-162" type="curve" smooth="yes"/>
    </contour>
    <contour>
      <point x="316" y="112" type="curve" smooth="yes"/>
      <point x="294" y="112"/>
      <point x="274" y="103"/>
      <point x="258" y="88" type="curve"/>
      <point x="258" y="-90" type="line" smooth="yes"/>
      <point x="258" y="-103"/>
      <point x="275.115" y="-107.168"/>
      <point x="281" y="-103" type="curve" smooth="yes"/>
      <point x="332.801" y="-66.3076"/>
      <point x="370" y="-29"/>
      <point x="370" y="31" type="curve" smooth="yes"/>
      <point x="370" y="89"/>
      <point x="348" y="112"/>
    </contour>
  </outline>
</glyph>
<glyph name="percent" format="2">
  <advance width="519"/>
  <unicode hex="0025"/>
  <outline>
    <contour>
      <point x="486" y="408" type="curve" smooth="yes"/>
      <point x="486" y="420"/>
      <point x="482" y="430"/>
      <point x="474" y="439" type="curve"/>
      <point x="465" y="447"/>
      <point x="455" y="451"/>
      <point x="443" y="451" type="curve" smooth="yes"/>
      <point x="431" y="451"/>
      <point x="421" y="447"/>
      <point x="413" y="439" type="curve"/>
      <point x="405" y="430"/>
      <point x="401" y="420"/>
      <point x="401" y="408" type="curve" smooth="yes"/>
      <point x="401" y="397"/>
      <point x="405" y="387"/>
      <point x="414" y="379" type="curve"/>
      <point x="422" y="370"/>
      <point x="432" y="366"/>
      <point x="443" y="366" type="curve" smooth="yes"/>
      <point x="455" y="366"/>
      <point x="465" y="370"/>
      <point x="474" y="378" type="curve"/>
      <point x="482" y="386"/>
      <point x="486" y="396"/>
    </contour>
    <contour>
      <point x="519" y="679" type="line"/>
      <point x="469" y="679" type="line"/>
      <point x="273" y="393" type="line"/>
      <point x="188" y="434" type="line"/>
      <point x="153" y="453"/>
      <point x="127" y="471"/>
      <point x="110" y="490" type="curve" smooth="yes"/>
      <point x="87" y="515"/>
      <point x="76" y="543"/>
      <point x="76" y="575" type="curve" smooth="yes"/>
      <point x="76" y="595"/>
      <point x="84" y="612"/>
      <point x="99" y="625" type="curve" smooth="yes"/>
      <point x="114" y="638"/>
      <point x="132" y="645"/>
      <point x="153" y="645" type="curve" smooth="yes"/>
      <point x="197" y="645"/>
      <point x="219" y="631"/>
      <point x="219" y="602" type="curve" smooth="yes"/>
      <point x="219" y="596"/>
      <point x="217" y="588"/>
      <point x="212" y="579" type="curve"/>
      <point x="207" y="569"/>
      <point x="205" y="560"/>
      <point x="205" y="552" type="curve" smooth="yes"/>
      <point x="205" y="539"/>
      <point x="211" y="528"/>
      <point x="222" y="520" type="curve"/>
      <point x="233" y="511"/>
      <point x="246" y="507"/>
      <point x="260" y="507" type="curve"/>
      <point x="288" y="507"/>
      <point x="302" y="525"/>
      <point x="302" y="562" type="curve" smooth="yes"/>
      <point x="302" y="595"/>
      <point x="285" y="624"/>
      <point x="252" y="649" type="curve" smooth="yes"/>
      <point x="221" y="672"/>
      <point x="189" y="684"/>
      <point x="155" y="684" type="curve" smooth="yes"/>
      <point x="113" y="684"/>
      <point x="77" y="670"/>
      <point x="46" y="641" type="curve" smooth="yes"/>
      <point x="15" y="612"/>
      <point x="0" y="576"/>
      <point x="0" y="535" type="curve" smooth="yes"/>
      <point x="0" y="461"/>
      <point x="69" y="382"/>
      <point x="208" y="298" type="curve"/>
      <point x="4" y="0" type="line"/>
      <point x="55" y="0" type="line"/>
      <point x="245" y="279" type="line"/>
      <point x="314" y="243"/>
      <point x="355" y="220"/>
      <point x="368" y="211" type="curve" smooth="yes"/>
      <point x="415" y="178"/>
      <point x="438" y="141"/>
      <point x="438" y="100" type="curve" smooth="yes"/>
      <point x="438" y="79"/>
      <point x="430" y="62"/>
      <point x="415" y="49" type="curve" smooth="yes"/>
      <point x="400" y="36"/>
      <point x="381" y="29"/>
      <point x="360" y="29" type="curve" smooth="yes"/>
      <point x="343" y="29"/>
      <point x="328" y="32"/>
      <point x="315" y="38" type="curve" smooth="yes"/>
      <point x="298" y="46"/>
      <point x="289" y="57"/>
      <point x="289" y="72" type="curve" smooth="yes"/>
      <point x="289" y="77"/>
      <point x="291" y="85"/>
      <point x="296" y="95" type="curve"/>
      <point x="301" y="104"/>
      <point x="303" y="112"/>
      <point x="303" y="117" type="curve" smooth="yes"/>
      <point x="303" y="133"/>
      <point x="298" y="147"/>
      <point x="288" y="160" type="curve"/>
      <point x="277" y="173"/>
      <point x="264" y="179"/>
      <point x="249" y="179" type="curve" smooth="yes"/>
      <point x="236" y="179"/>
      <point x="225" y="171"/>
      <point x="216" y="154" type="curve"/>
      <point x="208" y="140"/>
      <point x="204" y="126"/>
      <point x="204" y="112" type="curve" smooth="yes"/>
      <point x="204" y="80"/>
      <point x="222" y="51"/>
      <point x="258" y="25" type="curve" smooth="yes"/>
      <point x="291" y="2"/>
      <point x="325" y="-10"/>
      <point x="359" y="-10" type="curve" smooth="yes"/>
      <point x="399" y="-10"/>
      <point x="435" y="4"/>
      <point x="467" y="33" type="curve" smooth="yes"/>
      <point x="498" y="61"/>
      <point x="514" y="95"/>
      <point x="514" y="134" type="curve" smooth="yes"/>
      <point x="514" y="184"/>
      <point x="491" y="232"/>
      <point x="444" y="277" type="curve" smooth="yes"/>
      <point x="417" y="303"/>
      <point x="372" y="335"/>
      <point x="310" y="373" type="curve"/>
    </contour>
    <contour>
      <point x="114" y="273" type="curve" smooth="yes"/>
      <point x="114" y="285"/>
      <point x="110" y="295"/>
      <point x="102" y="303" type="curve" smooth="yes"/>
      <point x="94" y="311"/>
      <point x="84" y="315"/>
      <point x="72" y="315" type="curve" smooth="yes"/>
      <point x="60" y="315"/>
      <point x="50" y="311"/>
      <point x="42" y="303" type="curve"/>
      <point x="33" y="295"/>
      <point x="29" y="285"/>
      <point x="29" y="273" type="curve" smooth="yes"/>
      <point x="29" y="261"/>
      <point x="33" y="251"/>
      <point x="42" y="243" type="curve"/>
      <point x="50" y="235"/>
      <point x="60" y="231"/>
      <point x="72" y="231" type="curve" smooth="yes"/>
      <point x="83" y="231"/>
      <point x="93" y="235"/>
      <point x="102" y="244" type="curve" smooth="yes"/>
      <point x="110" y="252"/>
      <point x="114" y="262"/>
    </contour>
  </outline>
</glyph>
<glyph name="ampersand" format="2">
  <advance width="658"/>
  <unicode hex="0026"/>
  <outline>
    <contour>
      <point x="577.351" y="-14.6398" type="curve" smooth="yes"/>
      <point x="575.68" y="81.1276"/>
      <point x="509.385" y="137.894"/>
      <point x="415.515" y="136.256" type="curve" smooth="yes"/>
      <point x="409.058" y="136.143"/>
      <point x="395.224" y="125.888"/>
      <point x="396.968" y="118.357" type="curve" smooth="yes"/>
      <point x="463.828" y="-170.388" type="line" smooth="yes"/>
      <point x="464.601" y="-173.724"/>
      <point x="474.016" y="-177.059"/>
      <point x="477.095" y="-177.957" type="curve"/>
      <point x="477.821" y="-177.852" type="line"/>
      <point x="543.94" y="-147.164"/>
      <point x="578.61" y="-86.7758"/>
    </contour>
    <contour>
      <point x="279.663" y="377.448" type="curve"/>
      <point x="180.039" y="278.692"/>
      <point x="71.3975" y="186.095"/>
      <point x="74.0731" y="32.8091" type="curve" smooth="yes"/>
      <point x="76.8879" y="-128.452"/>
      <point x="200.286" y="-209.412"/>
      <point x="351.204" y="-206.778" type="curve" smooth="yes"/>
      <point x="364.162" y="-206.551"/>
      <point x="430.781" y="-205.146"/>
      <point x="425.418" y="-182.056" type="curve" smooth="yes"/>
      <point x="355.684" y="118.157" type="line" smooth="yes"/>
      <point x="354.495" y="123.276"/>
      <point x="345.201" y="126.851"/>
      <point x="340.616" y="126.771" type="curve" smooth="yes"/>
      <point x="294.605" y="125.968"/>
      <point x="244.022" y="65.1821"/>
      <point x="244.899" y="14.9301" type="curve" smooth="yes"/>
      <point x="245.919" y="-43.4769"/>
      <point x="297.769" y="-104.08"/>
      <point x="297.892" y="-111.124" type="curve" smooth="yes"/>
      <point x="297.974" y="-115.829"/>
      <point x="295.012" y="-118.896"/>
      <point x="290.308" y="-118.978" type="curve"/>
      <point x="289.192" y="-118.997"/>
      <point x="283.377" y="-117.409"/>
      <point x="282.173" y="-116.989" type="curve"/>
      <point x="214.881" y="-93.5236"/>
      <point x="173.841" y="-20.481" name="hr01"/>
      <point x="172.643" y="48.1345" type="curve" smooth="yes"/>
      <point x="171.023" y="140.933" name="hr02"/>
      <point x="237.666" y="224.134"/>
      <point x="324.207" y="252.857" type="curve"/>
      <point x="318.315" y="277.852"/>
      <point x="304.8" y="379.05"/>
      <point x="284.552" y="378.696" type="curve"/>
      <point x="283.057" y="378.67"/>
      <point x="281.117" y="377.819"/>
    </contour>
    <contour>
      <point x="325.341" y="423.634" type="curve"/>
      <point x="363.781" y="261.86" type="line"/>
      <point x="372.094" y="262.838"/>
      <point x="380.465" y="263.558"/>
      <point x="388.839" y="263.704" type="curve" smooth="yes"/>
      <point x="530.173" y="266.171"/>
      <point x="652.249" y="164.607"/>
      <point x="654.785" y="19.3637" type="curve" smooth="yes"/>
      <point x="656.219" y="-62.8333"/>
      <point x="613.482" y="-138.061"/>
      <point x="546.127" y="-184.077" type="curve" smooth="yes"/>
      <point x="527.859" y="-196.558"/>
      <point x="507.614" y="-204.33"/>
      <point x="488.967" y="-215.785" type="curve" smooth="yes"/>
      <point x="483.109" y="-219.383"/>
      <point x="478.986" y="-225.993"/>
      <point x="479.108" y="-232.997" type="curve" smooth="yes"/>
      <point x="479.404" y="-249.955"/>
      <point x="486.322" y="-266.571"/>
      <point x="490.449" y="-282.784" type="curve" smooth="yes"/>
      <point x="503.33" y="-333.39"/>
      <point x="512.225" y="-387.12"/>
      <point x="513.137" y="-439.377" type="curve" smooth="yes"/>
      <point x="515.094" y="-551.507"/>
      <point x="443.293" y="-644.228"/>
      <point x="326.721" y="-646.263" type="curve" smooth="yes"/>
      <point x="230.391" y="-647.944"/>
      <point x="114.833" y="-589.027"/>
      <point x="112.945" y="-480.828" type="curve" smooth="yes"/>
      <point x="111.866" y="-419.04"/>
      <point x="159.488" y="-362.547" name="hr03"/>
      <point x="222.887" y="-361.441" type="curve" smooth="yes"/>
      <point x="284.761" y="-360.361"/>
      <point x="336.656" y="-409.315"/>
      <point x="337.741" y="-471.462" type="curve" smooth="yes"/>
      <point x="338.626" y="-522.176"/>
      <point x="302.702" y="-569.815"/>
      <point x="253.71" y="-582.906" type="curve"/>
      <point x="252.658" y="-585.415" type="line"/>
      <point x="256.382" y="-593.573" type="line"/>
      <point x="274.791" y="-602.488"/>
      <point x="294.78" y="-605.981"/>
      <point x="315.128" y="-605.626" type="curve" smooth="yes"/>
      <point x="414.483" y="-603.892"/>
      <point x="473.985" y="-536.04"/>
      <point x="472.279" y="-438.276" type="curve" smooth="yes"/>
      <point x="471.374" y="-386.452"/>
      <point x="458.267" y="-293.367"/>
      <point x="440.925" y="-244.954" type="curve" smooth="yes"/>
      <point x="438.987" y="-239.542"/>
      <point x="431.303" y="-235.959"/>
      <point x="425.907" y="-236.054" type="curve" smooth="yes"/>
      <point x="399.018" y="-236.523"/>
      <point x="372.919" y="-244.516"/>
      <point x="346.019" y="-244.985" type="curve" smooth="yes"/>
      <point x="162.814" y="-248.183"/>
      <point x="4.2105" y="-123.135"/>
      <point x="0.893348" y="66.9043" type="curve" smooth="yes"/>
      <point x="-2.55999" y="264.746"/>
      <point x="132.136" y="401.294"/>
      <point x="258.903" y="534.657" type="curve"/>
      <point x="239.236" y="615.233"/>
      <point x="215.748" y="696.367"/>
      <point x="214.29" y="779.899" type="curve" smooth="yes"/>
      <point x="212.277" y="895.263"/>
      <point x="258.289" y="1008.19" name="hr04"/>
      <point x="328.343" y="1098.41" type="curve" smooth="yes"/>
      <point x="343.631" y="1118.1"/>
      <point x="369.057" y="1150.57"/>
      <point x="392.243" y="1159.88" type="curve"/>
      <point x="394.703" y="1158.84"/>
      <point x="398.693" y="1157.69"/>
      <point x="400.847" y="1156.25" type="curve" smooth="yes"/>
      <point x="467.72" y="1111.4"/>
      <point x="519.163" y="928.757"/>
      <point x="520.528" y="850.548" type="curve" smooth="yes"/>
      <point x="523.451" y="683.065"/>
      <point x="448.713" y="534.332"/>
    </contour>
    <contour>
      <point x="308.069" y="584.648" type="curve"/>
      <point x="390.352" y="668.64"/>
      <point x="478.387" y="769.218"/>
      <point x="476.205" y="894.218" type="curve" smooth="yes"/>
      <point x="475.78" y="918.558"/>
      <point x="472.083" y="1012.83"/>
      <point x="436.842" y="1012.21" type="curve" smooth="yes"/>
      <point x="317.31" y="1010.13"/>
      <point x="266.285" y="816.277" name="hr05"/>
      <point x="267.949" y="720.975" type="curve" smooth="yes"/>
      <point x="268.744" y="675.426"/>
      <point x="278.659" y="630.844"/>
      <point x="287.417" y="586.34" type="curve"/>
      <point x="290.793" y="583.974"/>
      <point x="295.149" y="581.96"/>
      <point x="299.368" y="582.034" type="curve"/>
      <point x="301.001" y="582.062"/>
      <point x="306.266" y="584.106"/>
    </contour>
  </outline>
</glyph>
<glyph name="quotesingle" format="2">
  <advance width="532"/>
  <unicode hex="0027"/>
  <outline>
    <contour>
      <point x="403" y="817" type="curve" smooth="yes"/>
      <point x="403" y="856"/>
      <point x="398" y="883"/>
      <point x="379" y="919" type="curve"/>
      <point x="265" y="876"/>
      <point x="186" y="712"/>
      <point x="217" y="577" type="curve" smooth="yes"/>
      <point x="220" y="564" type="line" smooth="yes"/>
      <point x="222" y="553"/>
      <point x="241" y="547"/>
      <point x="251" y="559" type="curve" smooth="yes"/>
      <point x="325" y="641"/>
      <point x="403" y="719"/>
    </contour>
    <contour>
      <point x="235" y="355" type="line" smooth="yes"/>
      <point x="233" y="364"/>
      <point x="211" y="365"/>
      <point x="204" y="357" type="curve" smooth="yes"/>
      <point x="109" y="250"/>
      <point x="48" y="178"/>
      <point x="48" y="71" type="curve" smooth="yes"/>
      <point x="48" y="-99"/>
      <point x="164" y="-178"/>
      <point x="292" y="-178" type="curve" smooth="yes"/>
      <point x="303" y="-178"/>
      <point x="314" y="-177"/>
      <point x="325" y="-176" type="curve" smooth="yes"/>
      <point x="336" y="-175"/>
      <point x="345" y="-157"/>
      <point x="343" y="-148" type="curve" smooth="yes"/>
      <point x="294" y="79" type="line" smooth="yes"/>
      <point x="292" y="89"/>
      <point x="275" y="97"/>
      <point x="265" y="94" type="curve" smooth="yes"/>
      <point x="215" y="79"/>
      <point x="193" y="46"/>
      <point x="193" y="9" type="curve" smooth="yes"/>
      <point x="193" y="-37"/>
      <point x="223" y="-68"/>
      <point x="248" y="-94" type="curve" smooth="yes"/>
      <point x="255" y="-102"/>
      <point x="254" y="-104"/>
      <point x="243" y="-102" type="curve" smooth="yes"/>
      <point x="187" y="-91"/>
      <point x="142" y="-28"/>
      <point x="142" y="34" type="curve" smooth="yes"/>
      <point x="142" y="102"/>
      <point x="190" y="176"/>
      <point x="268" y="200" type="curve"/>
    </contour>
    <contour>
      <point x="253" y="410" type="line"/>
      <point x="297" y="206" type="line"/>
      <point x="306" y="207"/>
      <point x="315" y="208"/>
      <point x="324" y="208" type="curve" smooth="yes"/>
      <point x="442" y="208"/>
      <point x="532" y="113"/>
      <point x="532" y="5" type="curve" smooth="yes"/>
      <point x="532" y="-66"/>
      <point x="484" y="-145"/>
      <point x="402" y="-184" type="curve" smooth="yes"/>
      <point x="391" y="-189"/>
      <point x="386" y="-208"/>
      <point x="387" y="-214" type="curve" smooth="yes"/>
      <point x="392" y="-237" type="line" smooth="yes"/>
      <point x="403" y="-290"/>
      <point x="415" y="-369"/>
      <point x="415" y="-408" type="curve" smooth="yes"/>
      <point x="415" y="-498"/>
      <point x="349" y="-569"/>
      <point x="261" y="-569" type="curve" smooth="yes"/>
      <point x="164" y="-569"/>
      <point x="87" y="-499"/>
      <point x="87" y="-424" type="curve" smooth="yes"/>
      <point x="87" y="-372"/>
      <point x="131" y="-327"/>
      <point x="181" y="-327" type="curve" smooth="yes"/>
      <point x="231" y="-327"/>
      <point x="269" y="-368"/>
      <point x="269" y="-418" type="curve" smooth="yes"/>
      <point x="269" y="-460"/>
      <point x="242" y="-495"/>
      <point x="204" y="-506" type="curve" smooth="yes"/>
      <point x="194" y="-509"/>
      <point x="197" y="-524"/>
      <point x="203" y="-528" type="curve" smooth="yes"/>
      <point x="215" y="-535"/>
      <point x="241" y="-539"/>
      <point x="258" y="-539" type="curve" smooth="yes"/>
      <point x="337" y="-539"/>
      <point x="385" y="-478"/>
      <point x="385" y="-403" type="curve" smooth="yes"/>
      <point x="385" y="-366"/>
      <point x="374" y="-293"/>
      <point x="364" y="-246" type="curve" smooth="yes"/>
      <point x="360" y="-227" type="line" smooth="yes"/>
      <point x="356" y="-210"/>
      <point x="338" y="-204"/>
      <point x="328" y="-206" type="curve" smooth="yes"/>
      <point x="316" y="-207"/>
      <point x="304" y="-208"/>
      <point x="291" y="-208" type="curve" smooth="yes"/>
      <point x="142" y="-208"/>
      <point x="0" y="-96"/>
      <point x="0" y="94" type="curve" smooth="yes"/>
      <point x="0" y="260"/>
      <point x="101" y="394"/>
      <point x="182" y="483" type="curve" smooth="yes"/>
      <point x="202" y="505" type="line"/>
      <point x="187" y="578" type="line" smooth="yes"/>
      <point x="136" y="813"/>
      <point x="252" y="973"/>
      <point x="333" y="1039" type="curve" smooth="yes"/>
      <point x="338" y="1043"/>
      <point x="340" y="1044"/>
      <point x="343" y="1041" type="curve" smooth="yes"/>
      <point x="373" y="1017"/>
      <point x="438" y="895"/>
      <point x="438" y="780" type="curve" smooth="yes"/>
      <point x="438" y="613"/>
      <point x="349" y="518"/>
      <point x="274" y="434" type="curve" smooth="yes"/>
    </contour>
    <contour>
      <point x="372" y="-144" type="line" smooth="yes"/>
      <point x="374" y="-153"/>
      <point x="388" y="-159"/>
      <point x="396" y="-155" type="curve" smooth="yes"/>
      <point x="445" y="-130"/>
      <point x="473" y="-84"/>
      <point x="473" y="-27" type="curve" smooth="yes"/>
      <point x="473" y="38"/>
      <point x="429" y="96"/>
      <point x="343" y="102" type="curve" smooth="yes"/>
      <point x="329" y="102"/>
      <point x="322" y="86"/>
      <point x="324" y="79" type="curve" smooth="yes"/>
    </contour>
  </outline>
</glyph>
<glyph name="parenleft" format="2">
  <advance width="114"/>
  <unicode hex="0028"/>
  <outline>
    <contour>
      <point x="32" y="0" type="curve" smooth="yes"/>
      <point x="32" y="-113"/>
      <point x="78" y="-184"/>
      <point x="107" y="-229" type="curve"/>
      <point x="112" y="-236"/>
      <point x="114" y="-242"/>
      <point x="114" y="-247" type="curve" smooth="yes"/>
      <point x="114" y="-255"/>
      <point x="109" y="-260"/>
      <point x="103" y="-260" type="curve" smooth="yes"/>
      <point x="98" y="-260"/>
      <point x="92" y="-256"/>
      <point x="86" y="-248" type="curve"/>
      <point x="53" y="-208"/>
      <point x="0" y="-123"/>
      <point x="0" y="0" type="curve" smooth="yes"/>
      <point x="0" y="124"/>
      <point x="53" y="208"/>
      <point x="86" y="248" type="curve"/>
      <point x="92" y="256"/>
      <point x="98" y="260"/>
      <point x="103" y="260" type="curve" smooth="yes"/>
      <point x="109" y="260"/>
      <point x="114" y="255"/>
      <point x="114" y="247" type="curve" smooth="yes"/>
      <point x="114" y="242"/>
      <point x="112" y="236"/>
      <point x="107" y="229" type="curve"/>
      <point x="78" y="184"/>
      <point x="32" y="114"/>
    </contour>
  </outline>
</glyph>
<glyph name="parenright" format="2">
  <advance width="114"/>
  <unicode hex="0029"/>
  <outline>
    <contour>
      <point x="82" y="0" type="curve" smooth="yes"/>
      <point x="82" y="113"/>
      <point x="36" y="184"/>
      <point x="7" y="229" type="curve"/>
      <point x="2" y="236"/>
      <point x="0" y="242"/>
      <point x="0" y="247" type="curve" smooth="yes"/>
      <point x="0" y="255"/>
      <point x="5" y="260"/>
      <point x="11" y="260" type="curve" smooth="yes"/>
      <point x="16" y="260"/>
      <point x="22" y="256"/>
      <point x="28" y="248" type="curve"/>
      <point x="61" y="208"/>
      <point x="114" y="123"/>
      <point x="114" y="0" type="curve" smooth="yes"/>
      <point x="114" y="-124"/>
      <point x="61" y="-208"/>
      <point x="28" y="-248" type="curve"/>
      <point x="22" y="-256"/>
      <point x="16" y="-260"/>
      <point x="11" y="-260" type="curve" smooth="yes"/>
      <point x="5" y="-260"/>
      <point x="0" y="-255"/>
      <point x="0" y="-247" type="curve" smooth="yes"/>
      <point x="0" y="-242"/>
      <point x="2" y="-236"/>
      <point x="7" y="-229" type="curve"/>
      <point x="36" y="-184"/>
      <point x="82" y="-114"/>
    </contour>
  </outline>
</glyph>
<glyph name="asterisk" format="2">
  <advance width="440"/>
  <unicode hex="002A"/>
  <outline>
    <contour>
      <point x="220" y="242" type="curve" smooth="yes"/>
      <point x="197" y="242"/>
      <point x="176" y="221"/>
      <point x="176" y="198" type="curve" smooth="yes"/>
      <point x="176" y="175"/>
      <point x="197" y="154"/>
      <point x="220" y="154" type="curve" smooth="yes"/>
      <point x="244" y="154"/>
      <point x="264" y="175"/>
      <point x="264" y="198" type="curve" smooth="yes"/>
      <point x="264" y="221"/>
      <point x="244" y="242"/>
    </contour>
    <contour>
      <point x="387" y="71" type="curve" smooth="yes"/>
      <point x="387" y="50" name="hr01"/>
      <point x="368" y="31"/>
      <point x="347" y="31" type="curve" smooth="yes"/>
      <point x="337" y="31"/>
      <point x="327" y="35"/>
      <point x="319" y="43" type="curve" smooth="yes"/>
      <point x="298" y="64"/>
      <point x="311" y="85"/>
      <point x="288" y="108" type="curve" smooth="yes"/>
      <point x="276" y="120" type="line" smooth="yes" name="hr02"/>
      <point x="269" y="127"/>
      <point x="262" y="129"/>
      <point x="256" y="129" type="curve" smooth="yes"/>
      <point x="244" y="129"/>
      <point x="235" y="119"/>
      <point x="235" y="103" type="curve" smooth="yes" name="hr03"/>
      <point x="235" y="83" type="line" smooth="yes"/>
      <point x="235" y="54"/>
      <point x="260" y="46"/>
      <point x="260" y="18" type="curve" smooth="yes" name="hr04"/>
      <point x="260" y="-4"/>
      <point x="243" y="-22"/>
      <point x="220" y="-22" type="curve" smooth="yes"/>
      <point x="198" y="-22"/>
      <point x="180" y="-4"/>
      <point x="180" y="18" type="curve" smooth="yes"/>
      <point x="180" y="46"/>
      <point x="205" y="54"/>
      <point x="205" y="83" type="curve" smooth="yes" name="hr05"/>
      <point x="205" y="103" type="line" smooth="yes"/>
      <point x="205" y="123"/>
      <point x="196" y="131"/>
      <point x="186" y="131" type="curve" smooth="yes"/>
      <point x="179" y="131"/>
      <point x="171" y="127"/>
      <point x="164" y="120" type="curve" smooth="yes"/>
      <point x="151" y="107" type="line" smooth="yes"/>
      <point x="132" y="88"/>
      <point x="142" y="64"/>
      <point x="121" y="43" type="curve" smooth="yes"/>
      <point x="113" y="35"/>
      <point x="103" y="31"/>
      <point x="93" y="31" type="curve" smooth="yes"/>
      <point x="72" y="31"/>
      <point x="53" y="50"/>
      <point x="53" y="71" type="curve" smooth="yes" name="hr06"/>
      <point x="53" y="117"/>
      <point x="109" y="109"/>
      <point x="128" y="128" type="curve" smooth="yes"/>
      <point x="141" y="141" type="line" smooth="yes"/>
      <point x="148" y="148"/>
      <point x="152" y="156"/>
      <point x="152" y="163" type="curve" smooth="yes" name="hr07"/>
      <point x="152" y="174"/>
      <point x="143" y="182"/>
      <point x="124" y="182" type="curve" smooth="yes"/>
      <point x="104" y="182" type="line" smooth="yes"/>
      <point x="73" y="182"/>
      <point x="70" y="158"/>
      <point x="40" y="158" type="curve" smooth="yes" name="hr08"/>
      <point x="17" y="158"/>
      <point x="0" y="175"/>
      <point x="0" y="198" type="curve" smooth="yes"/>
      <point x="0" y="221"/>
      <point x="17" y="238"/>
      <point x="40" y="238" type="curve" smooth="yes"/>
      <point x="68" y="238"/>
      <point x="76" y="214"/>
      <point x="103" y="214" type="curve" smooth="yes" name="hr09"/>
      <point x="125" y="214" type="line" smooth="yes"/>
      <point x="144" y="214"/>
      <point x="151" y="223"/>
      <point x="151" y="233" type="curve" smooth="yes"/>
      <point x="151" y="241"/>
      <point x="147" y="249"/>
      <point x="141" y="255" type="curve" smooth="yes"/>
      <point x="128" y="268" type="line" smooth="yes"/>
      <point x="107" y="289"/>
      <point x="84" y="278"/>
      <point x="65" y="297" type="curve" smooth="yes"/>
      <point x="57" y="305"/>
      <point x="53" y="315"/>
      <point x="53" y="325" type="curve" smooth="yes"/>
      <point x="53" y="346"/>
      <point x="72" y="365"/>
      <point x="93" y="365" type="curve" smooth="yes" name="hr10"/>
      <point x="103" y="365"/>
      <point x="113" y="361"/>
      <point x="121" y="353" type="curve" smooth="yes"/>
      <point x="139" y="335"/>
      <point x="129" y="311"/>
      <point x="150" y="290" type="curve" smooth="yes"/>
      <point x="164" y="276" type="line" smooth="yes"/>
      <point x="172" y="268"/>
      <point x="180" y="264"/>
      <point x="187" y="264" type="curve" smooth="yes"/>
      <point x="198" y="264"/>
      <point x="205" y="274"/>
      <point x="205" y="297" type="curve" smooth="yes" name="hr11"/>
      <point x="205" y="316" type="line" smooth="yes"/>
      <point x="205" y="340"/>
      <point x="180" y="351"/>
      <point x="180" y="378" type="curve" smooth="yes" name="hr12"/>
      <point x="180" y="400"/>
      <point x="198" y="418"/>
      <point x="220" y="418" type="curve" smooth="yes"/>
      <point x="243" y="418"/>
      <point x="260" y="400"/>
      <point x="260" y="378" type="curve" smooth="yes"/>
      <point x="260" y="348"/>
      <point x="235" y="343"/>
      <point x="235" y="316" type="curve" smooth="yes" name="hr13"/>
      <point x="235" y="297" type="line" smooth="yes"/>
      <point x="235" y="276"/>
      <point x="244" y="265"/>
      <point x="255" y="265" type="curve" smooth="yes"/>
      <point x="261" y="265"/>
      <point x="269" y="269"/>
      <point x="276" y="276" type="curve" smooth="yes"/>
      <point x="289" y="289" type="line" smooth="yes"/>
      <point x="309" y="309"/>
      <point x="300" y="334"/>
      <point x="319" y="353" type="curve" smooth="yes"/>
      <point x="327" y="361"/>
      <point x="337" y="365"/>
      <point x="347" y="365" type="curve" smooth="yes"/>
      <point x="368" y="365"/>
      <point x="387" y="346"/>
      <point x="387" y="325" type="curve" smooth="yes" name="hr14"/>
      <point x="387" y="279"/>
      <point x="330" y="286"/>
      <point x="310" y="266" type="curve" smooth="yes"/>
      <point x="299" y="255" type="line" smooth="yes"/>
      <point x="293" y="249"/>
      <point x="290" y="242"/>
      <point x="290" y="235" type="curve" smooth="yes"/>
      <point x="290" y="224"/>
      <point x="298" y="214"/>
      <point x="315" y="214" type="curve" smooth="yes"/>
      <point x="337" y="214" type="line" smooth="yes"/>
      <point x="365" y="214"/>
      <point x="372" y="238"/>
      <point x="400" y="238" type="curve" smooth="yes" name="hr15"/>
      <point x="423" y="238"/>
      <point x="440" y="221"/>
      <point x="440" y="198" type="curve" smooth="yes"/>
      <point x="440" y="175"/>
      <point x="423" y="158"/>
      <point x="400" y="158" type="curve" smooth="yes"/>
      <point x="370" y="158"/>
      <point x="366" y="182"/>
      <point x="336" y="182" type="curve" smooth="yes" name="hr16"/>
      <point x="316" y="182" type="line" smooth="yes"/>
      <point x="299" y="182"/>
      <point x="289" y="173"/>
      <point x="289" y="161" type="curve" smooth="yes"/>
      <point x="289" y="155"/>
      <point x="292" y="148"/>
      <point x="299" y="141" type="curve" smooth="yes"/>
      <point x="312" y="128" type="line" smooth="yes"/>
      <point x="333" y="107"/>
      <point x="355" y="119"/>
      <point x="375" y="99" type="curve" smooth="yes"/>
      <point x="383" y="91"/>
      <point x="387" y="81"/>
    </contour>
  </outline>
</glyph>
<glyph name="plus" format="2">
  <advance width="398"/>
  <unicode hex="002B"/>
  <outline>
    <contour>
      <point x="302" y="160" type="line" smooth="yes"/>
      <point x="323" y="160"/>
      <point x="338" y="162"/>
      <point x="338" y="147" type="curve" smooth="yes"/>
      <point x="338" y="123"/>
      <point x="338" y="125"/>
      <point x="300" y="125" type="curve" smooth="yes"/>
      <point x="241" y="125" type="line" smooth="yes"/>
      <point x="223" y="125"/>
      <point x="216" y="119"/>
      <point x="216" y="106" type="curve" smooth="yes"/>
      <point x="216" y="54" type="line" smooth="yes"/>
      <point x="216" y="13"/>
      <point x="222" y="4"/>
      <point x="198" y="4" type="curve" smooth="yes"/>
      <point x="179" y="4"/>
      <point x="182" y="9"/>
      <point x="182" y="52" type="curve" smooth="yes"/>
      <point x="182" y="104" type="line" smooth="yes"/>
      <point x="182" y="120"/>
      <point x="166" y="125"/>
      <point x="157" y="125" type="curve" smooth="yes"/>
      <point x="111" y="125" type="line" smooth="yes"/>
      <point x="70" y="125"/>
      <point x="60" y="119"/>
      <point x="60" y="143" type="curve" smooth="yes"/>
      <point x="60" y="162"/>
      <point x="65" y="160"/>
      <point x="108" y="160" type="curve" smooth="yes"/>
      <point x="155" y="160" type="line" smooth="yes"/>
      <point x="171" y="160"/>
      <point x="182" y="173"/>
      <point x="182" y="188" type="curve" smooth="yes"/>
      <point x="182" y="246" type="line" smooth="yes"/>
      <point x="182" y="267"/>
      <point x="179" y="282"/>
      <point x="194" y="282" type="curve" smooth="yes"/>
      <point x="218" y="282"/>
      <point x="216" y="282"/>
      <point x="216" y="244" type="curve" smooth="yes"/>
      <point x="216" y="190" type="line" smooth="yes"/>
      <point x="216" y="170.5"/>
      <point x="228" y="160"/>
      <point x="246" y="160" type="curve" smooth="yes"/>
    </contour>
  </outline>
</glyph>
<glyph name="comma" format="2">
  <advance width="214"/>
  <unicode hex="002C"/>
  <outline>
    <contour>
      <point x="6" y="-137" type="line"/>
      <point x="104" y="-80"/>
      <point x="160" y="-12"/>
      <point x="160" y="56" type="curve" smooth="yes"/>
      <point x="160" y="69"/>
      <point x="154" y="77"/>
      <point x="140" y="77" type="curve" smooth="yes"/>
      <point x="124" y="77"/>
      <point x="119" y="72" name="hr01"/>
      <point x="88" y="72" type="curve" smooth="yes"/>
      <point x="57" y="72"/>
      <point x="0" y="93"/>
      <point x="0" y="162" type="curve" smooth="yes"/>
      <point x="0" y="213"/>
      <point x="42" y="252"/>
      <point x="93" y="252" type="curve" smooth="yes"/>
      <point x="172" y="252"/>
      <point x="214" y="187"/>
      <point x="214" y="107" type="curve" smooth="yes"/>
      <point x="214" y="-40"/>
      <point x="114" y="-118"/>
      <point x="20" y="-166" type="curve"/>
    </contour>
  </outline>
</glyph>
<glyph name="hyphen" format="2">
  <advance width="300"/>
  <unicode hex="002D"/>
  <outline>
    <contour>
      <point x="0" y="33" type="line" smooth="yes"/>
      <point x="300" y="33" type="line" smooth="yes"/>
      <point x="300" y="-33" type="line" smooth="yes"/>
      <point x="0" y="-33" type="line" smooth="yes"/>
    </contour>
  </outline>
</glyph>
<glyph name="period" format="2">
  <advance width="124"/>
  <unicode hex="002E"/>
  <outline>
    <contour>
      <point x="0" y="0" type="curve" smooth="yes"/>
      <point x="0" y="34"/>
      <point x="28" y="61"/>
      <point x="62" y="61" type="curve" smooth="yes"/>
      <point x="95" y="61"/>
      <point x="124" y="34"/>
      <point x="124" y="0" type="curve" smooth="yes"/>
      <point x="124" y="-35"/>
      <point x="95" y="-61"/>
      <point x="62" y="-61" type="curve" smooth="yes"/>
      <point x="28" y="-61"/>
      <point x="0" y="-35"/>
    </contour>
  </outline>
</glyph>
<glyph name="slash" format="2">
  <advance width="167"/>
  <unicode hex="002F"/>
  <outline>
    <contour>
      <point x="137" y="670" type="line"/>
      <point x="167" y="670" type="line"/>
      <point x="167" y="-162" type="line"/>
      <point x="137" y="-162" type="line"/>
    </contour>
    <contour>
      <point x="0" y="670" type="line"/>
      <point x="30" y="670" type="line"/>
      <point x="30" y="-162" type="line"/>
      <point x="0" y="-162" type="line"/>
    </contour>
  </outline>
</glyph>
<glyph name="zero" format="2">
  <advance width="420"/>
  <unicode hex="0030"/>
  <outline>
    <contour>
      <point x="25" y="250" type="curve" smooth="yes"/>
      <point x="25" y="392"/>
      <point x="105" y="505"/>
      <point x="210" y="505" type="curve" smooth="yes"/>
      <point x="315" y="505"/>
      <point x="395" y="392"/>
      <point x="395" y="250" type="curve" smooth="yes"/>
      <point x="395" y="108"/>
      <point x="315" y="-5"/>
      <point x="210" y="-5" type="curve" smooth="yes"/>
      <point x="105" y="-5"/>
      <point x="25" y="108"/>
    </contour>
    <contour>
      <point x="210" y="477" type="curve" smooth="yes"/>
      <point x="145" y="477"/>
      <point x="128" y="378"/>
      <point x="128" y="268" type="curve" smooth="yes"/>
      <point x="128" y="228" type="line" smooth="yes"/>
      <point x="128" y="118"/>
      <point x="145" y="23"/>
      <point x="210" y="23" type="curve" smooth="yes"/>
      <point x="275" y="23"/>
      <point x="292" y="118"/>
      <point x="292" y="228" type="curve" smooth="yes"/>
      <point x="292" y="268" type="line" smooth="yes"/>
      <point x="292" y="378"/>
      <point x="275" y="477"/>
    </contour>
  </outline>
</glyph>
<glyph name="one" format="2">
  <advance width="335"/>
  <unicode hex="0031"/>
  <outline>
    <contour>
      <point x="238" y="75" type="line" smooth="yes"/>
      <point x="238" y="44"/>
      <point x="258" y="30"/>
      <point x="286" y="30" type="curve" smooth="yes"/>
      <point x="310" y="30" type="line"/>
      <point x="310" y="0" type="line"/>
      <point x="72" y="0" type="line"/>
      <point x="72" y="30" type="line"/>
      <point x="96" y="30" type="line" smooth="yes"/>
      <point x="124" y="30"/>
      <point x="144" y="44"/>
      <point x="144" y="76" type="curve" smooth="yes"/>
      <point x="144" y="341" type="line" smooth="yes"/>
      <point x="144" y="348"/>
      <point x="132" y="353"/>
      <point x="127" y="344" type="curve" smooth="yes"/>
      <point x="54" y="213" type="line"/>
      <point x="52" y="211"/>
      <point x="52" y="210"/>
      <point x="49" y="212" type="curve"/>
      <point x="27" y="225" type="line"/>
      <point x="24" y="227"/>
      <point x="25" y="227"/>
      <point x="26" y="230" type="curve"/>
      <point x="149" y="490" type="line"/>
      <point x="161.983" y="483.268"/>
      <point x="176.122" y="480.236"/>
      <point x="190.639" y="480.236" type="curve" smooth="yes"/>
      <point x="206.312" y="480.236"/>
      <point x="222.426" y="483.77"/>
      <point x="238" y="490" type="curve"/>
    </contour>
  </outline>
</glyph>
<glyph name="two" format="2">
  <advance width="417"/>
  <unicode hex="0032"/>
  <outline>
    <contour>
      <point x="218.914" y="250.349" type="curve" smooth="yes"/>
      <point x="310.291" y="250.349"/>
      <point x="390.5" y="193.478"/>
      <point x="390.5" y="111.663" type="curve" smooth="yes"/>
      <point x="390.5" y="31.0997"/>
      <point x="320.09" y="-15.8664"/>
      <point x="254.504" y="-44.8719" type="curve" smooth="yes"/>
      <point x="214.71" y="-62.4711"/>
      <point x="171.042" y="-84.3771"/>
      <point x="134.573" y="-117.18" type="curve"/>
      <point x="130.56" y="-108.744" type="line"/>
      <point x="132.919" y="-108.453" type="line" smooth="yes"/>
      <point x="140.012" y="-107.58"/>
      <point x="146.453" y="-106.78"/>
      <point x="153.857" y="-106.78" type="curve" smooth="yes"/>
      <point x="179.815" y="-106.78"/>
      <point x="205.701" y="-118.044"/>
      <point x="231.322" y="-129.193" type="curve" smooth="yes"/>
      <point x="255.464" y="-139.698"/>
      <point x="279.362" y="-150.098"/>
      <point x="301.714" y="-150.098" type="curve" smooth="yes"/>
      <point x="329.642" y="-150.098"/>
      <point x="352.271" y="-133.733"/>
      <point x="356.214" y="-81.7521" type="curve"/>
      <point x="391.486" y="-81.7521" type="line"/>
      <point x="391.486" y="-134.886"/>
      <point x="373.911" y="-250.349"/>
      <point x="283.971" y="-250.349" type="curve" smooth="yes"/>
      <point x="244.954" y="-250.349"/>
      <point x="216.128" y="-232.213"/>
      <point x="189.406" y="-215.401" type="curve" smooth="yes"/>
      <point x="167.472" y="-201.602"/>
      <point x="147.03" y="-188.741"/>
      <point x="124.286" y="-188.741" type="curve" smooth="yes"/>
      <point x="100.549" y="-188.741"/>
      <point x="72.7457" y="-206.068"/>
      <point x="59.9314" y="-245.536" type="curve"/>
      <point x="25.3031" y="-245.536" type="line"/>
      <point x="30.5927" y="-167.019"/>
      <point x="102.684" y="-86.9231"/>
      <point x="159.866" y="-47.9774" type="curve" smooth="yes"/>
      <point x="251.772" y="14.6178"/>
      <point x="280.943" y="75.5259"/>
      <point x="280.943" y="126.102" type="curve" smooth="yes"/>
      <point x="280.943" y="185.331"/>
      <point x="239.937" y="212.668"/>
      <point x="194.271" y="212.668" type="curve" smooth="yes"/>
      <point x="157.309" y="212.668"/>
      <point x="116.704" y="193.145"/>
      <point x="96.8567" y="166.284" type="curve"/>
      <point x="102.572" y="167.547"/>
      <point x="108.175" y="168.171"/>
      <point x="113.39" y="168.171" type="curve" smooth="yes"/>
      <point x="153.495" y="168.171"/>
      <point x="177.586" y="133.649"/>
      <point x="177.586" y="103.962" type="curve" smooth="yes"/>
      <point x="177.586" y="67.5144"/>
      <point x="148.794" y="39.3975"/>
      <point x="111.471" y="39.3975" type="curve" smooth="yes"/>
      <point x="74.3595" y="39.3975"/>
      <point x="40.4286" y="66.1886"/>
      <point x="40.4286" y="113.588" type="curve" smooth="yes"/>
      <point x="40.4286" y="180.471"/>
      <point x="109.389" y="250.349"/>
    </contour>
  </outline>
</glyph>
<glyph name="three" format="2">
  <advance width="423"/>
  <unicode hex="0033"/>
  <outline>
    <contour>
      <point x="268" y="26" type="line"/>
      <point x="346" y="3"/>
      <point x="397" y="-53"/>
      <point x="397" y="-117" type="curve" smooth="yes"/>
      <point x="397" y="-188"/>
      <point x="331" y="-250"/>
      <point x="203" y="-250" type="curve" smooth="yes"/>
      <point x="112" y="-250"/>
      <point x="26" y="-189"/>
      <point x="26" y="-125" type="curve" smooth="yes"/>
      <point x="26" y="-73"/>
      <point x="59" y="-46"/>
      <point x="96" y="-46" type="curve" smooth="yes"/>
      <point x="133" y="-46"/>
      <point x="162" y="-75"/>
      <point x="162" y="-111" type="curve" smooth="yes"/>
      <point x="162" y="-140"/>
      <point x="140" y="-175"/>
      <point x="96" y="-175" type="curve" smooth="yes"/>
      <point x="91" y="-175"/>
      <point x="98" y="-176"/>
      <point x="92" y="-175" type="curve"/>
      <point x="110" y="-191"/>
      <point x="150" y="-213"/>
      <point x="191" y="-213" type="curve" smooth="yes"/>
      <point x="258" y="-213"/>
      <point x="282" y="-170"/>
      <point x="282" y="-102" type="curve" smooth="yes"/>
      <point x="282" y="-45"/>
      <point x="265" y="1"/>
      <point x="155" y="1" type="curve"/>
      <point x="155" y="39" type="line"/>
      <point x="259" y="39"/>
      <point x="282" y="76"/>
      <point x="282" y="126" type="curve" smooth="yes"/>
      <point x="282" y="178"/>
      <point x="262" y="215"/>
      <point x="197" y="215" type="curve" smooth="yes"/>
      <point x="167" y="215"/>
      <point x="128" y="198"/>
      <point x="109" y="175" type="curve"/>
      <point x="105" y="183" type="line"/>
      <point x="108" y="183"/>
      <point x="111" y="184"/>
      <point x="114" y="184" type="curve" smooth="yes"/>
      <point x="150" y="184"/>
      <point x="174" y="155"/>
      <point x="174" y="125" type="curve" smooth="yes"/>
      <point x="174" y="92"/>
      <point x="146" y="66" name="hr01"/>
      <point x="113" y="66" type="curve" smooth="yes"/>
      <point x="80" y="66"/>
      <point x="52" y="90" name="hr02"/>
      <point x="52" y="128" type="curve" smooth="yes"/>
      <point x="52" y="192"/>
      <point x="130" y="250" name="hr03"/>
      <point x="210" y="250" type="curve" smooth="yes"/>
      <point x="295" y="250"/>
      <point x="377" y="203"/>
      <point x="377" y="131" type="curve" smooth="yes"/>
      <point x="377" y="78"/>
      <point x="335" y="44"/>
      <point x="282" y="21" type="curve"/>
    </contour>
  </outline>
</glyph>
<glyph name="four" format="2">
  <advance width="435"/>
  <unicode hex="0034"/>
  <outline>
    <contour>
      <point x="313" y="122" type="line"/>
      <point x="313" y="75" type="line" smooth="yes"/>
      <point x="313" y="44"/>
      <point x="333" y="30"/>
      <point x="361" y="30" type="curve" smooth="yes"/>
      <point x="385" y="30" type="line"/>
      <point x="385" y="0" type="line"/>
      <point x="147" y="0" type="line"/>
      <point x="147" y="30" type="line"/>
      <point x="171" y="30" type="line" smooth="yes"/>
      <point x="199" y="30"/>
      <point x="219" y="44"/>
      <point x="219" y="76" type="curve" smooth="yes"/>
      <point x="219" y="122" type="line"/>
      <point x="154.333" y="122"/>
      <point x="89.6667" y="122"/>
      <point x="25" y="122" type="curve"/>
      <point x="25" y="152" type="line"/>
      <point x="105" y="270"/>
      <point x="138" y="382"/>
      <point x="162" y="500" type="curve"/>
      <point x="183.338" y="492.379"/>
      <point x="208.291" y="488.372"/>
      <point x="234.627" y="488.372" type="curve" smooth="yes"/>
      <point x="260.128" y="488.372"/>
      <point x="286.927" y="492.129"/>
      <point x="313" y="500" type="curve"/>
      <point x="257" y="376"/>
      <point x="151" y="291"/>
      <point x="58" y="152" type="curve"/>
      <point x="219" y="152" type="line"/>
      <point x="219" y="276" type="line"/>
      <point x="313" y="383" type="line"/>
      <point x="313" y="152" type="line"/>
      <point x="410" y="152" type="line"/>
      <point x="410" y="122" type="line"/>
    </contour>
  </outline>
</glyph>
<glyph name="five" format="2">
  <advance width="408"/>
  <unicode hex="0035"/>
  <outline>
    <contour>
      <point x="103" y="53" type="line"/>
      <point x="104" y="53" type="line"/>
      <point x="129" y="62"/>
      <point x="157" y="73"/>
      <point x="207" y="73" type="curve" smooth="yes"/>
      <point x="291" y="73"/>
      <point x="383" y="22"/>
      <point x="383" y="-88" type="curve" smooth="yes"/>
      <point x="383" y="-189"/>
      <point x="300" y="-250"/>
      <point x="189" y="-250" type="curve" smooth="yes"/>
      <point x="99" y="-250"/>
      <point x="26" y="-198"/>
      <point x="26" y="-133" type="curve" smooth="yes"/>
      <point x="26" y="-79"/>
      <point x="59" y="-52"/>
      <point x="96" y="-52" type="curve" smooth="yes"/>
      <point x="133" y="-52"/>
      <point x="162" y="-81"/>
      <point x="162" y="-118" type="curve" smooth="yes"/>
      <point x="162" y="-148"/>
      <point x="139" y="-184"/>
      <point x="98" y="-184" type="curve" smooth="yes"/>
      <point x="94" y="-184"/>
      <point x="90" y="-184"/>
      <point x="86" y="-183" type="curve"/>
      <point x="91" y="-176" type="line"/>
      <point x="100" y="-193"/>
      <point x="134" y="-213"/>
      <point x="183" y="-213" type="curve" smooth="yes"/>
      <point x="234" y="-213"/>
      <point x="273" y="-178"/>
      <point x="273" y="-88" type="curve" smooth="yes"/>
      <point x="273" y="-8"/>
      <point x="248" y="33"/>
      <point x="184" y="33" type="curve" smooth="yes"/>
      <point x="147" y="33"/>
      <point x="112" y="17"/>
      <point x="65" y="-10" type="curve" name="hr01"/>
      <point x="65" y="249" type="line"/>
      <point x="131" y="236"/>
      <point x="181" y="231"/>
      <point x="221" y="231" type="curve" smooth="yes"/>
      <point x="271" y="231"/>
      <point x="313" y="240"/>
      <point x="353" y="250" type="curve"/>
      <point x="330" y="167"/>
      <point x="255" y="141"/>
      <point x="174" y="141" type="curve" smooth="yes"/>
      <point x="150" y="141"/>
      <point x="127" y="143"/>
      <point x="103" y="146" type="curve"/>
    </contour>
  </outline>
</glyph>
<glyph name="six" format="2">
  <advance width="418"/>
  <unicode hex="0036"/>
  <outline>
    <contour>
      <point x="254" y="164" type="curve" smooth="yes"/>
      <point x="254" y="188"/>
      <point x="267" y="204"/>
      <point x="278" y="213" type="curve"/>
      <point x="272" y="215" name="hr01"/>
      <point x="265" y="215"/>
      <point x="256" y="215" type="curve" smooth="yes"/>
      <point x="179" y="215"/>
      <point x="128" y="118"/>
      <point x="128" y="37" type="curve" smooth="yes"/>
      <point x="128" y="1" type="line"/>
      <point x="149" y="22"/>
      <point x="184" y="34"/>
      <point x="233" y="34" type="curve" smooth="yes"/>
      <point x="318" y="34"/>
      <point x="392" y="12"/>
      <point x="392" y="-87" type="curve" smooth="yes"/>
      <point x="392" y="-185"/>
      <point x="316" y="-250"/>
      <point x="216" y="-250" type="curve" smooth="yes"/>
      <point x="92" y="-250"/>
      <point x="26" y="-144"/>
      <point x="26" y="-5" type="curve" smooth="yes"/>
      <point x="26" y="132"/>
      <point x="122" y="250"/>
      <point x="256" y="250" type="curve" smooth="yes"/>
      <point x="326" y="250"/>
      <point x="380" y="211"/>
      <point x="380" y="164" type="curve" smooth="yes"/>
      <point x="380" y="130"/>
      <point x="352" y="102"/>
      <point x="317" y="102" type="curve" smooth="yes"/>
      <point x="282" y="102"/>
      <point x="254" y="130"/>
    </contour>
    <contour>
      <point x="220" y="-21" type="curve" smooth="yes"/>
      <point x="181" y="-21"/>
      <point x="128" y="-17"/>
      <point x="128" y="-75" type="curve" smooth="yes"/>
      <point x="128" y="-96" type="line" smooth="yes"/>
      <point x="128" y="-152"/>
      <point x="155" y="-211"/>
      <point x="214" y="-211" type="curve" smooth="yes"/>
      <point x="266" y="-211"/>
      <point x="290" y="-168"/>
      <point x="290" y="-90" type="curve" smooth="yes"/>
      <point x="290" y="-45"/>
      <point x="275" y="-21"/>
    </contour>
  </outline>
</glyph>
<glyph name="seven" format="2">
  <advance width="383"/>
  <unicode hex="0037"/>
  <outline>
    <contour>
      <point x="331" y="129" type="line"/>
      <point x="313" y="104"/>
      <point x="292" y="94" name="hr01"/>
      <point x="267" y="94" type="curve" smooth="yes"/>
      <point x="244" y="94"/>
      <point x="218" y="107"/>
      <point x="191" y="119" type="curve" smooth="yes"/>
      <point x="164" y="131"/>
      <point x="137" y="144"/>
      <point x="113" y="144" type="curve" smooth="yes"/>
      <point x="81" y="144"/>
      <point x="70" y="116"/>
      <point x="66" y="73" type="curve"/>
      <point x="31" y="73" type="line"/>
      <point x="31" y="250" type="line"/>
      <point x="66" y="250" type="line"/>
      <point x="66" y="198" type="line"/>
      <point x="82" y="223"/>
      <point x="105" y="239"/>
      <point x="135" y="239" type="curve" smooth="yes"/>
      <point x="165" y="239"/>
      <point x="191" y="227"/>
      <point x="215" y="215" type="curve" smooth="yes"/>
      <point x="237" y="204"/>
      <point x="259" y="194"/>
      <point x="284" y="194" type="curve" smooth="yes"/>
      <point x="323" y="194"/>
      <point x="336" y="217"/>
      <point x="343" y="250" type="curve"/>
      <point x="378" y="250" type="line"/>
      <point x="378" y="122"/>
      <point x="338" y="51"/>
      <point x="300" y="-19" type="curve" smooth="yes"/>
      <point x="265" y="-83"/>
      <point x="231" y="-145"/>
      <point x="231" y="-250" type="curve"/>
      <point x="205" y="-242"/>
      <point x="183" y="-239"/>
      <point x="164" y="-239" type="curve" smooth="yes"/>
      <point x="143" y="-239"/>
      <point x="122" y="-243"/>
      <point x="102" y="-249" type="curve"/>
      <point x="102" y="-137"/>
      <point x="158" y="-78"/>
      <point x="216" y="-16" type="curve" smooth="yes"/>
      <point x="257" y="27"/>
      <point x="299" y="71"/>
      <point x="323" y="133" type="curve"/>
    </contour>
  </outline>
</glyph>
<glyph name="eight" format="2">
  <advance width="424"/>
  <unicode hex="0038"/>
  <outline>
    <contour>
      <point x="131.257" y="151.13" type="curve" smooth="yes"/>
      <point x="131.257" y="122.432"/>
      <point x="177.88" y="97.9502"/>
      <point x="231.249" y="69.9264" type="curve" smooth="yes"/>
      <point x="243.182" y="63.6604"/>
      <point x="252.805" y="58.6736"/>
      <point x="264.972" y="51.9577" type="curve"/>
      <point x="294.662" y="72.7345"/>
      <point x="310.514" y="99.3911"/>
      <point x="310.514" y="133.803" type="curve" smooth="yes"/>
      <point x="310.514" y="177.283"/>
      <point x="276.711" y="211.705"/>
      <point x="210.043" y="211.705" type="curve" smooth="yes"/>
      <point x="154.429" y="211.705"/>
      <point x="131.257" y="180.527"/>
    </contour>
    <contour>
      <point x="312.486" y="-143.429" type="curve" smooth="yes"/>
      <point x="312.486" y="-92.3465"/>
      <point x="256.064" y="-67.3295"/>
      <point x="195.805" y="-40.6111" type="curve" smooth="yes"/>
      <point x="184.109" y="-35.4254"/>
      <point x="174.464" y="-31.2146"/>
      <point x="162.852" y="-25.6982" type="curve"/>
      <point x="117.364" y="-49.6712"/>
      <point x="92.8143" y="-78.7435"/>
      <point x="92.8143" y="-122.252" type="curve" smooth="yes"/>
      <point x="92.8143" y="-166.065"/>
      <point x="123.067" y="-211.705"/>
      <point x="210.043" y="-211.705" type="curve" smooth="yes"/>
      <point x="292.749" y="-211.705"/>
      <point x="312.486" y="-173.974"/>
    </contour>
    <contour>
      <point x="134.649" y="-10.994" type="line"/>
      <point x="85.9282" y="15.7689"/>
      <point x="46.3429" y="51.5855"/>
      <point x="46.3429" y="112.626" type="curve" smooth="yes"/>
      <point x="46.3429" y="188.473"/>
      <point x="125.651" y="250.349"/>
      <point x="210.043" y="250.349" type="curve" smooth="yes"/>
      <point x="297.469" y="250.349"/>
      <point x="374.729" y="202.123"/>
      <point x="374.729" y="133.803" type="curve" smooth="yes"/>
      <point x="374.729" y="89.3004"/>
      <point x="343.047" y="56.7774"/>
      <point x="299.801" y="32.4846" type="curve"/>
      <point x="353.599" y="-0.346501"/>
      <point x="398.386" y="-40.4292"/>
      <point x="398.386" y="-99.149" type="curve" smooth="yes"/>
      <point x="398.386" y="-188.675"/>
      <point x="307.252" y="-250.349"/>
      <point x="210.043" y="-250.349" type="curve" smooth="yes"/>
      <point x="104.671" y="-250.349"/>
      <point x="25.6429" y="-189.247"/>
      <point x="25.6429" y="-125.14" type="curve" smooth="yes"/>
      <point x="25.6429" y="-68.0654"/>
      <point x="68.563" y="-32.7757"/>
      <point x="126.138" y="-6.31873" type="curve"/>
    </contour>
  </outline>
</glyph>
<glyph name="nine" format="2">
  <advance width="414"/>
  <unicode hex="0039"/>
  <outline>
    <contour>
      <point x="139.841" y="-211.053" type="line"/>
      <point x="147.218" y="-213.754"/>
      <point x="155.465" y="-215.555"/>
      <point x="162.729" y="-215.555" type="curve" smooth="yes"/>
      <point x="240.497" y="-215.555"/>
      <point x="289.814" y="-133.964"/>
      <point x="289.814" y="-30.8036" type="curve"/>
      <point x="289.814" y="-29.8893" type="line"/>
      <point x="269.645" y="-48.7999"/>
      <point x="234.829" y="-65.5274"/>
      <point x="194.271" y="-65.5274" type="curve" smooth="yes"/>
      <point x="105.894" y="-65.5274"/>
      <point x="25.6429" y="-16.7318"/>
      <point x="25.6429" y="80.8594" type="curve" smooth="yes"/>
      <point x="25.6429" y="183.941"/>
      <point x="101.727" y="250.349"/>
      <point x="202.157" y="250.349" type="curve" smooth="yes"/>
      <point x="318.573" y="250.349"/>
      <point x="392.471" y="166.596"/>
      <point x="392.471" y="38.5045" type="curve" smooth="yes"/>
      <point x="392.471" y="-128.932"/>
      <point x="296.745" y="-250.349"/>
      <point x="162.729" y="-250.349" type="curve" smooth="yes"/>
      <point x="107.111" y="-250.349"/>
      <point x="46.3429" y="-220.706" name="hr01"/>
      <point x="46.3429" y="-166.532" type="curve" smooth="yes"/>
      <point x="46.3429" y="-132.035"/>
      <point x="74.1748" y="-104.855"/>
      <point x="109.5" y="-104.855" type="curve" smooth="yes"/>
      <point x="144.825" y="-104.855"/>
      <point x="172.657" y="-132.035"/>
      <point x="172.657" y="-166.532" type="curve" smooth="yes"/>
      <point x="172.657" y="-196.879"/>
      <point x="153.256" y="-213.677"/>
      <point x="140.322" y="-219.992" type="curve"/>
    </contour>
    <contour>
      <point x="209.057" y="-27.846" type="curve" smooth="yes"/>
      <point x="240.617" y="-27.846"/>
      <point x="289.814" y="-0.6709"/>
      <point x="289.814" y="50.0558" type="curve" smooth="yes"/>
      <point x="289.814" y="96.2612" type="line" smooth="yes"/>
      <point x="289.814" y="152.672"/>
      <point x="262.805" y="215.555"/>
      <point x="204.129" y="215.555" type="curve" smooth="yes"/>
      <point x="152.343" y="215.555"/>
      <point x="128.3" y="171.929" name="hr02"/>
      <point x="128.3" y="83.7472" type="curve" smooth="yes"/>
      <point x="128.3" y="3.51078"/>
      <point x="162.645" y="-27.846"/>
    </contour>
  </outline>
</glyph>
<glyph name="colon" format="2">
  <advance width="125"/>
  <unicode hex="003A"/>
  <outline>
    <contour>
      <point x="534" y="529" type="line"/>
      <point x="533" y="495" type="line" smooth="yes"/>
      <point x="525" y="209"/>
      <point x="382" y="14"/>
      <point x="122" y="-40" type="curve"/>
      <point x="122" y="-80" type="line"/>
      <point x="0" y="-80" type="line"/>
      <point x="0" y="35" type="line"/>
      <point x="19" y="35" type="line" smooth="yes"/>
      <point x="376" y="35"/>
      <point x="487" y="258"/>
      <point x="500" y="510" type="curve" smooth="yes"/>
      <point x="501" y="530" type="line"/>
    </contour>
  </outline>
</glyph>
<glyph name="semicolon" format="2">
  <advance width="202"/>
  <unicode hex="003B"/>
  <outline>
    <contour>
      <point x="0" y="-26" type="curve" smooth="yes"/>
      <point x="0" y="37"/>
      <point x="62" y="95"/>
      <point x="129" y="95" type="curve" smooth="yes"/>
      <point x="140" y="95"/>
      <point x="151" y="93"/>
      <point x="161" y="89" type="curve" smooth="yes"/>
      <point x="166" y="86"/>
      <point x="178" y="91"/>
      <point x="178" y="96" type="curve" smooth="yes"/>
      <point x="178" y="575" type="line"/>
      <point x="203" y="575" type="line"/>
      <point x="203" y="549"/>
      <point x="214" y="515"/>
      <point x="229" y="496" type="curve" smooth="yes"/>
      <point x="279" y="432"/>
      <point x="382" y="354"/>
      <point x="382" y="204" type="curve" smooth="yes"/>
      <point x="382" y="133"/>
      <point x="355" y="66"/>
      <point x="342" y="42" type="curve"/>
      <point x="317" y="54" type="line"/>
      <point x="335" y="91"/>
      <point x="352" y="146"/>
      <point x="352" y="205" type="curve" smooth="yes"/>
      <point x="352" y="286"/>
      <point x="312" y="347"/>
      <point x="271" y="376" type="curve" smooth="yes"/>
      <point x="251" y="390"/>
      <point x="235" y="397"/>
      <point x="213" y="397" type="curve" smooth="yes"/>
      <point x="207" y="397"/>
      <point x="202" y="392"/>
      <point x="202" y="388" type="curve" smooth="yes"/>
      <point x="202" y="27" type="line" smooth="yes"/>
      <point x="202" y="-37"/>
      <point x="141" y="-95"/>
      <point x="74" y="-95" type="curve" smooth="yes"/>
      <point x="35" y="-95"/>
      <point x="0" y="-68"/>
    </contour>
  </outline>
</glyph>
<glyph name="less" format="2">
  <advance width="300"/>
  <unicode hex="003C"/>
  <outline>
    <contour>
      <point x="300" y="-176" type="line"/>
      <point x="0" y="-176" type="line"/>
      <point x="0" y="-110" type="line"/>
      <point x="300" y="-110" type="line"/>
    </contour>
    <contour>
      <point x="198" y="0" type="curve" smooth="yes"/>
      <point x="198" y="-26"/>
      <point x="176" y="-48"/>
      <point x="150" y="-48" type="curve" smooth="yes"/>
      <point x="124" y="-48"/>
      <point x="102" y="-26"/>
      <point x="102" y="0" type="curve" smooth="yes"/>
      <point x="102" y="26"/>
      <point x="124" y="48"/>
      <point x="150" y="48" type="curve" smooth="yes"/>
      <point x="176" y="48"/>
      <point x="198" y="26"/>
    </contour>
  </outline>
</glyph>
<glyph name="equal" format="2">
  <advance width="440"/>
  <unicode hex="003D"/>
  <outline>
    <contour>
      <point x="220" y="242" type="curve" smooth="yes"/>
      <point x="197" y="242"/>
      <point x="176" y="221"/>
      <point x="176" y="198" type="curve" smooth="yes"/>
      <point x="176" y="175"/>
      <point x="197" y="154"/>
      <point x="220" y="154" type="curve" smooth="yes"/>
      <point x="244" y="154"/>
      <point x="264" y="175"/>
      <point x="264" y="198" type="curve" smooth="yes"/>
      <point x="264" y="221"/>
      <point x="244" y="242"/>
    </contour>
    <contour>
      <point x="220" y="-22" type="curve" smooth="yes"/>
      <point x="198" y="-22"/>
      <point x="180" y="-4"/>
      <point x="180" y="18" type="curve" smooth="yes"/>
      <point x="180" y="46"/>
      <point x="205" y="54"/>
      <point x="205" y="83" type="curve" smooth="yes"/>
      <point x="205" y="103" type="line" smooth="yes"/>
      <point x="205" y="136"/>
      <point x="182" y="138"/>
      <point x="164" y="120" type="curve" smooth="yes"/>
      <point x="151" y="107" type="line" smooth="yes"/>
      <point x="132" y="88"/>
      <point x="142" y="64"/>
      <point x="121" y="43" type="curve" smooth="yes"/>
      <point x="105" y="27"/>
      <point x="81" y="27"/>
      <point x="65" y="43" type="curve" smooth="yes"/>
      <point x="49" y="59"/>
      <point x="49" y="83"/>
      <point x="65" y="99" type="curve" smooth="yes"/>
      <point x="85" y="119"/>
      <point x="110" y="110"/>
      <point x="128" y="128" type="curve" smooth="yes"/>
      <point x="141" y="141" type="line" smooth="yes"/>
      <point x="160" y="160"/>
      <point x="155" y="182"/>
      <point x="124" y="182" type="curve" smooth="yes"/>
      <point x="104" y="182" type="line" smooth="yes"/>
      <point x="73" y="182"/>
      <point x="70" y="158"/>
      <point x="40" y="158" type="curve" smooth="yes"/>
      <point x="17" y="158"/>
      <point x="0" y="175"/>
      <point x="0" y="198" type="curve" smooth="yes"/>
      <point x="0" y="221"/>
      <point x="17" y="238"/>
      <point x="40" y="238" type="curve" smooth="yes"/>
      <point x="68" y="238"/>
      <point x="76" y="214"/>
      <point x="103" y="214" type="curve" smooth="yes"/>
      <point x="125" y="214" type="line" smooth="yes"/>
      <point x="159" y="214"/>
      <point x="155" y="241"/>
      <point x="141" y="255" type="curve" smooth="yes"/>
      <point x="128" y="268" type="line" smooth="yes"/>
      <point x="107" y="289"/>
      <point x="84" y="278"/>
      <point x="65" y="297" type="curve" smooth="yes"/>
      <point x="49" y="313"/>
      <point x="49" y="337"/>
      <point x="65" y="353" type="curve" smooth="yes"/>
      <point x="81" y="369"/>
      <point x="105" y="369"/>
      <point x="121" y="353" type="curve" smooth="yes"/>
      <point x="139" y="335"/>
      <point x="129" y="311"/>
      <point x="150" y="290" type="curve" smooth="yes"/>
      <point x="164" y="276" type="line" smooth="yes"/>
      <point x="184" y="256"/>
      <point x="205" y="259"/>
      <point x="205" y="297" type="curve" smooth="yes"/>
      <point x="205" y="316" type="line" smooth="yes"/>
      <point x="205" y="340"/>
      <point x="180" y="351"/>
      <point x="180" y="378" type="curve" smooth="yes"/>
      <point x="180" y="400"/>
      <point x="198" y="418"/>
      <point x="220" y="418" type="curve" smooth="yes"/>
      <point x="243" y="418"/>
      <point x="260" y="400"/>
      <point x="260" y="378" type="curve" smooth="yes"/>
      <point x="260" y="348"/>
      <point x="235" y="343"/>
      <point x="235" y="316" type="curve" smooth="yes"/>
      <point x="235" y="297" type="line" smooth="yes"/>
      <point x="235" y="265"/>
      <point x="256" y="256"/>
      <point x="276" y="276" type="curve" smooth="yes"/>
      <point x="289" y="289" type="line" smooth="yes"/>
      <point x="309" y="309"/>
      <point x="300" y="334"/>
      <point x="319" y="353" type="curve" smooth="yes"/>
      <point x="335" y="369"/>
      <point x="359" y="369"/>
      <point x="375" y="353" type="curve" smooth="yes"/>
      <point x="391" y="337"/>
      <point x="391" y="313"/>
      <point x="375" y="297" type="curve" smooth="yes"/>
      <point x="355" y="277"/>
      <point x="328" y="284"/>
      <point x="310" y="266" type="curve" smooth="yes"/>
      <point x="299" y="255" type="line" smooth="yes"/>
      <point x="284" y="240"/>
      <point x="287" y="214"/>
      <point x="315" y="214" type="curve" smooth="yes"/>
      <point x="337" y="214" type="line" smooth="yes"/>
      <point x="365" y="214"/>
      <point x="372" y="238"/>
      <point x="400" y="238" type="curve" smooth="yes"/>
      <point x="423" y="238"/>
      <point x="440" y="221"/>
      <point x="440" y="198" type="curve" smooth="yes"/>
      <point x="440" y="175"/>
      <point x="423" y="158"/>
      <point x="400" y="158" type="curve" smooth="yes"/>
      <point x="370" y="158"/>
      <point x="366" y="182"/>
      <point x="336" y="182" type="curve" smooth="yes"/>
      <point x="316" y="182" type="line" smooth="yes"/>
      <point x="290" y="182"/>
      <point x="280" y="160"/>
      <point x="299" y="141" type="curve" smooth="yes"/>
      <point x="312" y="128" type="line" smooth="yes"/>
      <point x="333" y="107"/>
      <point x="355" y="119"/>
      <point x="375" y="99" type="curve" smooth="yes"/>
      <point x="391" y="83"/>
      <point x="391" y="59"/>
      <point x="375" y="43" type="curve" smooth="yes"/>
      <point x="359" y="27"/>
      <point x="335" y="27"/>
      <point x="319" y="43" type="curve" smooth="yes"/>
      <point x="298" y="64"/>
      <point x="311" y="85"/>
      <point x="288" y="108" type="curve" smooth="yes"/>
      <point x="276" y="120" type="line" smooth="yes"/>
      <point x="257" y="139"/>
      <point x="235" y="127"/>
      <point x="235" y="103" type="curve" smooth="yes"/>
      <point x="235" y="83" type="line" smooth="yes"/>
      <point x="235" y="54"/>
      <point x="260" y="46"/>
      <point x="260" y="18" type="curve" smooth="yes"/>
      <point x="260" y="-4"/>
      <point x="243" y="-22"/>
    </contour>
  </outline>
</glyph>
<glyph name="greater" format="2">
  <advance width="323"/>
  <unicode hex="003E"/>
  <outline>
    <contour>
      <point x="11.7781" y="25" type="curve" smooth="yes"/>
      <point x="7.28374" y="25"/>
      <point x="0.3931" y="32.0836"/>
      <point x="0.3931" y="36.7038" type="curve" smooth="yes"/>
      <point x="0.3931" y="56.1767"/>
      <point x="190.331" y="106.807"/>
      <point x="218.093" y="117.155" type="curve" smooth="yes"/>
      <point x="225.04" y="119.744"/>
      <point x="229.15" y="122.727"/>
      <point x="229.15" y="125.178" type="curve" smooth="yes"/>
      <point x="229.15" y="128.96"/>
      <point x="220.84" y="131.329"/>
      <point x="206.956" y="135.917" type="curve" smooth="yes"/>
      <point x="147.975" y="155.409"/>
      <point x="71.6621" y="173.814"/>
      <point x="21.9241" y="194.36" type="curve" smooth="yes"/>
      <point x="5.13165" y="201.297"/>
      <point x="0.321694" y="204.545"/>
      <point x="0.321694" y="208.947" type="curve" smooth="yes"/>
      <point x="0.321694" y="216.848"/>
      <point x="6.30344" y="225"/>
      <point x="12.1007" y="225" type="curve" smooth="yes"/>
      <point x="26.4535" y="225"/>
      <point x="317.264" y="131.175"/>
      <point x="322.05" y="125" type="curve"/>
      <point x="315.878" y="118.275"/>
      <point x="26.4726" y="25"/>
    </contour>
  </outline>
</glyph>
<glyph name="question" format="2">
  <advance width="789"/>
  <unicode hex="003F"/>
  <outline>
    <contour>
      <point x="136" y="114" type="curve" smooth="yes"/>
      <point x="199" y="114"/>
      <point x="249" y="64"/>
      <point x="249" y="1" type="curve" smooth="yes"/>
      <point x="249" y="-62"/>
      <point x="199" y="-112"/>
      <point x="136" y="-112" type="curve" smooth="yes"/>
      <point x="71" y="-112"/>
      <point x="14" y="-59"/>
      <point x="14" y="35" type="curve" smooth="yes"/>
      <point x="14" y="154"/>
      <point x="126" y="270"/>
      <point x="292" y="270" type="curve" smooth="yes"/>
      <point x="488" y="270"/>
      <point x="600" y="134"/>
      <point x="600" y="-52" type="curve" smooth="yes"/>
      <point x="600" y="-357"/>
      <point x="255" y="-618"/>
      <point x="-6" y="-650" type="curve"/>
      <point x="-12" y="-614" type="line"/>
      <point x="279" y="-550"/>
      <point x="477" y="-344"/>
      <point x="477" y="-32" type="curve" smooth="yes"/>
      <point x="477" y="123"/>
      <point x="417" y="235"/>
      <point x="271" y="235" type="curve" smooth="yes"/>
      <point x="180" y="235"/>
      <point x="112" y="188"/>
      <point x="81" y="131" type="curve" smooth="yes"/>
      <point x="79.9947" y="129.157"/>
      <point x="79.5509" y="127.146"/>
      <point x="79.5509" y="125.093" type="curve" smooth="yes"/>
      <point x="79.5509" y="116.142"/>
      <point x="87.9893" y="106.403"/>
      <point x="95.119" y="106.403" type="curve"/>
      <point x="96.1136" y="106.403"/>
      <point x="97.0828" y="106.592"/>
      <point x="98" y="107" type="curve"/>
      <point x="106" y="110"/>
      <point x="121" y="114"/>
    </contour>
    <contour>
      <point x="681" y="-120" type="curve" smooth="yes"/>
      <point x="681" y="-90"/>
      <point x="705" y="-66"/>
      <point x="735" y="-66" type="curve" smooth="yes"/>
      <point x="763" y="-66"/>
      <point x="789" y="-90"/>
      <point x="789" y="-120" type="curve" smooth="yes"/>
      <point x="789" y="-150"/>
      <point x="763" y="-174"/>
      <point x="735" y="-174" type="curve" smooth="yes"/>
      <point x="705" y="-174"/>
      <point x="681" y="-150"/>
    </contour>
    <contour>
      <point x="681" y="128" type="curve" smooth="yes"/>
      <point x="681" y="158"/>
      <point x="705" y="182"/>
      <point x="735" y="182" type="curve" smooth="yes"/>
      <point x="763" y="182"/>
      <point x="789" y="158"/>
      <point x="789" y="128" type="curve" smooth="yes"/>
      <point x="789" y="98"/>
      <point x="763" y="74"/>
      <point x="735" y="74" type="curve" smooth="yes"/>
      <point x="705" y="74"/>
      <point x="681" y="98"/>
    </contour>
  </outline>
</glyph>
<glyph name="A" format="2">
  <advance width="533"/>
  <unicode hex="0041"/>
  <outline>
    <contour>
      <point x="498" y="125" type="curve" smooth="yes"/>
      <point x="498" y="269"/>
      <point x="446" y="369"/>
      <point x="401" y="437" type="curve" smooth="yes"/>
      <point x="418" y="453" type="line" smooth="yes"/>
      <point x="464" y="398"/>
      <point x="533" y="288"/>
      <point x="533" y="125" type="curve" smooth="yes"/>
      <point x="534" y="-38"/>
      <point x="464" y="-148"/>
      <point x="418" y="-203" type="curve" smooth="yes"/>
      <point x="401" y="-187" type="line" smooth="yes"/>
      <point x="446" y="-119"/>
      <point x="499" y="-19"/>
    </contour>
    <contour>
      <point x="35" y="125" type="curve" smooth="yes"/>
      <point x="35" y="-19"/>
      <point x="87" y="-119"/>
      <point x="132" y="-187" type="curve" smooth="yes"/>
      <point x="115" y="-203" type="line" smooth="yes"/>
      <point x="69" y="-148"/>
      <point x="0" y="-38"/>
      <point x="0" y="125" type="curve" smooth="yes"/>
      <point x="-1" y="288"/>
      <point x="69" y="398"/>
      <point x="115" y="453" type="curve" smooth="yes"/>
      <point x="132" y="437" type="line" smooth="yes"/>
      <point x="87" y="369"/>
      <point x="34" y="269"/>
    </contour>
    <contour>
      <point x="215" y="88" type="curve" smooth="yes"/>
      <point x="211" y="84"/>
      <point x="209" y="79"/>
      <point x="209" y="73" type="curve" smooth="yes"/>
      <point x="209" y="-96" type="line" smooth="yes"/>
      <point x="209" y="-104"/>
      <point x="222" y="-107"/>
      <point x="228" y="-103" type="curve" smooth="yes"/>
      <point x="288" y="-61"/>
      <point x="334" y="-25"/>
      <point x="320" y="56" type="curve" smooth="yes"/>
      <point x="309" y="124"/>
      <point x="249" y="123"/>
    </contour>
    <contour>
      <point x="179" y="490" type="line" smooth="yes"/>
      <point x="236" y="490" type="line" smooth="yes"/>
      <point x="236" y="152" type="line" smooth="yes"/>
      <point x="236" y="144"/>
      <point x="247" y="139"/>
      <point x="254" y="139" type="curve" smooth="yes"/>
      <point x="260" y="139"/>
      <point x="290" y="153"/>
      <point x="319" y="153" type="curve" smooth="yes"/>
      <point x="369" y="153"/>
      <point x="409" y="119"/>
      <point x="409" y="60" type="curve" smooth="yes"/>
      <point x="409" y="-27"/>
      <point x="313" y="-77"/>
      <point x="242" y="-135" type="curve" smooth="yes"/>
      <point x="189" y="-178" type="line" smooth="yes"/>
      <point x="180" y="-185"/>
      <point x="179" y="-184"/>
      <point x="179" y="-171" type="curve" smooth="yes"/>
    </contour>
  </outline>
</glyph>
<glyph name="B" format="2">
  <advance width="703"/>
  <unicode hex="0042"/>
  <outline>
    <contour>
      <point x="469" y="-85" type="curve" smooth="yes"/>
      <point x="403" y="-85"/>
      <point x="370" y="-133"/>
      <point x="354" y="-194" type="curve"/>
      <point x="330" y="-194" type="line"/>
      <point x="321" y="-136"/>
      <point x="288" y="-68"/>
      <point x="237" y="-30" type="curve"/>
      <point x="231" y="-25"/>
      <point x="220" y="-33"/>
      <point x="220" y="-40" type="curve" smooth="yes"/>
      <point x="220" y="-500" type="line"/>
      <point x="187" y="-500" type="line"/>
      <point x="187" y="500" type="line"/>
      <point x="220" y="500" type="line"/>
      <point x="220" y="38" type="line" smooth="yes"/>
      <point x="220" y="30"/>
      <point x="230" y="24"/>
      <point x="238" y="30" type="curve" smooth="yes"/>
      <point x="289" y="69"/>
      <point x="321" y="136"/>
      <point x="330" y="194" type="curve"/>
      <point x="354" y="194" type="line"/>
      <point x="370" y="133"/>
      <point x="403" y="85"/>
      <point x="469" y="85" type="curve" smooth="yes"/>
      <point x="569" y="85"/>
      <point x="586" y="161"/>
      <point x="586" y="292" type="curve"/>
      <point x="585" y="429"/>
      <point x="543" y="479"/>
      <point x="451" y="479" type="curve" smooth="yes"/>
      <point x="430" y="479"/>
      <point x="404" y="475"/>
      <point x="404" y="458" type="curve" smooth="yes"/>
      <point x="404" y="434"/>
      <point x="449" y="422"/>
      <point x="449" y="370" type="curve" smooth="yes"/>
      <point x="449" y="324"/>
      <point x="411" y="291"/>
      <point x="365" y="291" type="curve" smooth="yes"/>
      <point x="319" y="291"/>
      <point x="281" y="329"/>
      <point x="281" y="375" type="curve" smooth="yes"/>
      <point x="281" y="449"/>
      <point x="359" y="507"/>
      <point x="464" y="507" type="curve" smooth="yes"/>
      <point x="611" y="507"/>
      <point x="703" y="410"/>
      <point x="703" y="279" type="curve" smooth="yes"/>
      <point x="703" y="139"/>
      <point x="604" y="53"/>
      <point x="485" y="53" type="curve" smooth="yes"/>
      <point x="453" y="53"/>
      <point x="425" y="61"/>
      <point x="401" y="75" type="curve"/>
      <point x="393" y="80"/>
      <point x="381" y="75"/>
      <point x="377" y="69" type="curve"/>
      <point x="364" y="51"/>
      <point x="347" y="31"/>
      <point x="335" y="15" type="curve"/>
      <point x="326" y="5"/>
      <point x="330" y="-7"/>
      <point x="335" y="-12" type="curve" smooth="yes"/>
      <point x="350" y="-27"/>
      <point x="366" y="-48"/>
      <point x="377" y="-67" type="curve" smooth="yes"/>
      <point x="380" y="-72"/>
      <point x="396" y="-78"/>
      <point x="405" y="-73" type="curve" smooth="yes"/>
      <point x="428" y="-60"/>
      <point x="455" y="-53"/>
      <point x="485" y="-53" type="curve" smooth="yes"/>
      <point x="604" y="-53"/>
      <point x="703" y="-139"/>
      <point x="703" y="-279" type="curve" smooth="yes"/>
      <point x="703" y="-410"/>
      <point x="611" y="-507"/>
      <point x="464" y="-507" type="curve" smooth="yes"/>
      <point x="359" y="-507"/>
      <point x="281" y="-449"/>
      <point x="281" y="-375" type="curve" smooth="yes"/>
      <point x="281" y="-329"/>
      <point x="319" y="-291"/>
      <point x="365" y="-291" type="curve" smooth="yes"/>
      <point x="411" y="-291"/>
      <point x="449" y="-324"/>
      <point x="449" y="-370" type="curve" smooth="yes"/>
      <point x="449" y="-422"/>
      <point x="404" y="-434"/>
      <point x="404" y="-458" type="curve" smooth="yes"/>
      <point x="404" y="-475"/>
      <point x="430" y="-479"/>
      <point x="451" y="-479" type="curve" smooth="yes"/>
      <point x="545" y="-479"/>
      <point x="585" y="-429"/>
      <point x="586" y="-292" type="curve"/>
      <point x="586" y="-161"/>
      <point x="562" y="-85"/>
    </contour>
    <contour>
      <point x="10" y="-500" type="line"/>
      <point x="10" y="500" type="line"/>
      <point x="124" y="500" type="line"/>
      <point x="124" y="-500" type="line"/>
    </contour>
  </outline>
</glyph>
<glyph name="C" format="2">
  <advance width="416"/>
  <unicode hex="0043"/>
  <outline>
    <contour>
      <point x="313" y="207" type="curve" smooth="yes"/>
      <point x="296" y="216"/>
      <point x="275" y="222"/>
      <point x="251" y="222" type="curve" smooth="yes"/>
      <point x="243" y="222"/>
      <point x="235" y="222"/>
      <point x="228" y="221" type="curve"/>
      <point x="228" y="-217" type="line"/>
      <point x="233" y="-218"/>
      <point x="238" y="-218"/>
      <point x="243" y="-218" type="curve" smooth="yes"/>
      <point x="310" y="-218"/>
      <point x="372" y="-155"/>
      <point x="383" y="-68" type="curve"/>
      <point x="413" y="-70" type="line"/>
      <point x="403" y="-157"/>
      <point x="343" y="-251"/>
      <point x="228" y="-255" type="curve"/>
      <point x="228" y="-400" type="line"/>
      <point x="196" y="-400" type="line"/>
      <point x="196" y="-253" type="line"/>
      <point x="89" y="-240"/>
      <point x="0" y="-135"/>
      <point x="0" y="0" type="curve" smooth="yes"/>
      <point x="0" y="132"/>
      <point x="78" y="234"/>
      <point x="196" y="252" type="curve"/>
      <point x="196" y="400" type="line"/>
      <point x="228" y="400" type="line"/>
      <point x="228" y="255" type="line"/>
      <point x="235" y="255" type="line" smooth="yes"/>
      <point x="342" y="255"/>
      <point x="415" y="180"/>
      <point x="416" y="113" type="curve" smooth="yes"/>
      <point x="416" y="75"/>
      <point x="386" y="44"/>
      <point x="348" y="44" type="curve" smooth="yes"/>
      <point x="310" y="44"/>
      <point x="280" y="75"/>
      <point x="280" y="113" type="curve" smooth="yes"/>
      <point x="280" y="137"/>
      <point x="291" y="158"/>
      <point x="311" y="171" type="curve" smooth="yes"/>
      <point x="318.095" y="175.366"/>
      <point x="322.211" y="183.604"/>
      <point x="322.211" y="191.325" type="curve" smooth="yes"/>
      <point x="322.211" y="197.752"/>
      <point x="319.359" y="203.82"/>
    </contour>
    <contour>
      <point x="174" y="200" type="curve" smooth="yes"/>
      <point x="139" y="173"/>
      <point x="118" y="118"/>
      <point x="118" y="18" type="curve" smooth="yes"/>
      <point x="118" y="-22" type="line" smooth="yes"/>
      <point x="118" y="-113"/>
      <point x="133" y="-165"/>
      <point x="162" y="-192" type="curve" smooth="yes"/>
      <point x="164.346" y="-194.111"/>
      <point x="167.461" y="-195.012"/>
      <point x="170.857" y="-195.012" type="curve" smooth="yes"/>
      <point x="181.938" y="-195.012"/>
      <point x="196" y="-185.42"/>
      <point x="196" y="-177" type="curve" smooth="yes"/>
      <point x="196" y="192" type="line" smooth="yes"/>
      <point x="196" y="200"/>
      <point x="182" y="206"/>
    </contour>
  </outline>
</glyph>
<glyph name="E" format="2">
  <advance width="310"/>
  <unicode hex="0045"/>
  <outline>
    <contour>
      <point x="0" y="-130" type="line" smooth="yes"/>
      <point x="155" y="138" type="line" smooth="yes"/>
      <point x="310" y="-130" type="line" smooth="yes"/>
    </contour>
  </outline>
</glyph>
<glyph name="F" format="2">
  <advance width="831"/>
  <unicode hex="0046"/>
  <outline>
    <contour>
      <point x="449" y="-133" type="curve" smooth="yes"/>
      <point x="514" y="-133"/>
      <point x="544.019" y="-46.5312"/>
      <point x="596" y="151" type="curve" smooth="yes"/>
      <point x="606" y="189" type="line" smooth="yes"/>
      <point x="615" y="223"/>
      <point x="615" y="229"/>
      <point x="591" y="229" type="curve" smooth="yes"/>
      <point x="539" y="229" type="line" smooth="yes"/>
      <point x="527" y="229"/>
      <point x="524" y="230"/>
      <point x="530" y="248" type="curve" smooth="yes"/>
      <point x="534" y="262"/>
      <point x="536" y="262"/>
      <point x="551" y="262" type="curve" smooth="yes"/>
      <point x="602" y="262" type="line" smooth="yes"/>
      <point x="625" y="262"/>
      <point x="629" y="266"/>
      <point x="637" y="286" type="curve" smooth="yes"/>
      <point x="681" y="391"/>
      <point x="744" y="446"/>
      <point x="824" y="446" type="curve" smooth="yes"/>
      <point x="868" y="446"/>
      <point x="911" y="414"/>
      <point x="911" y="373" type="curve" smooth="yes"/>
      <point x="911" y="345"/>
      <point x="891" y="320"/>
      <point x="860" y="320" type="curve" smooth="yes"/>
      <point x="832" y="320"/>
      <point x="818" y="341"/>
      <point x="818" y="360" type="curve" smooth="yes"/>
      <point x="818" y="394"/>
      <point x="845" y="397"/>
      <point x="845" y="408" type="curve" smooth="yes"/>
      <point x="845" y="415"/>
      <point x="834" y="418"/>
      <point x="825" y="418" type="curve" smooth="yes"/>
      <point x="778" y="418"/>
      <point x="755" y="382"/>
      <point x="726" y="287" type="curve" smooth="yes"/>
      <point x="719" y="265"/>
      <point x="724" y="262"/>
      <point x="744" y="262" type="curve" smooth="yes"/>
      <point x="794" y="262" type="line" smooth="yes"/>
      <point x="804" y="262"/>
      <point x="809" y="260"/>
      <point x="804" y="246" type="curve" smooth="yes"/>
      <point x="798" y="229"/>
      <point x="794" y="229"/>
      <point x="784" y="229" type="curve" smooth="yes"/>
      <point x="732" y="229" type="line" smooth="yes"/>
      <point x="711" y="229"/>
      <point x="707" y="224"/>
      <point x="701" y="199" type="curve" smooth="yes"/>
      <point x="678" y="113" type="line" smooth="yes"/>
      <point x="633.731" y="-52.527"/>
      <point x="553" y="-161"/>
      <point x="451" y="-161" type="curve" smooth="yes"/>
      <point x="407" y="-161"/>
      <point x="364" y="-129"/>
      <point x="364" y="-88" type="curve" smooth="yes"/>
      <point x="364" y="-60"/>
      <point x="384" y="-35"/>
      <point x="415" y="-35" type="curve" smooth="yes"/>
      <point x="443" y="-35"/>
      <point x="457" y="-56"/>
      <point x="457" y="-75" type="curve" smooth="yes"/>
      <point x="457" y="-109"/>
      <point x="430" y="-112"/>
      <point x="430" y="-123" type="curve" smooth="yes"/>
      <point x="430" y="-130"/>
      <point x="440" y="-133"/>
    </contour>
    <contour>
      <point x="505" y="89" type="curve" smooth="yes"/>
      <point x="512" y="89"/>
      <point x="527" y="81"/>
      <point x="527" y="76" type="curve" smooth="yes"/>
      <point x="527" y="74"/>
      <point x="525" y="71"/>
      <point x="523" y="67" type="curve" smooth="yes"/>
      <point x="504" y="37"/>
      <point x="472" y="0"/>
      <point x="426" y="0" type="curve" smooth="yes"/>
      <point x="380" y="0"/>
      <point x="360" y="34"/>
      <point x="360" y="73" type="curve" smooth="yes"/>
      <point x="360" y="90"/>
      <point x="363" y="107"/>
      <point x="370" y="124" type="curve" smooth="yes"/>
      <point x="391" y="177" type="line" smooth="yes"/>
      <point x="394.147" y="184.943"/>
      <point x="397" y="198"/>
      <point x="397" y="209" type="curve" smooth="yes"/>
      <point x="397" y="223"/>
      <point x="392" y="235"/>
      <point x="376" y="235" type="curve" smooth="yes"/>
      <point x="356" y="235"/>
      <point x="335" y="217"/>
      <point x="319" y="193" type="curve" smooth="yes"/>
      <point x="312" y="182"/>
      <point x="309" y="165"/>
      <point x="303" y="146" type="curve" smooth="yes"/>
      <point x="263" y="12" type="line" smooth="yes"/>
      <point x="260" y="3"/>
      <point x="259.092" y="0"/>
      <point x="253" y="0" type="curve" smooth="yes"/>
      <point x="241.365" y="0"/>
      <point x="239" y="7"/>
      <point x="224" y="7" type="curve" smooth="yes"/>
      <point x="208" y="7"/>
      <point x="205.395" y="0"/>
      <point x="193" y="0" type="curve" smooth="yes"/>
      <point x="190" y="0"/>
      <point x="189" y="2"/>
      <point x="189" y="5" type="curve" smooth="yes"/>
      <point x="189" y="7"/>
      <point x="190" y="11"/>
      <point x="191" y="15" type="curve" smooth="yes"/>
      <point x="243" y="177" type="line" smooth="yes"/>
      <point x="246" y="186"/>
      <point x="250" y="199"/>
      <point x="250" y="211" type="curve" smooth="yes"/>
      <point x="250" y="224"/>
      <point x="245" y="235"/>
      <point x="230" y="235" type="curve" smooth="yes"/>
      <point x="195" y="235"/>
      <point x="164" y="186"/>
      <point x="153" y="146" type="curve" smooth="yes"/>
      <point x="113" y="12" type="line" smooth="yes"/>
      <point x="110" y="3"/>
      <point x="109.092" y="0"/>
      <point x="103" y="0" type="curve" smooth="yes"/>
      <point x="91.3652" y="0"/>
      <point x="89" y="7"/>
      <point x="74" y="7" type="curve" smooth="yes"/>
      <point x="58" y="7"/>
      <point x="55.3945" y="0"/>
      <point x="43" y="0" type="curve" smooth="yes"/>
      <point x="40" y="0"/>
      <point x="39" y="2"/>
      <point x="39" y="5" type="curve" smooth="yes"/>
      <point x="39" y="7"/>
      <point x="40" y="11"/>
      <point x="41" y="15" type="curve" smooth="yes"/>
      <point x="93" y="177" type="line" smooth="yes"/>
      <point x="96" y="186"/>
      <point x="100" y="199"/>
      <point x="100" y="211" type="curve" smooth="yes"/>
      <point x="100" y="224"/>
      <point x="95" y="235"/>
      <point x="80" y="235" type="curve" smooth="yes"/>
      <point x="59" y="235"/>
      <point x="40" y="217"/>
      <point x="23" y="190" type="curve" smooth="yes"/>
      <point x="19" y="184"/>
      <point x="16" y="181"/>
      <point x="12" y="181" type="curve" smooth="yes"/>
      <point x="6" y="181"/>
      <point x="-8" y="188"/>
      <point x="-8" y="194" type="curve" smooth="yes"/>
      <point x="-8" y="197"/>
      <point x="-7" y="200"/>
      <point x="-5" y="204" type="curve" smooth="yes"/>
      <point x="14" y="234"/>
      <point x="46" y="270"/>
      <point x="92" y="270" type="curve" smooth="yes"/>
      <point x="115" y="270"/>
      <point x="132" y="262"/>
      <point x="143" y="249" type="curve" smooth="yes"/>
      <point x="151" y="240"/>
      <point x="155" y="234"/>
      <point x="162" y="234" type="curve" smooth="yes"/>
      <point x="165" y="234"/>
      <point x="169" y="236"/>
      <point x="175" y="241" type="curve" smooth="yes"/>
      <point x="194" y="258"/>
      <point x="216" y="270"/>
      <point x="242" y="270" type="curve" smooth="yes"/>
      <point x="263" y="270"/>
      <point x="279" y="263"/>
      <point x="290" y="252" type="curve" smooth="yes"/>
      <point x="298" y="243"/>
      <point x="303" y="236"/>
      <point x="310" y="236" type="curve" smooth="yes"/>
      <point x="313" y="236"/>
      <point x="317" y="238"/>
      <point x="323" y="243" type="curve" smooth="yes"/>
      <point x="341" y="259"/>
      <point x="363" y="270"/>
      <point x="388" y="270" type="curve" smooth="yes"/>
      <point x="437" y="270"/>
      <point x="460" y="234"/>
      <point x="460" y="192" type="curve" smooth="yes"/>
      <point x="460" y="177"/>
      <point x="456.951" y="161.019"/>
      <point x="451" y="146" type="curve" smooth="yes"/>
      <point x="430" y="93" type="line" smooth="yes"/>
      <point x="426" y="83"/>
      <point x="420" y="67"/>
      <point x="420" y="54" type="curve" smooth="yes"/>
      <point x="420" y="43"/>
      <point x="425" y="35"/>
      <point x="438" y="35" type="curve" smooth="yes"/>
      <point x="460" y="35"/>
      <point x="481" y="54"/>
      <point x="497" y="83" type="curve" smooth="yes"/>
      <point x="499" y="87"/>
      <point x="501" y="89"/>
    </contour>
  </outline>
</glyph>
<glyph name="G" format="2">
  <advance width="533"/>
  <unicode hex="0047"/>
  <outline>
    <contour>
      <point x="0" y="-375" type="line"/>
      <point x="0" y="375" type="line"/>
      <point x="96" y="375" type="line"/>
      <point x="96" y="-375" type="line"/>
    </contour>
    <contour>
      <point x="146" y="375" type="line"/>
      <point x="175" y="375" type="line"/>
      <point x="175" y="39" type="line" smooth="yes"/>
      <point x="175" y="31"/>
      <point x="184" y="25"/>
      <point x="192" y="31" type="curve" smooth="yes"/>
      <point x="222" y="58"/>
      <point x="245" y="94"/>
      <point x="257" y="126" type="curve"/>
      <point x="279" y="126" type="line"/>
      <point x="302" y="98"/>
      <point x="327" y="78"/>
      <point x="367" y="78" type="curve" smooth="yes"/>
      <point x="420" y="78"/>
      <point x="445" y="124"/>
      <point x="445" y="223" type="curve" smooth="yes"/>
      <point x="445" y="324"/>
      <point x="424" y="358"/>
      <point x="365" y="358" type="curve" smooth="yes"/>
      <point x="327" y="358"/>
      <point x="307" y="346"/>
      <point x="307" y="328" type="curve" smooth="yes"/>
      <point x="307" y="305"/>
      <point x="352" y="302"/>
      <point x="352" y="251" type="curve" smooth="yes"/>
      <point x="352" y="220"/>
      <point x="324" y="191"/>
      <point x="290" y="191" type="curve" smooth="yes"/>
      <point x="256" y="191"/>
      <point x="223" y="219"/>
      <point x="223" y="268" type="curve" smooth="yes"/>
      <point x="223" y="326"/>
      <point x="283" y="381"/>
      <point x="370" y="381" type="curve" smooth="yes"/>
      <point x="459" y="381"/>
      <point x="533" y="312"/>
      <point x="533" y="218" type="curve" smooth="yes"/>
      <point x="533" y="118"/>
      <point x="456" y="53"/>
      <point x="378" y="53" type="curve" smooth="yes"/>
      <point x="355" y="53"/>
      <point x="333" y="57"/>
      <point x="314" y="67" type="curve" smooth="yes"/>
      <point x="309" y="70"/>
      <point x="297" y="68"/>
      <point x="293" y="62" type="curve" smooth="yes"/>
      <point x="283" y="46"/>
      <point x="269" y="28"/>
      <point x="258" y="15" type="curve" smooth="yes"/>
      <point x="254" y="10"/>
      <point x="248" y="-4"/>
      <point x="258" y="-15" type="curve" smooth="yes"/>
      <point x="269" y="-28"/>
      <point x="282" y="-44"/>
      <point x="291" y="-59" type="curve" smooth="yes"/>
      <point x="296" y="-66"/>
      <point x="309" y="-69"/>
      <point x="319" y="-65" type="curve" smooth="yes"/>
      <point x="337" y="-57"/>
      <point x="357" y="-53"/>
      <point x="378" y="-53" type="curve" smooth="yes"/>
      <point x="456" y="-53"/>
      <point x="533" y="-118"/>
      <point x="533" y="-218" type="curve" smooth="yes"/>
      <point x="533" y="-312"/>
      <point x="459" y="-381"/>
      <point x="370" y="-381" type="curve" smooth="yes"/>
      <point x="283" y="-381"/>
      <point x="223" y="-326"/>
      <point x="223" y="-268" type="curve" smooth="yes"/>
      <point x="223" y="-219"/>
      <point x="256" y="-191"/>
      <point x="290" y="-191" type="curve" smooth="yes"/>
      <point x="324" y="-191"/>
      <point x="352" y="-220"/>
      <point x="352" y="-251" type="curve" smooth="yes"/>
      <point x="352" y="-302"/>
      <point x="307" y="-305"/>
      <point x="307" y="-328" type="curve" smooth="yes"/>
      <point x="307" y="-346"/>
      <point x="327" y="-358"/>
      <point x="365" y="-358" type="curve" smooth="yes"/>
      <point x="424" y="-358"/>
      <point x="445" y="-324"/>
      <point x="445" y="-223" type="curve" smooth="yes"/>
      <point x="445" y="-124"/>
      <point x="420" y="-78"/>
      <point x="367" y="-78" type="curve" smooth="yes"/>
      <point x="327" y="-78"/>
      <point x="302" y="-98"/>
      <point x="279" y="-126" type="curve"/>
      <point x="257" y="-126" type="line"/>
      <point x="245" y="-94"/>
      <point x="221" y="-57"/>
      <point x="191" y="-30" type="curve" smooth="yes"/>
      <point x="184" y="-25"/>
      <point x="175" y="-31"/>
      <point x="175" y="-38" type="curve" smooth="yes"/>
      <point x="175" y="-375" type="line"/>
      <point x="146" y="-375" type="line"/>
    </contour>
  </outline>
</glyph>
<glyph name="H" format="2">
  <advance width="575"/>
  <unicode hex="0048"/>
  <outline>
    <contour>
      <point x="100" y="89" type="curve" smooth="yes"/>
      <point x="148" y="89"/>
      <point x="187" y="51"/>
      <point x="187" y="3" type="curve" smooth="yes"/>
      <point x="187" y="-45"/>
      <point x="148" y="-84"/>
      <point x="100" y="-84" type="curve" smooth="yes"/>
      <point x="52" y="-84"/>
      <point x="3" y="-43"/>
      <point x="3" y="26" type="curve" smooth="yes"/>
      <point x="3" y="122"/>
      <point x="91" y="207"/>
      <point x="210" y="207" type="curve" smooth="yes"/>
      <point x="343" y="207"/>
      <point x="441" y="121"/>
      <point x="441" y="-14" type="curve" smooth="yes"/>
      <point x="441" y="-226"/>
      <point x="198" y="-395"/>
      <point x="-2" y="-435" type="curve"/>
      <point x="-8" y="-408" type="line"/>
      <point x="225" y="-341"/>
      <point x="338" y="-196"/>
      <point x="338" y="-15" type="curve" smooth="yes"/>
      <point x="338" y="92"/>
      <point x="303" y="178"/>
      <point x="198" y="178" type="curve" smooth="yes"/>
      <point x="128" y="178"/>
      <point x="71" y="140"/>
      <point x="55" y="100" type="curve" smooth="yes"/>
      <point x="53" y="95"/>
      <point x="56" y="79"/>
      <point x="73" y="85" type="curve" smooth="yes"/>
      <point x="81" y="88"/>
      <point x="92" y="89"/>
    </contour>
    <contour>
      <point x="489" y="-122" type="curve" smooth="yes"/>
      <point x="489" y="-98"/>
      <point x="508" y="-79"/>
      <point x="532" y="-79" type="curve" smooth="yes"/>
      <point x="556" y="-79"/>
      <point x="575" y="-98"/>
      <point x="575" y="-122" type="curve" smooth="yes"/>
      <point x="575" y="-145"/>
      <point x="556" y="-165"/>
      <point x="532" y="-165" type="curve" smooth="yes"/>
      <point x="508" y="-165"/>
      <point x="489" y="-145"/>
    </contour>
    <contour>
      <point x="489" y="125" type="curve" smooth="yes"/>
      <point x="489" y="148"/>
      <point x="508" y="168"/>
      <point x="532" y="168" type="curve" smooth="yes"/>
      <point x="556" y="168"/>
      <point x="575" y="148"/>
      <point x="575" y="125" type="curve" smooth="yes"/>
      <point x="575" y="101"/>
      <point x="556" y="82"/>
      <point x="532" y="82" type="curve" smooth="yes"/>
      <point x="508" y="82"/>
      <point x="489" y="101"/>
    </contour>
  </outline>
</glyph>
<glyph name="I" format="2">
  <advance width="560"/>
  <unicode hex="0049"/>
  <outline>
    <contour>
      <point x="488" y="109" type="curve" smooth="yes"/>
      <point x="488" y="128"/>
      <point x="504" y="144"/>
      <point x="524" y="144" type="curve" smooth="yes"/>
      <point x="544" y="144"/>
      <point x="560" y="128"/>
      <point x="560" y="109" type="curve" smooth="yes"/>
      <point x="560" y="89"/>
      <point x="544" y="73"/>
      <point x="524" y="73" type="curve" smooth="yes"/>
      <point x="504" y="73"/>
      <point x="488" y="89"/>
    </contour>
    <contour>
      <point x="488" y="-109" type="curve" smooth="yes"/>
      <point x="488" y="-89"/>
      <point x="504" y="-73"/>
      <point x="524" y="-73" type="curve" smooth="yes"/>
      <point x="544" y="-73"/>
      <point x="560" y="-89"/>
      <point x="560" y="-109" type="curve" smooth="yes"/>
      <point x="560" y="-128"/>
      <point x="544" y="-144"/>
      <point x="524" y="-144" type="curve" smooth="yes"/>
      <point x="504" y="-144"/>
      <point x="488" y="-128"/>
    </contour>
    <contour>
      <point x="225" y="412" type="curve" smooth="yes"/>
      <point x="261" y="412"/>
      <point x="297" y="398"/>
      <point x="297" y="356" type="curve" smooth="yes"/>
      <point x="297" y="331"/>
      <point x="281" y="327"/>
      <point x="281" y="313" type="curve" smooth="yes"/>
      <point x="281" y="297"/>
      <point x="302" y="294"/>
      <point x="302" y="265" type="curve" smooth="yes"/>
      <point x="302" y="255"/>
      <point x="299" y="246"/>
      <point x="293" y="238" type="curve" smooth="yes"/>
      <point x="282" y="222"/>
      <point x="272" y="212"/>
      <point x="296" y="205" type="curve" smooth="yes"/>
      <point x="394" y="177"/>
      <point x="448" y="89"/>
      <point x="448" y="-5" type="curve" smooth="yes"/>
      <point x="448" y="-212"/>
      <point x="190" y="-403"/>
      <point x="25" y="-444" type="curve" smooth="yes"/>
      <point x="21" y="-445"/>
      <point x="18" y="-445"/>
      <point x="15" y="-445" type="curve" smooth="yes"/>
      <point x="6" y="-445"/>
      <point x="0" y="-441"/>
      <point x="0" y="-435" type="curve" smooth="yes"/>
      <point x="0" y="-429"/>
      <point x="6" y="-421"/>
      <point x="19" y="-416" type="curve" smooth="yes"/>
      <point x="213" y="-332"/>
      <point x="357" y="-207"/>
      <point x="357" y="5" type="curve" smooth="yes"/>
      <point x="357" y="108"/>
      <point x="317" y="182"/>
      <point x="214" y="182" type="curve" smooth="yes"/>
      <point x="142" y="182"/>
      <point x="84" y="145"/>
      <point x="84" y="100" type="curve" smooth="yes"/>
      <point x="84" y="78"/>
      <point x="106" y="78"/>
      <point x="119" y="75" type="curve" smooth="yes"/>
      <point x="158" y="66"/>
      <point x="178" y="44"/>
      <point x="178" y="7" type="curve" smooth="yes"/>
      <point x="178" y="-32"/>
      <point x="151" y="-63"/>
      <point x="106" y="-63" type="curve" smooth="yes"/>
      <point x="55" y="-63"/>
      <point x="23" y="-11"/>
      <point x="23" y="43" type="curve" smooth="yes"/>
      <point x="23" y="117"/>
      <point x="75" y="176"/>
      <point x="146" y="202" type="curve" smooth="yes"/>
      <point x="170" y="210"/>
      <point x="168" y="221"/>
      <point x="158" y="238" type="curve" smooth="yes"/>
      <point x="153" y="246"/>
      <point x="151" y="255"/>
      <point x="151" y="265" type="curve" smooth="yes"/>
      <point x="151" y="292"/>
      <point x="172" y="302"/>
      <point x="172" y="314" type="curve" smooth="yes"/>
      <point x="172" y="326"/>
      <point x="154" y="330"/>
      <point x="154" y="358" type="curve" smooth="yes"/>
      <point x="154" y="392"/>
      <point x="189" y="412"/>
    </contour>
    <contour>
      <point x="225" y="391" type="curve" smooth="yes"/>
      <point x="208" y="391"/>
      <point x="184" y="386"/>
      <point x="184" y="364" type="curve" smooth="yes"/>
      <point x="184" y="338"/>
      <point x="224" y="327"/>
      <point x="243" y="327" type="curve" smooth="yes"/>
      <point x="263" y="327"/>
      <point x="274" y="346"/>
      <point x="274" y="358" type="curve" smooth="yes"/>
      <point x="274" y="379"/>
      <point x="253" y="391"/>
    </contour>
    <contour>
      <point x="210" y="298" type="curve" smooth="yes"/>
      <point x="190" y="298"/>
      <point x="175" y="280"/>
      <point x="175" y="264" type="curve" smooth="yes"/>
      <point x="175" y="242"/>
      <point x="199" y="230"/>
      <point x="224" y="230" type="curve" smooth="yes"/>
      <point x="251" y="230"/>
      <point x="270" y="240"/>
      <point x="270" y="260" type="curve" smooth="yes"/>
      <point x="270" y="281"/>
      <point x="240" y="298"/>
    </contour>
  </outline>
</glyph>
<glyph name="J" format="2">
  <advance width="292"/>
  <unicode hex="004A"/>
  <outline>
    <contour>
      <point x="41" y="-13" type="curve" smooth="yes"/>
      <point x="72" y="-13"/>
      <point x="101" y="-6"/>
      <point x="131" y="13" type="curve" smooth="yes"/>
      <point x="204" y="61"/>
      <point x="258" y="145"/>
      <point x="258" y="261" type="curve" smooth="yes"/>
      <point x="258" y="350"/>
      <point x="236" y="411"/>
      <point x="221" y="450" type="curve"/>
      <point x="221" y="452"/>
      <point x="220" y="454"/>
      <point x="220" y="455" type="curve"/>
      <point x="220" y="464"/>
      <point x="228" y="470"/>
      <point x="236" y="470" type="curve" smooth="yes"/>
      <point x="240" y="470"/>
      <point x="245" y="468"/>
      <point x="249" y="464" type="curve"/>
      <point x="263" y="428"/>
      <point x="292" y="368"/>
      <point x="292" y="262" type="curve" smooth="yes"/>
      <point x="292" y="47"/>
      <point x="145" y="-55"/>
      <point x="73" y="-146" type="curve" smooth="yes"/>
      <point x="40" y="-187"/>
      <point x="26" y="-236"/>
      <point x="26" y="-268" type="curve"/>
      <point x="26" y="-268"/>
      <point x="0" y="-268"/>
      <point x="0" y="-268" type="curve"/>
      <point x="0" y="-268"/>
      <point x="0" y="0"/>
      <point x="0" y="0" type="curve"/>
      <point x="0" y="0"/>
      <point x="25" y="0"/>
      <point x="25" y="0" type="curve"/>
      <point x="25" y="-6"/>
      <point x="32" y="-13"/>
    </contour>
  </outline>
</glyph>
<glyph name="K" format="2">
  <advance width="275"/>
  <unicode hex="004B"/>
  <outline>
    <contour>
      <point x="0" y="208" type="line"/>
      <point x="26" y="208" type="line"/>
      <point x="26" y="160"/>
      <point x="63" y="121"/>
      <point x="126" y="71" type="curve" smooth="yes"/>
      <point x="205" y="8"/>
      <point x="275" y="-78"/>
      <point x="275" y="-196" type="curve" smooth="yes"/>
      <point x="275" y="-251"/>
      <point x="258" y="-292"/>
      <point x="245" y="-315" type="curve"/>
      <point x="221" y="-290" type="line"/>
      <point x="231" y="-266"/>
      <point x="242" y="-234"/>
      <point x="242" y="-195" type="curve" smooth="yes"/>
      <point x="242" y="-122"/>
      <point x="207" y="-48"/>
      <point x="121" y="-7" type="curve" smooth="yes"/>
      <point x="98" y="4"/>
      <point x="67" y="12"/>
      <point x="42" y="12" type="curve" smooth="yes"/>
      <point x="33" y="12"/>
      <point x="26" y="6"/>
      <point x="26" y="0" type="curve"/>
      <point x="26" y="0"/>
      <point x="11" y="0"/>
      <point x="0" y="0" type="curve"/>
    </contour>
  </outline>
</glyph>
<glyph name="M" format="2">
  <advance width="586"/>
  <unicode hex="004D"/>
  <outline>
    <contour>
      <point x="21" y="-52" type="curve" smooth="yes"/>
      <point x="15" y="-52"/>
      <point x="4" y="-35"/>
      <point x="4" y="-28" type="curve" smooth="yes"/>
      <point x="4" y="-23"/>
      <point x="7" y="-18"/>
      <point x="14" y="-11" type="curve"/>
      <point x="119" y="107" type="line" smooth="yes"/>
      <point x="133" y="123"/>
      <point x="141" y="131"/>
      <point x="147" y="131" type="curve" smooth="yes"/>
      <point x="155" y="131"/>
      <point x="161" y="120"/>
      <point x="175" y="98" type="curve" smooth="yes"/>
      <point x="224" y="20" type="line" smooth="yes"/>
      <point x="235" y="3"/>
      <point x="243" y="-5"/>
      <point x="251" y="-5" type="curve" smooth="yes"/>
      <point x="270" y="-5"/>
      <point x="277" y="24"/>
      <point x="277" y="55" type="curve" smooth="yes"/>
      <point x="277" y="100"/>
      <point x="276" y="128"/>
      <point x="276" y="183" type="curve" smooth="yes"/>
      <point x="276" y="198.696"/>
      <point x="278.73" y="200.06"/>
      <point x="289.826" y="200.06" type="curve" smooth="yes"/>
      <point x="292.163" y="200.06"/>
      <point x="294.87" y="200"/>
      <point x="298" y="200" type="curve" smooth="yes"/>
      <point x="309" y="200"/>
      <point x="311" y="199"/>
      <point x="311" y="181" type="curve" smooth="yes"/>
      <point x="311" y="89" type="line" smooth="yes"/>
      <point x="311" y="74"/>
      <point x="313" y="64"/>
      <point x="318" y="64" type="curve" smooth="yes"/>
      <point x="323" y="64"/>
      <point x="330" y="69"/>
      <point x="338" y="78" type="curve" smooth="yes"/>
      <point x="363" y="106" type="line"/>
      <point x="377" y="123"/>
      <point x="385" y="132"/>
      <point x="391" y="132" type="curve" smooth="yes"/>
      <point x="398" y="132"/>
      <point x="404" y="123"/>
      <point x="417" y="103" type="curve" smooth="yes"/>
      <point x="471" y="17" type="line"/>
      <point x="482" y="1"/>
      <point x="488" y="-8"/>
      <point x="496" y="-8" type="curve" smooth="yes"/>
      <point x="504" y="-8"/>
      <point x="514" y="2"/>
      <point x="533" y="22" type="curve" smooth="yes"/>
      <point x="553" y="44" type="line"/>
      <point x="558" y="50"/>
      <point x="562" y="53"/>
      <point x="565" y="53" type="curve" smooth="yes"/>
      <point x="571" y="53"/>
      <point x="581" y="36"/>
      <point x="581" y="28" type="curve" smooth="yes"/>
      <point x="581" y="23"/>
      <point x="578" y="17"/>
      <point x="571" y="9" type="curve" smooth="yes"/>
      <point x="475" y="-98" type="line" smooth="yes"/>
      <point x="457" y="-118"/>
      <point x="448" y="-130"/>
      <point x="440" y="-130" type="curve" smooth="yes"/>
      <point x="432" y="-130"/>
      <point x="425" y="-119"/>
      <point x="410" y="-96" type="curve" smooth="yes"/>
      <point x="362" y="-21" type="line" smooth="yes"/>
      <point x="350" y="-2"/>
      <point x="343" y="8"/>
      <point x="335" y="8" type="curve" smooth="yes"/>
      <point x="317" y="8"/>
      <point x="310" y="-18"/>
      <point x="310" y="-47" type="curve" smooth="yes"/>
      <point x="310" y="-97"/>
      <point x="311" y="-140"/>
      <point x="311" y="-182" type="curve" smooth="yes"/>
      <point x="311" y="-197"/>
      <point x="308" y="-200"/>
      <point x="295" y="-200" type="curve" smooth="yes"/>
      <point x="279" y="-200"/>
      <point x="276" y="-200"/>
      <point x="276" y="-183" type="curve" smooth="yes"/>
      <point x="276" y="-94" type="line"/>
      <point x="276.102" y="-92.2646"/>
      <point x="276.152" y="-90.5917"/>
      <point x="276.152" y="-88.9866" type="curve"/>
      <point x="276.152" y="-74.8688"/>
      <point x="272.285" y="-66"/>
      <point x="266" y="-66" type="curve" smooth="yes"/>
      <point x="261" y="-66"/>
      <point x="255" y="-70"/>
      <point x="248" y="-78" type="curve" smooth="yes"/>
      <point x="225" y="-104" type="line" smooth="yes"/>
      <point x="209" y="-122"/>
      <point x="202" y="-131"/>
      <point x="195" y="-131" type="curve" smooth="yes"/>
      <point x="187" y="-131"/>
      <point x="181" y="-121"/>
      <point x="168" y="-100" type="curve" smooth="yes"/>
      <point x="115" y="-18" type="line" smooth="yes"/>
      <point x="104" y="-1"/>
      <point x="98" y="8"/>
      <point x="90" y="8" type="curve" smooth="yes"/>
      <point x="82" y="8"/>
      <point x="73" y="0"/>
      <point x="58" y="-17" type="curve" smooth="yes"/>
      <point x="36" y="-42" type="line"/>
      <point x="29" y="-49"/>
      <point x="25" y="-52"/>
    </contour>
  </outline>
</glyph>
<glyph name="N" format="2">
  <advance width="582"/>
  <unicode hex="004E"/>
  <outline>
    <contour>
      <point x="582.01" y="-7.76978" type="curve" smooth="yes"/>
      <point x="582.01" y="-193.911"/>
      <point x="508.632" y="-335.442"/>
      <point x="454" y="-401" type="curve"/>
      <point x="436" y="-383" type="line"/>
      <point x="490.507" y="-295.789"/>
      <point x="545.013" y="-191.882"/>
      <point x="545.013" y="-8.98508" type="curve"/>
      <point x="545.013" y="-7.32988"/>
      <point x="545.009" y="-5.66818"/>
      <point x="545" y="-4" type="curve"/>
      <point x="545" y="180"/>
      <point x="491" y="285"/>
      <point x="436" y="373" type="curve"/>
      <point x="454" y="391" type="line"/>
      <point x="509.817" y="324.02"/>
      <point x="582.01" y="180.082"/>
    </contour>
    <contour>
      <point x="-0.01" y="8.76965" type="curve" smooth="yes"/>
      <point x="-0.01" y="194.898"/>
      <point x="73.3682" y="335.442"/>
      <point x="128" y="401" type="curve"/>
      <point x="146" y="383" type="line"/>
      <point x="91.4933" y="295.789"/>
      <point x="36.9866" y="192.864"/>
      <point x="36.9866" y="9.98483" type="curve"/>
      <point x="36.9866" y="8.32973"/>
      <point x="36.991" y="6.66813"/>
      <point x="37" y="5" type="curve"/>
      <point x="37" y="-179"/>
      <point x="91" y="-285"/>
      <point x="146" y="-373" type="curve"/>
      <point x="128" y="-391" type="line"/>
      <point x="72.1833" y="-324.02"/>
      <point x="-0.0100021" y="-179.079"/>
    </contour>
    <contour>
      <point x="196" y="380" type="line"/>
      <point x="238" y="380" type="line"/>
      <point x="238" y="172" type="line" smooth="yes"/>
      <point x="238" y="163"/>
      <point x="249" y="157"/>
      <point x="257" y="159" type="curve"/>
      <point x="386" y="199" type="line"/>
      <point x="386" y="-380" type="line"/>
      <point x="344" y="-380" type="line"/>
      <point x="344" y="-172" type="line" smooth="yes"/>
      <point x="344" y="-165"/>
      <point x="334" y="-157"/>
      <point x="326" y="-159" type="curve"/>
      <point x="196" y="-199" type="line"/>
    </contour>
    <contour>
      <point x="350" y="83" type="line" smooth="yes"/>
      <point x="350" y="90"/>
      <point x="339" y="97"/>
      <point x="331" y="94" type="curve"/>
      <point x="246" y="68" type="line" smooth="yes"/>
      <point x="240" y="66"/>
      <point x="232" y="59"/>
      <point x="232" y="52" type="curve" smooth="yes"/>
      <point x="232" y="-80" type="line" smooth="yes"/>
      <point x="232" y="-87"/>
      <point x="242" y="-96"/>
      <point x="253" y="-93" type="curve"/>
      <point x="336" y="-68" type="line"/>
      <point x="345" y="-65"/>
      <point x="350" y="-59"/>
      <point x="350" y="-49" type="curve" smooth="yes"/>
    </contour>
  </outline>
</glyph>
<glyph name="O" format="2">
  <advance width="280"/>
  <unicode hex="004F"/>
  <outline>
    <contour>
      <point x="171" y="97" type="curve" smooth="yes"/>
      <point x="198" y="68"/>
      <point x="230" y="44"/>
      <point x="261" y="20" type="curve" smooth="yes"/>
      <point x="275" y="9"/>
      <point x="280" y="2"/>
      <point x="280" y="-4" type="curve" smooth="yes"/>
      <point x="280" y="-10"/>
      <point x="275" y="-15"/>
      <point x="266" y="-22" type="curve" smooth="yes"/>
      <point x="162" y="-106" type="line" smooth="yes"/>
      <point x="151" y="-115"/>
      <point x="145" y="-120"/>
      <point x="138" y="-120" type="curve" smooth="yes"/>
      <point x="132" y="-120"/>
      <point x="124" y="-115"/>
      <point x="112" y="-102" type="curve" smooth="yes"/>
      <point x="85" y="-73"/>
      <point x="53" y="-48"/>
      <point x="21" y="-23" type="curve" smooth="yes"/>
      <point x="7" y="-12"/>
      <point x="0" y="-4"/>
      <point x="0" y="2" type="curve" smooth="yes"/>
      <point x="0" y="9"/>
      <point x="6" y="15"/>
      <point x="16" y="23" type="curve" smooth="yes"/>
      <point x="116" y="103" type="line" smooth="yes"/>
      <point x="127" y="112"/>
      <point x="135" y="117"/>
      <point x="142" y="117" type="curve" smooth="yes"/>
      <point x="150" y="117"/>
      <point x="158" y="111"/>
    </contour>
    <contour>
      <point x="78" y="-4" type="curve" smooth="yes"/>
      <point x="134" y="-52" type="line" smooth="yes"/>
      <point x="144" y="-61"/>
      <point x="151" y="-65"/>
      <point x="157" y="-65" type="curve" smooth="yes"/>
      <point x="163" y="-65"/>
      <point x="168" y="-62"/>
      <point x="174" y="-57" type="curve" smooth="yes"/>
      <point x="197" y="-38" type="line"/>
      <point x="207" y="-29"/>
      <point x="212" y="-23"/>
      <point x="212" y="-16" type="curve" smooth="yes"/>
      <point x="212" y="-10"/>
      <point x="208" y="-3"/>
      <point x="197" y="6" type="curve" smooth="yes"/>
      <point x="146" y="50" type="line" smooth="yes"/>
      <point x="137" y="58"/>
      <point x="130" y="62"/>
      <point x="124" y="62" type="curve" smooth="yes"/>
      <point x="118" y="62"/>
      <point x="112" y="58"/>
      <point x="104" y="53" type="curve"/>
      <point x="81" y="34" type="line"/>
      <point x="72" y="26"/>
      <point x="66" y="20"/>
      <point x="66" y="14" type="curve" smooth="yes"/>
      <point x="66" y="9"/>
      <point x="70" y="3"/>
    </contour>
  </outline>
</glyph>
<glyph name="P" format="2">
  <advance width="870"/>
  <unicode hex="0050"/>
  <outline>
    <contour>
      <point x="365" y="-166" type="curve" smooth="yes"/>
      <point x="365" y="-114"/>
      <point x="449" y="-192"/>
      <point x="482" y="-98" type="curve" smooth="yes"/>
      <point x="567" y="143" type="line" smooth="yes"/>
      <point x="572" y="158"/>
      <point x="584" y="189"/>
      <point x="584" y="205" type="curve" smooth="yes"/>
      <point x="584" y="212"/>
      <point x="582" y="218"/>
      <point x="574" y="218" type="curve" smooth="yes"/>
      <point x="534" y="218"/>
      <point x="496" y="134"/>
      <point x="476" y="134" type="curve" smooth="yes"/>
      <point x="470" y="134"/>
      <point x="468" y="140"/>
      <point x="468" y="145" type="curve" smooth="yes"/>
      <point x="468" y="195"/>
      <point x="570" y="276" name="hr01"/>
      <point x="628" y="276" type="curve" smooth="yes"/>
      <point x="662" y="276"/>
      <point x="667" y="243"/>
      <point x="689" y="243" type="curve" smooth="yes"/>
      <point x="707" y="243"/>
      <point x="739" y="276"/>
      <point x="789" y="276" type="curve" smooth="yes"/>
      <point x="851" y="276"/>
      <point x="866" y="221"/>
      <point x="866" y="169" type="curve" smooth="yes"/>
      <point x="866" y="81"/>
      <point x="795" y="-25"/>
      <point x="700" y="-25" type="curve" smooth="yes"/>
      <point x="652" y="-25"/>
      <point x="644" y="1"/>
      <point x="626" y="1" type="curve" smooth="yes"/>
      <point x="599" y="1"/>
      <point x="579" y="-95"/>
      <point x="573" y="-113" type="curve" smooth="yes"/>
      <point x="571" y="-119"/>
      <point x="569" y="-125"/>
      <point x="569" y="-131" type="curve" smooth="yes"/>
      <point x="569" y="-164"/>
      <point x="665" y="-129"/>
      <point x="665" y="-157" type="curve" smooth="yes"/>
      <point x="665" y="-173"/>
      <point x="657" y="-177" name="hr02"/>
      <point x="643" y="-177" type="curve" smooth="yes"/>
      <point x="381" y="-177" type="line" smooth="yes"/>
      <point x="373" y="-177"/>
      <point x="365" y="-176"/>
    </contour>
    <contour>
      <point x="763" y="242" type="curve" smooth="yes"/>
      <point x="698" y="242" name="hr03"/>
      <point x="656" y="109"/>
      <point x="656" y="57" type="curve" smooth="yes"/>
      <point x="656" y="37"/>
      <point x="661" y="7"/>
      <point x="687" y="7" type="curve" smooth="yes"/>
      <point x="733" y="7"/>
      <point x="782" y="181"/>
      <point x="782" y="219" type="curve" smooth="yes"/>
      <point x="782" y="232"/>
      <point x="777" y="242"/>
    </contour>
    <contour>
      <point x="84" y="214" type="curve" smooth="yes"/>
      <point x="84" y="220"/>
      <point x="81" y="225"/>
      <point x="74" y="225" type="curve" smooth="yes"/>
      <point x="43" y="225"/>
      <point x="22" y="169"/>
      <point x="7" y="169" type="curve" smooth="yes"/>
      <point x="1" y="169"/>
      <point x="-14" y="179"/>
      <point x="-14" y="186" type="curve" smooth="yes"/>
      <point x="-14" y="217"/>
      <point x="57" y="267"/>
      <point x="89" y="267" type="curve" smooth="yes"/>
      <point x="139" y="267"/>
      <point x="129" y="246"/>
      <point x="152" y="234" type="curve"/>
      <point x="178" y="242"/>
      <point x="189" y="267"/>
      <point x="223" y="267" type="curve" smooth="yes"/>
      <point x="269" y="267"/>
      <point x="280" y="235"/>
      <point x="290" y="235" type="curve" smooth="yes"/>
      <point x="301" y="235"/>
      <point x="329" y="267"/>
      <point x="363" y="267" type="curve" smooth="yes"/>
      <point x="401" y="267"/>
      <point x="430" y="246"/>
      <point x="430" y="206" type="curve" smooth="yes"/>
      <point x="430" y="150"/>
      <point x="360" y="77"/>
      <point x="360" y="43" type="curve" smooth="yes"/>
      <point x="360" y="37"/>
      <point x="363" y="31"/>
      <point x="370" y="31" type="curve" smooth="yes"/>
      <point x="401" y="31"/>
      <point x="424" y="87"/>
      <point x="436" y="87" type="curve" smooth="yes"/>
      <point x="443" y="87"/>
      <point x="458" y="76"/>
      <point x="458" y="69" type="curve" smooth="yes"/>
      <point x="458" y="38" name="hr04"/>
      <point x="387" y="-11"/>
      <point x="355" y="-11" type="curve" smooth="yes"/>
      <point x="319" y="-11"/>
      <point x="293" y="6"/>
      <point x="293" y="44" type="curve" smooth="yes"/>
      <point x="293" y="102"/>
      <point x="363" y="168"/>
      <point x="363" y="210" type="curve" smooth="yes"/>
      <point x="363" y="220" name="hr05"/>
      <point x="356" y="225"/>
      <point x="346" y="225" type="curve" smooth="yes"/>
      <point x="315" y="225"/>
      <point x="282" y="171"/>
      <point x="271" y="146" type="curve" smooth="yes"/>
      <point x="211" y="11" type="line" smooth="yes"/>
      <point x="202" y="-8"/>
      <point x="169" y="0"/>
      <point x="152" y="0" type="curve" smooth="yes"/>
      <point x="146" y="0"/>
      <point x="138" y="0"/>
      <point x="138" y="8" type="curve" smooth="yes"/>
      <point x="138" y="39"/>
      <point x="221" y="163"/>
      <point x="221" y="210" type="curve" smooth="yes"/>
      <point x="221" y="220" name="hr06"/>
      <point x="215" y="225"/>
      <point x="205" y="225" type="curve" smooth="yes"/>
      <point x="173" y="225"/>
      <point x="140" y="169"/>
      <point x="129" y="143" type="curve" smooth="yes"/>
      <point x="70" y="9" type="line" smooth="yes"/>
      <point x="63" y="-7"/>
      <point x="23" y="0"/>
      <point x="9" y="0" type="curve" smooth="yes"/>
      <point x="3" y="0"/>
      <point x="-2" y="1"/>
      <point x="-2" y="8" type="curve" smooth="yes"/>
      <point x="-2" y="44"/>
      <point x="84" y="168"/>
    </contour>
  </outline>
</glyph>
<glyph name="Q" format="2">
  <advance width="326"/>
  <unicode hex="0051"/>
  <outline>
    <contour>
      <point x="232" y="-101" type="curve" smooth="yes"/>
      <point x="197" y="-125"/>
      <point x="149" y="-141"/>
      <point x="106" y="-141" type="curve" smooth="yes"/>
      <point x="81" y="-141"/>
      <point x="58" y="-136"/>
      <point x="40" y="-124" type="curve"/>
      <point x="36" y="-122"/>
      <point x="27" y="-126"/>
      <point x="27" y="-129" type="curve" smooth="yes"/>
      <point x="27" y="-850" type="line"/>
      <point x="1" y="-850" type="line"/>
      <point x="1" y="-583"/>
      <point x="0" y="-316"/>
      <point x="1" y="-49" type="curve" smooth="yes"/>
      <point x="1" y="7"/>
      <point x="47" y="68"/>
      <point x="96" y="101" type="curve" smooth="yes"/>
      <point x="131" y="125"/>
      <point x="179" y="141"/>
      <point x="222" y="141" type="curve" smooth="yes"/>
      <point x="259" y="141"/>
      <point x="293" y="130"/>
      <point x="312" y="100" type="curve"/>
      <point x="323" y="85"/>
      <point x="327" y="68"/>
      <point x="327" y="50" type="curve" smooth="yes"/>
      <point x="327" y="-6"/>
      <point x="281" y="-68"/>
    </contour>
  </outline>
</glyph>
<glyph name="R" format="2">
  <advance width="275"/>
  <unicode hex="0052"/>
  <outline>
    <contour>
      <point x="242" y="571" type="curve" smooth="yes"/>
      <point x="242" y="658"/>
      <point x="214" y="730"/>
      <point x="198" y="767" type="curve"/>
      <point x="227" y="778" type="line"/>
      <point x="244" y="748"/>
      <point x="275" y="659"/>
      <point x="275" y="572" type="curve" smooth="yes"/>
      <point x="275" y="515"/>
      <point x="267" y="466"/>
      <point x="251" y="423" type="curve"/>
      <point x="263" y="399"/>
      <point x="275" y="362"/>
      <point x="275" y="316" type="curve" smooth="yes"/>
      <point x="275" y="198"/>
      <point x="205" y="112"/>
      <point x="126" y="49" type="curve" smooth="yes"/>
      <point x="63" y="-1"/>
      <point x="26" y="-40"/>
      <point x="26" y="-88" type="curve"/>
      <point x="0" y="-88" type="line"/>
      <point x="0" y="335" type="line"/>
      <point x="25" y="335" type="line"/>
      <point x="25" y="329"/>
      <point x="32" y="322"/>
      <point x="41" y="322" type="curve" smooth="yes"/>
      <point x="171" y="322"/>
      <point x="242" y="448"/>
    </contour>
    <contour>
      <point x="26" y="120" type="curve" smooth="yes"/>
      <point x="26" y="114"/>
      <point x="33" y="108"/>
      <point x="42" y="108" type="curve" smooth="yes"/>
      <point x="67" y="108"/>
      <point x="98" y="116"/>
      <point x="121" y="127" type="curve" smooth="yes"/>
      <point x="207" y="168"/>
      <point x="242" y="242"/>
      <point x="242" y="315" type="curve" smooth="yes"/>
      <point x="242" y="339"/>
      <point x="238" y="361"/>
      <point x="232" y="380" type="curve"/>
      <point x="207" y="334"/>
      <point x="172" y="294"/>
      <point x="126" y="259" type="curve" smooth="yes"/>
      <point x="68" y="214"/>
      <point x="26" y="165"/>
    </contour>
  </outline>
</glyph>
<glyph name="S" format="2">
  <advance width="574"/>
  <unicode hex="0053"/>
  <outline>
    <contour>
      <point x="135" y="246" type="curve" smooth="yes"/>
      <point x="108" y="246"/>
      <point x="88" y="234"/>
      <point x="88" y="216" type="curve" smooth="yes"/>
      <point x="88" y="168"/>
      <point x="210" y="158"/>
      <point x="210" y="79" type="curve" smooth="yes"/>
      <point x="210" y="26"/>
      <point x="164" y="-9"/>
      <point x="104" y="-9" type="curve" smooth="yes"/>
      <point x="44" y="-9"/>
      <point x="0" y="24"/>
      <point x="0" y="59" type="curve" smooth="yes"/>
      <point x="0" y="84"/>
      <point x="16" y="101"/>
      <point x="37" y="101" type="curve" smooth="yes"/>
      <point x="58" y="101"/>
      <point x="72" y="87"/>
      <point x="72" y="67" type="curve" smooth="yes"/>
      <point x="72" y="57"/>
      <point x="70" y="51"/>
      <point x="66" y="43" type="curve"/>
      <point x="64.2228" y="39.801"/>
      <point x="63.3931" y="36.981"/>
      <point x="63.3931" y="34.5064" type="curve" smooth="yes"/>
      <point x="63.3931" y="23.0569"/>
      <point x="81.1539" y="19"/>
      <point x="105" y="19" type="curve" smooth="yes"/>
      <point x="140" y="19"/>
      <point x="158" y="36"/>
      <point x="158" y="57" type="curve" smooth="yes"/>
      <point x="158" y="106"/>
      <point x="41" y="101"/>
      <point x="41" y="188" type="curve" smooth="yes"/>
      <point x="41" y="234"/>
      <point x="86" y="272"/>
      <point x="139" y="272" type="curve" smooth="yes"/>
      <point x="195" y="272"/>
      <point x="235" y="241"/>
      <point x="235" y="206" type="curve" smooth="yes"/>
      <point x="235" y="185"/>
      <point x="218" y="170"/>
      <point x="200" y="170" type="curve" smooth="yes"/>
      <point x="177" y="170"/>
      <point x="165" y="187"/>
      <point x="165" y="203" type="curve" smooth="yes"/>
      <point x="165" y="211"/>
      <point x="167" y="219"/>
      <point x="171" y="224" type="curve"/>
      <point x="173.097" y="227.146"/>
      <point x="174.034" y="229.864"/>
      <point x="174.034" y="232.208" type="curve" smooth="yes"/>
      <point x="174.034" y="243.276"/>
      <point x="153.155" y="246"/>
    </contour>
    <contour>
      <point x="192" y="-133" type="curve" smooth="yes"/>
      <point x="257" y="-133"/>
      <point x="287" y="-47"/>
      <point x="339" y="151" type="curve" smooth="yes"/>
      <point x="349" y="189" type="line" smooth="yes"/>
      <point x="352.418" y="201.913"/>
      <point x="354.538" y="210.787"/>
      <point x="354.538" y="216.828" type="curve" smooth="yes"/>
      <point x="354.538" y="226.692"/>
      <point x="348.885" y="229"/>
      <point x="334" y="229" type="curve" smooth="yes"/>
      <point x="282" y="229" type="line" smooth="yes"/>
      <point x="270" y="229"/>
      <point x="267" y="230"/>
      <point x="273" y="248" type="curve"/>
      <point x="277" y="262"/>
      <point x="279" y="262"/>
      <point x="294" y="262" type="curve" smooth="yes"/>
      <point x="345" y="262" type="line" smooth="yes"/>
      <point x="368" y="262"/>
      <point x="372" y="266"/>
      <point x="380" y="286" type="curve" smooth="yes"/>
      <point x="424" y="391"/>
      <point x="487" y="446"/>
      <point x="567" y="446" type="curve" smooth="yes"/>
      <point x="611" y="446"/>
      <point x="654" y="414"/>
      <point x="654" y="373" type="curve" smooth="yes"/>
      <point x="654" y="345"/>
      <point x="634" y="320"/>
      <point x="603" y="320" type="curve" smooth="yes"/>
      <point x="575" y="320"/>
      <point x="561" y="341"/>
      <point x="561" y="360" type="curve" smooth="yes"/>
      <point x="561" y="394"/>
      <point x="588" y="397"/>
      <point x="588" y="408" type="curve" smooth="yes"/>
      <point x="588" y="415"/>
      <point x="577" y="418"/>
      <point x="568" y="418" type="curve" smooth="yes"/>
      <point x="521" y="418"/>
      <point x="498" y="382"/>
      <point x="469" y="287" type="curve" smooth="yes"/>
      <point x="467.028" y="280.802"/>
      <point x="466.008" y="276.111"/>
      <point x="466.008" y="272.572" type="curve" smooth="yes"/>
      <point x="466.008" y="263.548"/>
      <point x="472.635" y="262"/>
      <point x="487" y="262" type="curve" smooth="yes"/>
      <point x="537" y="262" type="line" smooth="yes"/>
      <point x="547" y="262"/>
      <point x="552" y="260"/>
      <point x="547" y="246" type="curve" smooth="yes"/>
      <point x="541" y="229"/>
      <point x="537" y="229"/>
      <point x="527" y="229" type="curve" smooth="yes"/>
      <point x="475" y="229" type="line" smooth="yes"/>
      <point x="454" y="229"/>
      <point x="450" y="224"/>
      <point x="444" y="199" type="curve" smooth="yes"/>
      <point x="421" y="113" type="line" smooth="yes"/>
      <point x="377" y="-53"/>
      <point x="296" y="-161"/>
      <point x="194" y="-161" type="curve" smooth="yes"/>
      <point x="150" y="-161"/>
      <point x="107" y="-129"/>
      <point x="107" y="-88" type="curve" smooth="yes"/>
      <point x="107" y="-60"/>
      <point x="127" y="-35"/>
      <point x="158" y="-35" type="curve" smooth="yes"/>
      <point x="186" y="-35"/>
      <point x="200" y="-56"/>
      <point x="200" y="-75" type="curve" smooth="yes"/>
      <point x="200" y="-109"/>
      <point x="173" y="-112"/>
      <point x="173" y="-123" type="curve" smooth="yes"/>
      <point x="173" y="-130"/>
      <point x="183" y="-133"/>
    </contour>
  </outline>
</glyph>
<glyph name="U" format="2">
  <advance width="602"/>
  <unicode hex="0055"/>
  <outline>
    <contour>
      <point x="575.4" y="-51" type="line"/>
      <point x="575.4" y="68"/>
      <point x="512.5" y="197.2"/>
      <point x="300" y="197.2" type="curve" smooth="yes"/>
      <point x="87.5" y="197.2"/>
      <point x="24.6" y="68"/>
      <point x="24.6" y="-51" type="curve"/>
      <point x="-0.0500011" y="-51" type="line"/>
      <point x="-0.0500011" y="153"/>
      <point x="121.5" y="317.9"/>
      <point x="300" y="317.9" type="curve" smooth="yes"/>
      <point x="478.5" y="317.9"/>
      <point x="600.05" y="153"/>
      <point x="600.05" y="-51" type="curve"/>
    </contour>
    <contour>
      <point x="231" y="19" type="curve" smooth="yes"/>
      <point x="231" y="57"/>
      <point x="262" y="88"/>
      <point x="300" y="88" type="curve" smooth="yes"/>
      <point x="338" y="88"/>
      <point x="369" y="57"/>
      <point x="369" y="19" type="curve" smooth="yes"/>
      <point x="369" y="-19"/>
      <point x="338" y="-50"/>
      <point x="300" y="-50" type="curve" smooth="yes"/>
      <point x="262" y="-50"/>
      <point x="231" y="-19"/>
    </contour>
  </outline>
</glyph>
<glyph name="V" format="2">
  <advance width="656"/>
  <unicode hex="0056"/>
  <outline>
    <contour>
      <point x="415.465" y="-688.778" type="curve" smooth="yes"/>
      <point x="416.045" y="-722.004"/>
      <point x="383.004" y="-740.923"/>
      <point x="383.16" y="-749.832" type="curve" smooth="yes"/>
      <point x="383.253" y="-755.165"/>
      <point x="400.897" y="-775.997"/>
      <point x="401.301" y="-799.176" type="curve" smooth="yes"/>
      <point x="402.048" y="-841.931"/>
      <point x="357.817" y="-869.622"/>
      <point x="318.958" y="-870.3" type="curve" smooth="yes"/>
      <point x="282.895" y="-870.93"/>
      <point x="247.272" y="-847.237"/>
      <point x="246.599" y="-808.654" type="curve" smooth="yes"/>
      <point x="245.915" y="-769.477"/>
      <point x="275.613" y="-765.998"/>
      <point x="291.384" y="-740.773" type="curve"/>
      <point x="285.341" y="-724.026"/>
      <point x="274.431" y="-712.564" name="hr01"/>
      <point x="274.099" y="-693.562" type="curve" smooth="yes"/>
      <point x="273.405" y="-653.773"/>
      <point x="311.537" y="-630.921"/>
      <point x="347.566" y="-630.292" type="curve" smooth="yes"/>
      <point x="381.713" y="-629.696"/>
      <point x="414.832" y="-652.457"/>
    </contour>
    <contour>
      <point x="385.047" y="-690.005" type="curve" smooth="yes"/>
      <point x="384.692" y="-669.657"/>
      <point x="366.905" y="-657.02"/>
      <point x="347.648" y="-657.356" type="curve" smooth="yes"/>
      <point x="333.745" y="-657.599"/>
      <point x="314.944" y="-664.795"/>
      <point x="315.233" y="-681.361" type="curve" smooth="yes" name="hr02"/>
      <point x="315.538" y="-698.78"/>
      <point x="336.638" y="-724.336"/>
      <point x="354.921" y="-724.017" type="curve" smooth="yes"/>
      <point x="370.761" y="-723.74" name="hr03"/>
      <point x="385.311" y="-705.085"/>
    </contour>
    <contour>
      <point x="358.283" y="-813.362" type="curve" smooth="yes"/>
      <point x="357.938" y="-793.608"/>
      <point x="336.61" y="-765.718" name="hr04"/>
      <point x="315.502" y="-766.087" type="curve" smooth="yes"/>
      <point x="297.556" y="-766.4"/>
      <point x="277.146" y="-789.809"/>
      <point x="277.453" y="-807.372" type="curve" smooth="yes"/>
      <point x="277.854" y="-830.355"/>
      <point x="298.308" y="-842.267"/>
      <point x="319.373" y="-841.899" type="curve" smooth="yes"/>
      <point x="336.598" y="-841.598"/>
      <point x="358.645" y="-834.071"/>
    </contour>
    <contour>
      <point x="577.348" y="-14.2384" type="curve" smooth="yes"/>
      <point x="575.676" y="81.529"/>
      <point x="509.382" y="138.296"/>
      <point x="415.511" y="136.657" type="curve" smooth="yes"/>
      <point x="409.055" y="136.544"/>
      <point x="395.22" y="126.29"/>
      <point x="396.964" y="118.758" type="curve" smooth="yes"/>
      <point x="463.825" y="-169.986" type="line" smooth="yes"/>
      <point x="464.597" y="-173.322"/>
      <point x="474.012" y="-176.658"/>
      <point x="477.092" y="-177.555" type="curve"/>
      <point x="477.817" y="-177.451" type="line"/>
      <point x="543.937" y="-146.763"/>
      <point x="578.607" y="-86.3744"/>
    </contour>
    <contour>
      <point x="279.659" y="377.849" type="curve"/>
      <point x="180.036" y="279.094"/>
      <point x="71.394" y="186.496"/>
      <point x="74.0696" y="33.2106" type="curve" smooth="yes"/>
      <point x="76.8844" y="-128.051"/>
      <point x="200.282" y="-209.01"/>
      <point x="351.2" y="-206.376" type="curve" smooth="yes"/>
      <point x="364.158" y="-206.15"/>
      <point x="430.778" y="-204.744"/>
      <point x="425.414" y="-181.654" type="curve" smooth="yes"/>
      <point x="355.68" y="118.559" type="line" smooth="yes"/>
      <point x="354.491" y="123.678"/>
      <point x="345.198" y="127.253" name="hr05"/>
      <point x="340.613" y="127.173" type="curve" smooth="yes"/>
      <point x="294.602" y="126.37"/>
      <point x="244.019" y="65.5836"/>
      <point x="244.896" y="15.3315" type="curve" smooth="yes"/>
      <point x="245.916" y="-43.0756"/>
      <point x="297.765" y="-103.679"/>
      <point x="297.888" y="-110.723" type="curve" smooth="yes"/>
      <point x="297.97" y="-115.428"/>
      <point x="295.008" y="-118.495"/>
      <point x="290.304" y="-118.577" type="curve"/>
      <point x="289.189" y="-118.597"/>
      <point x="283.373" y="-117.008"/>
      <point x="282.169" y="-116.588" type="curve"/>
      <point x="214.877" y="-93.1223"/>
      <point x="173.837" y="-20.0798"/>
      <point x="172.639" y="48.5358" type="curve" smooth="yes"/>
      <point x="171.02" y="141.334"/>
      <point x="237.663" y="224.535"/>
      <point x="324.203" y="253.259" type="curve"/>
      <point x="318.311" y="278.253" name="hr06"/>
      <point x="304.796" y="379.452"/>
      <point x="284.549" y="379.098" type="curve"/>
      <point x="283.053" y="379.072"/>
      <point x="281.113" y="378.22"/>
    </contour>
    <contour>
      <point x="325.337" y="424.036" type="curve"/>
      <point x="363.777" y="262.262" type="line"/>
      <point x="372.091" y="263.24"/>
      <point x="380.462" y="263.959"/>
      <point x="388.835" y="264.105" type="curve" smooth="yes"/>
      <point x="530.17" y="266.572"/>
      <point x="652.246" y="165.008"/>
      <point x="654.781" y="19.765" type="curve" smooth="yes"/>
      <point x="656.216" y="-62.4319"/>
      <point x="613.478" y="-137.659"/>
      <point x="546.123" y="-183.676" type="curve" smooth="yes"/>
      <point x="527.855" y="-196.157"/>
      <point x="507.61" y="-203.929"/>
      <point x="488.964" y="-215.384" type="curve" smooth="yes"/>
      <point x="483.106" y="-218.982"/>
      <point x="478.983" y="-225.592"/>
      <point x="479.105" y="-232.596" type="curve" smooth="yes"/>
      <point x="479.401" y="-249.553"/>
      <point x="486.318" y="-266.169"/>
      <point x="490.445" y="-282.383" type="curve" smooth="yes"/>
      <point x="503.327" y="-332.988"/>
      <point x="512.222" y="-386.718"/>
      <point x="513.134" y="-438.975" type="curve" smooth="yes"/>
      <point x="515.091" y="-551.105"/>
      <point x="443.289" y="-643.827"/>
      <point x="326.717" y="-645.862" type="curve" smooth="yes"/>
      <point x="230.388" y="-647.543"/>
      <point x="114.83" y="-588.626"/>
      <point x="112.941" y="-480.427" type="curve" smooth="yes"/>
      <point x="111.863" y="-418.639"/>
      <point x="159.484" y="-362.146"/>
      <point x="222.883" y="-361.039" type="curve" smooth="yes"/>
      <point x="284.758" y="-359.959"/>
      <point x="336.652" y="-408.913" name="hr07"/>
      <point x="337.737" y="-471.061" type="curve" smooth="yes"/>
      <point x="338.622" y="-521.775"/>
      <point x="302.698" y="-569.413"/>
      <point x="253.706" y="-582.504" type="curve"/>
      <point x="252.655" y="-585.013" type="line"/>
      <point x="256.378" y="-593.171" type="line"/>
      <point x="274.787" y="-602.087"/>
      <point x="294.775" y="-605.58"/>
      <point x="315.124" y="-605.225" type="curve" smooth="yes"/>
      <point x="414.48" y="-603.491"/>
      <point x="473.982" y="-535.638"/>
      <point x="472.275" y="-437.874" type="curve" smooth="yes"/>
      <point x="471.371" y="-386.051"/>
      <point x="458.264" y="-292.965"/>
      <point x="440.922" y="-244.552" type="curve" smooth="yes"/>
      <point x="438.983" y="-239.141"/>
      <point x="431.299" y="-235.557"/>
      <point x="425.903" y="-235.652" type="curve" smooth="yes"/>
      <point x="399.014" y="-236.121"/>
      <point x="372.915" y="-244.115"/>
      <point x="346.016" y="-244.584" type="curve" smooth="yes"/>
      <point x="162.81" y="-247.782"/>
      <point x="4.2068" y="-122.733"/>
      <point x="0.88966" y="67.3058" type="curve" smooth="yes"/>
      <point x="-2.56368" y="265.148"/>
      <point x="132.133" y="401.696"/>
      <point x="258.899" y="535.059" type="curve"/>
      <point x="239.233" y="615.634"/>
      <point x="215.744" y="696.769" name="hr08"/>
      <point x="214.286" y="780.301" type="curve" smooth="yes"/>
      <point x="212.278" y="895.371"/>
      <point x="258.065" y="1008.98"/>
      <point x="328.339" y="1098.82" type="curve" smooth="yes"/>
      <point x="340.835" y="1114.79" name="hr09"/>
      <point x="373.048" y="1154.77"/>
      <point x="392.239" y="1160.28" type="curve"/>
      <point x="465.504" y="1129.35"/>
      <point x="519.231" y="925.03"/>
      <point x="520.524" y="850.95" type="curve" smooth="yes"/>
      <point x="523.448" y="683.466"/>
      <point x="448.709" y="534.733"/>
    </contour>
    <contour>
      <point x="308.066" y="585.05" type="curve"/>
      <point x="390.348" y="669.041"/>
      <point x="478.384" y="769.619"/>
      <point x="476.202" y="894.619" type="curve" smooth="yes"/>
      <point x="475.777" y="918.959"/>
      <point x="472.08" y="1013.22"/>
      <point x="436.839" y="1012.61" type="curve" smooth="yes"/>
      <point x="317.306" y="1010.52"/>
      <point x="266.281" y="816.679"/>
      <point x="267.945" y="721.376" type="curve" smooth="yes"/>
      <point x="268.74" y="675.827"/>
      <point x="278.656" y="631.246" name="hr10"/>
      <point x="287.413" y="586.742" type="curve"/>
      <point x="290.79" y="584.375"/>
      <point x="295.146" y="582.362"/>
      <point x="299.365" y="582.435" type="curve"/>
      <point x="300.998" y="582.464"/>
      <point x="306.263" y="584.508"/>
    </contour>
  </outline>
</glyph>
<glyph name="W" format="2">
  <advance width="532"/>
  <unicode hex="0057"/>
  <anchor x="0" y="0" name="noteheadOrigin"/>
  <outline>
    <contour>
      <point x="419" y="45" type="curve"/>
      <point x="419" y="119" type="line" smooth="yes"/>
      <point x="419" y="137"/>
      <point x="422" y="144"/>
      <point x="436" y="144" type="curve" smooth="yes"/>
      <point x="449" y="144"/>
      <point x="450" y="136"/>
      <point x="450" y="121" type="curve" smooth="yes"/>
      <point x="450" y="-120" type="line" smooth="yes"/>
      <point x="450" y="-138"/>
      <point x="448" y="-146"/>
      <point x="435" y="-146" type="curve" smooth="yes"/>
      <point x="421" y="-146"/>
      <point x="419" y="-138"/>
      <point x="419" y="-122" type="curve" smooth="yes"/>
      <point x="419" y="-39" type="line"/>
      <point x="389" y="-115"/>
      <point x="278" y="-139"/>
      <point x="205" y="-139" type="curve" smooth="yes"/>
      <point x="134" y="-139"/>
      <point x="29" y="-117"/>
      <point x="0" y="-42" type="curve"/>
      <point x="0" y="-120" type="line" smooth="yes"/>
      <point x="0" y="-138"/>
      <point x="-2" y="-146"/>
      <point x="-15" y="-146" type="curve" smooth="yes"/>
      <point x="-29" y="-146"/>
      <point x="-31" y="-138"/>
      <point x="-31" y="-122" type="curve" smooth="yes"/>
      <point x="-31" y="119" type="line" smooth="yes"/>
      <point x="-31" y="137"/>
      <point x="-28" y="144"/>
      <point x="-14" y="144" type="curve" smooth="yes"/>
      <point x="-1" y="144"/>
      <point x="0" y="136"/>
      <point x="0" y="121" type="curve" smooth="yes"/>
      <point x="0" y="40" type="line"/>
      <point x="29" y="117"/>
      <point x="142" y="141"/>
      <point x="215" y="141" type="curve" smooth="yes"/>
      <point x="285" y="141"/>
      <point x="390" y="119"/>
    </contour>
    <contour>
      <point x="502" y="-120" type="line" smooth="yes"/>
      <point x="502" y="-138"/>
      <point x="500" y="-146"/>
      <point x="487" y="-146" type="curve" smooth="yes"/>
      <point x="473" y="-146"/>
      <point x="471" y="-138"/>
      <point x="471" y="-122" type="curve" smooth="yes"/>
      <point x="471" y="119" type="line" smooth="yes"/>
      <point x="471" y="137"/>
      <point x="474" y="144"/>
      <point x="488" y="144" type="curve" smooth="yes"/>
      <point x="501" y="144"/>
      <point x="502" y="136"/>
      <point x="502" y="121" type="curve" smooth="yes"/>
    </contour>
    <contour>
      <point x="-51" y="-120" type="line" smooth="yes"/>
      <point x="-51" y="-138"/>
      <point x="-53" y="-146"/>
      <point x="-66" y="-146" type="curve" smooth="yes"/>
      <point x="-80" y="-146"/>
      <point x="-82" y="-138"/>
      <point x="-82" y="-122" type="curve" smooth="yes"/>
      <point x="-82" y="119" type="line" smooth="yes"/>
      <point x="-82" y="137"/>
      <point x="-79" y="144"/>
      <point x="-65" y="144" type="curve" smooth="yes"/>
      <point x="-52" y="144"/>
      <point x="-51" y="136"/>
      <point x="-51" y="121" type="curve" smooth="yes"/>
    </contour>
    <contour>
      <point x="283" y="53" type="line"/>
      <point x="272" y="93"/>
      <point x="238" y="117"/>
      <point x="191" y="117" type="curve" smooth="yes"/>
      <point x="185" y="117"/>
      <point x="180" y="117"/>
      <point x="174" y="116" type="curve" smooth="yes"/>
      <point x="126" y="110"/>
      <point x="112" y="84"/>
      <point x="112" y="53" type="curve" smooth="yes"/>
      <point x="112" y="34"/>
      <point x="117" y="13"/>
      <point x="123" y="-6" type="curve" smooth="yes"/>
      <point x="137" y="-51" type="line" smooth="yes"/>
      <point x="148" y="-88"/>
      <point x="183" y="-115"/>
      <point x="230" y="-115" type="curve" smooth="yes"/>
      <point x="235" y="-115"/>
      <point x="240" y="-115"/>
      <point x="246" y="-114" type="curve" smooth="yes"/>
      <point x="294" y="-108"/>
      <point x="307" y="-82"/>
      <point x="307" y="-52" type="curve" smooth="yes"/>
      <point x="307" y="-33"/>
      <point x="302" y="-13"/>
      <point x="297" y="5" type="curve" smooth="yes"/>
    </contour>
  </outline>
</glyph>
<glyph name="Y" format="2">
  <advance width="634"/>
  <unicode hex="0059"/>
  <outline>
    <contour>
      <point x="386" y="-19" type="curve" smooth="yes"/>
      <point x="386" y="-57"/>
      <point x="356" y="-88"/>
      <point x="318" y="-88" type="curve" smooth="yes"/>
      <point x="280" y="-88"/>
      <point x="248" y="-57"/>
      <point x="248" y="-19" type="curve" smooth="yes"/>
      <point x="248" y="19"/>
      <point x="280" y="50"/>
      <point x="318" y="50" type="curve" smooth="yes"/>
      <point x="356" y="50"/>
      <point x="386" y="19"/>
    </contour>
    <contour>
      <point x="606" y="51" type="line"/>
      <point x="634" y="51" type="line"/>
      <point x="634" y="-360" type="line"/>
      <point x="0" y="-360" type="line"/>
      <point x="0" y="51" type="line"/>
      <point x="28" y="51" type="line"/>
      <point x="28" y="-199" type="line" smooth="yes"/>
      <point x="28" y="-208"/>
      <point x="39" y="-215"/>
      <point x="44" y="-215" type="curve" smooth="yes"/>
      <point x="594" y="-215" type="line" smooth="yes"/>
      <point x="598" y="-215"/>
      <point x="606" y="-208"/>
      <point x="606" y="-202" type="curve" smooth="yes"/>
    </contour>
  </outline>
</glyph>
<glyph name="Z" format="2">
  <advance width="789"/>
  <unicode hex="005A"/>
  <outline>
    <contour>
      <point x="725" y="30" type="curve" smooth="yes"/>
      <point x="738" y="30"/>
      <point x="744" y="36"/>
      <point x="744" y="43" type="curve" smooth="yes"/>
      <point x="744" y="48"/>
      <point x="741" y="54"/>
      <point x="733" y="59" type="curve" smooth="yes"/>
      <point x="722" y="66"/>
      <point x="709" y="82"/>
      <point x="709" y="96" type="curve" smooth="yes"/>
      <point x="709" y="110"/>
      <point x="720" y="126"/>
      <point x="739" y="126" type="curve" smooth="yes"/>
      <point x="765" y="126"/>
      <point x="789" y="104"/>
      <point x="789" y="70" type="curve" smooth="yes"/>
      <point x="789" y="20"/>
      <point x="745" y="-17"/>
      <point x="703" y="-17" type="curve" smooth="yes"/>
      <point x="658" y="-17"/>
      <point x="640" y="16"/>
      <point x="609" y="29" type="curve" smooth="yes"/>
      <point x="605" y="31"/>
      <point x="601" y="31"/>
      <point x="597" y="31" type="curve" smooth="yes"/>
      <point x="589" y="31"/>
      <point x="583" y="28"/>
      <point x="577" y="22" type="curve" smooth="yes"/>
      <point x="556" y="2" type="line" smooth="yes"/>
      <point x="553" y="0"/>
      <point x="551" y="-2"/>
      <point x="544" y="-2" type="curve" smooth="yes"/>
      <point x="532" y="-2"/>
      <point x="523" y="-1"/>
      <point x="523" y="4" type="curve" smooth="yes"/>
      <point x="523" y="6"/>
      <point x="525" y="10"/>
      <point x="529" y="14" type="curve" smooth="yes"/>
      <point x="681" y="179" type="line" smooth="yes"/>
      <point x="684" y="182"/>
      <point x="686" y="187"/>
      <point x="686" y="190" type="curve" smooth="yes"/>
      <point x="686" y="194"/>
      <point x="684" y="196"/>
      <point x="676" y="197" type="curve" smooth="yes"/>
      <point x="618" y="200" type="line"/>
      <point x="613" y="200" type="line" smooth="yes"/>
      <point x="595" y="200"/>
      <point x="591" y="188"/>
      <point x="583" y="171" type="curve" smooth="yes"/>
      <point x="576" y="156" type="line" smooth="yes"/>
      <point x="573" y="149"/>
      <point x="571" y="149"/>
      <point x="565" y="149" type="curve" smooth="yes"/>
      <point x="554" y="149"/>
      <point x="549" y="150"/>
      <point x="549" y="156" type="curve" smooth="yes"/>
      <point x="549" y="157"/>
      <point x="549" y="158"/>
      <point x="550" y="160" type="curve" smooth="yes"/>
      <point x="581" y="256" type="line" smooth="yes"/>
      <point x="584" y="265"/>
      <point x="585" y="268"/>
      <point x="593" y="268" type="curve" smooth="yes"/>
      <point x="605" y="268"/>
      <point x="681" y="262"/>
      <point x="732" y="262" type="curve" smooth="yes"/>
      <point x="751" y="262"/>
      <point x="770" y="263"/>
      <point x="779" y="263" type="curve" smooth="yes"/>
      <point x="784" y="263"/>
      <point x="787" y="261"/>
      <point x="787" y="257" type="curve" smooth="yes"/>
      <point x="787" y="254"/>
      <point x="784" y="248"/>
      <point x="778" y="241" type="curve" smooth="yes"/>
      <point x="643" y="94" type="line" smooth="yes"/>
      <point x="635" y="86"/>
      <point x="631" y="81"/>
      <point x="631" y="76" type="curve" smooth="yes"/>
      <point x="631" y="72"/>
      <point x="637" y="67"/>
      <point x="650" y="58" type="curve" smooth="yes"/>
      <point x="668" y="46"/>
      <point x="700" y="30"/>
    </contour>
    <contour>
      <point x="135" y="246" type="curve" smooth="yes"/>
      <point x="108" y="246"/>
      <point x="88" y="234"/>
      <point x="88" y="216" type="curve" smooth="yes"/>
      <point x="88" y="168"/>
      <point x="210" y="158"/>
      <point x="210" y="79" type="curve" smooth="yes"/>
      <point x="210" y="26"/>
      <point x="164" y="-9"/>
      <point x="104" y="-9" type="curve" smooth="yes"/>
      <point x="44" y="-9"/>
      <point x="0" y="24"/>
      <point x="0" y="59" type="curve" smooth="yes"/>
      <point x="0" y="84"/>
      <point x="16" y="101"/>
      <point x="37" y="101" type="curve" smooth="yes"/>
      <point x="58" y="101"/>
      <point x="72" y="87"/>
      <point x="72" y="67" type="curve" smooth="yes"/>
      <point x="72" y="57"/>
      <point x="70" y="51"/>
      <point x="66" y="43" type="curve" smooth="yes"/>
      <point x="56" y="25"/>
      <point x="76" y="19"/>
      <point x="105" y="19" type="curve" smooth="yes"/>
      <point x="140" y="19"/>
      <point x="158" y="36"/>
      <point x="158" y="57" type="curve" smooth="yes"/>
      <point x="158" y="106"/>
      <point x="41" y="101"/>
      <point x="41" y="188" type="curve" smooth="yes"/>
      <point x="41" y="234"/>
      <point x="86" y="272"/>
      <point x="139" y="272" type="curve" smooth="yes"/>
      <point x="195" y="272"/>
      <point x="235" y="241"/>
      <point x="235" y="206" type="curve" smooth="yes"/>
      <point x="235" y="185"/>
      <point x="218" y="170"/>
      <point x="200" y="170" type="curve" smooth="yes"/>
      <point x="177" y="170"/>
      <point x="165" y="187"/>
      <point x="165" y="203" type="curve" smooth="yes"/>
      <point x="165" y="211"/>
      <point x="167" y="219"/>
      <point x="171" y="224" type="curve" smooth="yes"/>
      <point x="183" y="242"/>
      <point x="157" y="246"/>
    </contour>
    <contour>
      <point x="192" y="-133" type="curve" smooth="yes"/>
      <point x="257" y="-133"/>
      <point x="287" y="-47"/>
      <point x="339" y="151" type="curve" smooth="yes"/>
      <point x="349" y="189" type="line" smooth="yes"/>
      <point x="358" y="223"/>
      <point x="358" y="229"/>
      <point x="334" y="229" type="curve" smooth="yes"/>
      <point x="282" y="229" type="line" smooth="yes"/>
      <point x="270" y="229"/>
      <point x="267" y="230"/>
      <point x="273" y="248" type="curve" smooth="yes"/>
      <point x="277" y="262"/>
      <point x="279" y="262"/>
      <point x="294" y="262" type="curve" smooth="yes"/>
      <point x="345" y="262" type="line" smooth="yes"/>
      <point x="368" y="262"/>
      <point x="372" y="266"/>
      <point x="380" y="286" type="curve" smooth="yes"/>
      <point x="424" y="391"/>
      <point x="487" y="446"/>
      <point x="567" y="446" type="curve" smooth="yes"/>
      <point x="611" y="446"/>
      <point x="654" y="414"/>
      <point x="654" y="373" type="curve" smooth="yes"/>
      <point x="654" y="345"/>
      <point x="634" y="320"/>
      <point x="603" y="320" type="curve" smooth="yes"/>
      <point x="575" y="320"/>
      <point x="561" y="341"/>
      <point x="561" y="360" type="curve" smooth="yes"/>
      <point x="561" y="394"/>
      <point x="588" y="397"/>
      <point x="588" y="408" type="curve" smooth="yes"/>
      <point x="588" y="415"/>
      <point x="577" y="418"/>
      <point x="568" y="418" type="curve" smooth="yes"/>
      <point x="521" y="418"/>
      <point x="498" y="382"/>
      <point x="469" y="287" type="curve" smooth="yes"/>
      <point x="462" y="265"/>
      <point x="467" y="262"/>
      <point x="487" y="262" type="curve" smooth="yes"/>
      <point x="537" y="262" type="line" smooth="yes"/>
      <point x="547" y="262"/>
      <point x="552" y="260"/>
      <point x="547" y="246" type="curve" smooth="yes"/>
      <point x="541" y="229"/>
      <point x="537" y="229"/>
      <point x="527" y="229" type="curve" smooth="yes"/>
      <point x="475" y="229" type="line" smooth="yes"/>
      <point x="454" y="229"/>
      <point x="450" y="224"/>
      <point x="444" y="199" type="curve" smooth="yes"/>
      <point x="421" y="113" type="line" smooth="yes"/>
      <point x="377" y="-53"/>
      <point x="296" y="-161"/>
      <point x="194" y="-161" type="curve" smooth="yes"/>
      <point x="150" y="-161"/>
      <point x="107" y="-129"/>
      <point x="107" y="-88" type="curve" smooth="yes"/>
      <point x="107" y="-60"/>
      <point x="127" y="-35"/>
      <point x="158" y="-35" type="curve" smooth="yes"/>
      <point x="186" y="-35"/>
      <point x="200" y="-56"/>
      <point x="200" y="-75" type="curve" smooth="yes"/>
      <point x="200" y="-109"/>
      <point x="173" y="-112"/>
      <point x="173" y="-123" type="curve" smooth="yes"/>
      <point x="173" y="-130"/>
      <point x="183" y="-133"/>
    </contour>
  </outline>
</glyph>
<glyph name="bracketleft" format="2">
  <advance width="1053"/>
  <unicode hex="005B"/>
  <outline>
    <contour>
      <point x="989" y="30" type="curve" smooth="yes"/>
      <point x="1002" y="30"/>
      <point x="1008" y="36"/>
      <point x="1008" y="43" type="curve" smooth="yes"/>
      <point x="1008" y="48"/>
      <point x="1005" y="54"/>
      <point x="997" y="59" type="curve" smooth="yes"/>
      <point x="986" y="66"/>
      <point x="973" y="82"/>
      <point x="973" y="96" type="curve" smooth="yes"/>
      <point x="973" y="110"/>
      <point x="984" y="126"/>
      <point x="1003" y="126" type="curve" smooth="yes"/>
      <point x="1029" y="126"/>
      <point x="1053" y="104"/>
      <point x="1053" y="70" type="curve" smooth="yes"/>
      <point x="1053" y="20"/>
      <point x="1009" y="-17"/>
      <point x="967" y="-17" type="curve" smooth="yes"/>
      <point x="922" y="-17"/>
      <point x="904" y="16"/>
      <point x="873" y="29" type="curve" smooth="yes"/>
      <point x="869" y="31"/>
      <point x="865" y="31"/>
      <point x="861" y="31" type="curve" smooth="yes"/>
      <point x="853" y="31"/>
      <point x="847" y="28"/>
      <point x="841" y="22" type="curve" smooth="yes"/>
      <point x="820" y="2" type="line" smooth="yes"/>
      <point x="817" y="0"/>
      <point x="815" y="-2"/>
      <point x="808" y="-2" type="curve" smooth="yes"/>
      <point x="796" y="-2"/>
      <point x="787" y="-1"/>
      <point x="787" y="4" type="curve" smooth="yes"/>
      <point x="787" y="6"/>
      <point x="789" y="10"/>
      <point x="793" y="14" type="curve" smooth="yes"/>
      <point x="945" y="179" type="line" smooth="yes"/>
      <point x="948" y="182"/>
      <point x="950" y="187"/>
      <point x="950" y="190" type="curve" smooth="yes"/>
      <point x="950" y="194"/>
      <point x="948" y="196"/>
      <point x="940" y="197" type="curve" smooth="yes"/>
      <point x="882" y="200" type="line" smooth="yes"/>
      <point x="877" y="200" type="line" smooth="yes"/>
      <point x="859" y="200"/>
      <point x="855" y="188"/>
      <point x="847" y="171" type="curve" smooth="yes"/>
      <point x="840" y="156" type="line" smooth="yes"/>
      <point x="837" y="149"/>
      <point x="835" y="149"/>
      <point x="829" y="149" type="curve" smooth="yes"/>
      <point x="818" y="149"/>
      <point x="813" y="150"/>
      <point x="813" y="156" type="curve" smooth="yes"/>
      <point x="813" y="157"/>
      <point x="813" y="158"/>
      <point x="814" y="160" type="curve" smooth="yes"/>
      <point x="845" y="256" type="line" smooth="yes"/>
      <point x="848" y="265"/>
      <point x="849" y="268"/>
      <point x="857" y="268" type="curve" smooth="yes"/>
      <point x="869" y="268"/>
      <point x="945" y="262"/>
      <point x="996" y="262" type="curve" smooth="yes"/>
      <point x="1015" y="262"/>
      <point x="1034" y="263"/>
      <point x="1043" y="263" type="curve" smooth="yes"/>
      <point x="1048" y="263"/>
      <point x="1051" y="261"/>
      <point x="1051" y="257" type="curve" smooth="yes"/>
      <point x="1051" y="254"/>
      <point x="1048" y="248"/>
      <point x="1042" y="241" type="curve" smooth="yes"/>
      <point x="907" y="94" type="line" smooth="yes"/>
      <point x="899" y="86"/>
      <point x="895" y="81"/>
      <point x="895" y="76" type="curve" smooth="yes"/>
      <point x="895" y="72"/>
      <point x="901" y="67"/>
      <point x="914" y="58" type="curve" smooth="yes"/>
      <point x="932" y="46"/>
      <point x="964" y="30"/>
    </contour>
    <contour>
      <point x="463" y="287" type="curve" smooth="yes"/>
      <point x="455" y="265"/>
      <point x="461" y="262"/>
      <point x="481" y="262" type="curve" smooth="yes"/>
      <point x="615" y="262" type="line" smooth="yes"/>
      <point x="638" y="262"/>
      <point x="642" y="266"/>
      <point x="650" y="286" type="curve" smooth="yes"/>
      <point x="694" y="391"/>
      <point x="754" y="446"/>
      <point x="831" y="446" type="curve" smooth="yes"/>
      <point x="875" y="446"/>
      <point x="918" y="414"/>
      <point x="918" y="373" type="curve" smooth="yes"/>
      <point x="918" y="345"/>
      <point x="901" y="320"/>
      <point x="870" y="320" type="curve" smooth="yes"/>
      <point x="842" y="320"/>
      <point x="825" y="341"/>
      <point x="825" y="360" type="curve" smooth="yes"/>
      <point x="825" y="394"/>
      <point x="852" y="397"/>
      <point x="852" y="408" type="curve" smooth="yes"/>
      <point x="852" y="415"/>
      <point x="841" y="418"/>
      <point x="832" y="418" type="curve" smooth="yes"/>
      <point x="785" y="418"/>
      <point x="762" y="382"/>
      <point x="733" y="287" type="curve" smooth="yes"/>
      <point x="726" y="265"/>
      <point x="731" y="262"/>
      <point x="751" y="262" type="curve" smooth="yes"/>
      <point x="801" y="262" type="line" smooth="yes"/>
      <point x="811" y="262"/>
      <point x="815.974" y="260.01"/>
      <point x="811" y="246" type="curve" smooth="yes"/>
      <point x="804.969" y="229.012"/>
      <point x="801" y="229"/>
      <point x="791" y="229" type="curve" smooth="yes"/>
      <point x="739" y="229" type="line" smooth="yes"/>
      <point x="718" y="229"/>
      <point x="715" y="224"/>
      <point x="708" y="199" type="curve" smooth="yes"/>
      <point x="685" y="113" type="line" smooth="yes"/>
      <point x="640.696" y="-52.657"/>
      <point x="572" y="-144"/>
      <point x="480" y="-144" type="curve" smooth="yes"/>
      <point x="436" y="-144"/>
      <point x="393" y="-112"/>
      <point x="393" y="-71" type="curve" smooth="yes"/>
      <point x="393" y="-43"/>
      <point x="413" y="-18"/>
      <point x="444" y="-18" type="curve" smooth="yes"/>
      <point x="472" y="-18"/>
      <point x="486" y="-39"/>
      <point x="486" y="-58" type="curve" smooth="yes"/>
      <point x="486" y="-92"/>
      <point x="459" y="-95"/>
      <point x="459" y="-106" type="curve" smooth="yes"/>
      <point x="459" y="-113"/>
      <point x="469" y="-116"/>
      <point x="478" y="-116" type="curve" smooth="yes"/>
      <point x="536" y="-116"/>
      <point x="562" y="-48"/>
      <point x="609" y="151" type="curve" smooth="yes"/>
      <point x="619" y="189" type="line" smooth="yes"/>
      <point x="627.951" y="223.013"/>
      <point x="628" y="229"/>
      <point x="604" y="229" type="curve" smooth="yes"/>
      <point x="469" y="229" type="line" smooth="yes"/>
      <point x="448" y="229"/>
      <point x="444" y="224"/>
      <point x="438" y="199" type="curve" smooth="yes"/>
      <point x="415" y="113" type="line" smooth="yes"/>
      <point x="370.631" y="-52.901"/>
      <point x="293" y="-161"/>
      <point x="194" y="-161" type="curve" smooth="yes"/>
      <point x="150" y="-161"/>
      <point x="107" y="-129"/>
      <point x="107" y="-88" type="curve" smooth="yes"/>
      <point x="107" y="-60"/>
      <point x="127" y="-35"/>
      <point x="158" y="-35" type="curve" smooth="yes"/>
      <point x="186" y="-35"/>
      <point x="200" y="-56"/>
      <point x="200" y="-75" type="curve" smooth="yes"/>
      <point x="200" y="-109"/>
      <point x="173" y="-112"/>
      <point x="173" y="-123" type="curve" smooth="yes"/>
      <point x="173" y="-130"/>
      <point x="183" y="-133"/>
      <point x="192" y="-133" type="curve" smooth="yes"/>
      <point x="257" y="-133"/>
      <point x="286.901" y="-46.9736"/>
      <point x="339" y="151" type="curve" smooth="yes"/>
      <point x="349" y="189" type="line" smooth="yes"/>
      <point x="357.951" y="223.013"/>
      <point x="358" y="229"/>
      <point x="334" y="229" type="curve" smooth="yes"/>
      <point x="282" y="229" type="line" smooth="yes"/>
      <point x="270" y="229"/>
      <point x="267" y="230"/>
      <point x="273" y="248" type="curve" smooth="yes"/>
      <point x="277" y="262"/>
      <point x="279" y="262"/>
      <point x="294" y="262" type="curve" smooth="yes"/>
      <point x="345" y="262" type="line" smooth="yes"/>
      <point x="368" y="262"/>
      <point x="371" y="266"/>
      <point x="380" y="286" type="curve" smooth="yes"/>
      <point x="424" y="391"/>
      <point x="484" y="446"/>
      <point x="554" y="446" type="curve" smooth="yes"/>
      <point x="598" y="446"/>
      <point x="641" y="414"/>
      <point x="641" y="373" type="curve" smooth="yes"/>
      <point x="641" y="345"/>
      <point x="624" y="320"/>
      <point x="593" y="320" type="curve" smooth="yes"/>
      <point x="565" y="320"/>
      <point x="548" y="341"/>
      <point x="548" y="360" type="curve" smooth="yes"/>
      <point x="548" y="394"/>
      <point x="575" y="397"/>
      <point x="575" y="408" type="curve" smooth="yes"/>
      <point x="575" y="415"/>
      <point x="564" y="418"/>
      <point x="555" y="418" type="curve" smooth="yes"/>
      <point x="515" y="418"/>
      <point x="492" y="382"/>
    </contour>
    <contour>
      <point x="135" y="246" type="curve" smooth="yes"/>
      <point x="108" y="246"/>
      <point x="88" y="234"/>
      <point x="88" y="216" type="curve" smooth="yes"/>
      <point x="88" y="168"/>
      <point x="210" y="158"/>
      <point x="210" y="79" type="curve" smooth="yes"/>
      <point x="210" y="26"/>
      <point x="164" y="-9"/>
      <point x="104" y="-9" type="curve" smooth="yes"/>
      <point x="44" y="-9"/>
      <point x="0" y="24"/>
      <point x="0" y="59" type="curve" smooth="yes"/>
      <point x="0" y="84"/>
      <point x="16" y="101"/>
      <point x="37" y="101" type="curve" smooth="yes"/>
      <point x="58" y="101"/>
      <point x="72" y="87"/>
      <point x="72" y="67" type="curve" smooth="yes"/>
      <point x="72" y="57"/>
      <point x="70" y="51"/>
      <point x="66" y="43" type="curve" smooth="yes"/>
      <point x="56" y="25"/>
      <point x="76" y="19"/>
      <point x="105" y="19" type="curve" smooth="yes"/>
      <point x="140" y="19"/>
      <point x="158" y="36"/>
      <point x="158" y="57" type="curve" smooth="yes"/>
      <point x="158" y="106"/>
      <point x="41" y="101"/>
      <point x="41" y="188" type="curve" smooth="yes"/>
      <point x="41" y="234"/>
      <point x="86" y="272"/>
      <point x="139" y="272" type="curve" smooth="yes"/>
      <point x="195" y="272"/>
      <point x="235" y="241"/>
      <point x="235" y="206" type="curve" smooth="yes"/>
      <point x="235" y="185"/>
      <point x="218" y="170"/>
      <point x="200" y="170" type="curve" smooth="yes"/>
      <point x="177" y="170"/>
      <point x="165" y="187"/>
      <point x="165" y="203" type="curve" smooth="yes"/>
      <point x="165" y="211"/>
      <point x="167" y="219"/>
      <point x="171" y="224" type="curve" smooth="yes"/>
      <point x="183" y="242"/>
      <point x="157" y="246"/>
    </contour>
  </outline>
</glyph>
<glyph name="backslash" format="2">
  <advance width="42"/>
  <unicode hex="005C"/>
  <outline>
    <contour>
      <point x="19" y="1014" type="line"/>
      <point x="19" y="0" type="line"/>
      <point x="0" y="0" type="line"/>
      <point x="0" y="1014" type="line"/>
    </contour>
  </outline>
</glyph>
<glyph name="bracketright" format="2">
  <advance width="414"/>
  <unicode hex="005D"/>
  <outline>
    <contour>
      <point x="385" y="0" type="curve" smooth="yes"/>
      <point x="385" y="42"/>
      <point x="369" y="85"/>
      <point x="340" y="123" type="curve"/>
      <point x="354" y="136" type="line"/>
      <point x="388" y="102"/>
      <point x="414" y="59"/>
      <point x="414" y="0" type="curve" smooth="yes"/>
      <point x="414" y="-59"/>
      <point x="388" y="-102"/>
      <point x="354" y="-136" type="curve"/>
      <point x="340" y="-123" type="line"/>
      <point x="369" y="-85"/>
      <point x="385" y="-42"/>
    </contour>
    <contour>
      <point x="29" y="0" type="curve" smooth="yes"/>
      <point x="29" y="-42"/>
      <point x="45" y="-85"/>
      <point x="74" y="-123" type="curve"/>
      <point x="60" y="-136" type="line"/>
      <point x="26" y="-102"/>
      <point x="0" y="-59"/>
      <point x="0" y="0" type="curve" smooth="yes"/>
      <point x="0" y="59"/>
      <point x="26" y="102"/>
      <point x="60" y="136" type="curve"/>
      <point x="74" y="123" type="line"/>
      <point x="45" y="85"/>
      <point x="29" y="42"/>
    </contour>
    <contour>
      <point x="232" y="0" type="curve" smooth="yes"/>
      <point x="232" y="-24"/>
      <point x="254" y="-29"/>
      <point x="304" y="-29" type="curve"/>
      <point x="305" y="-59"/>
      <point x="307" y="-90"/>
      <point x="309" y="-102" type="curve"/>
      <point x="297" y="-100"/>
      <point x="266" y="-98"/>
      <point x="236" y="-97" type="curve"/>
      <point x="236" y="-47"/>
      <point x="231" y="-25"/>
      <point x="207" y="-25" type="curve" smooth="yes"/>
      <point x="183" y="-25"/>
      <point x="178" y="-47"/>
      <point x="178" y="-97" type="curve"/>
      <point x="148" y="-98"/>
      <point x="117" y="-100"/>
      <point x="105" y="-102" type="curve"/>
      <point x="107" y="-90"/>
      <point x="109" y="-59"/>
      <point x="110" y="-29" type="curve"/>
      <point x="160" y="-29"/>
      <point x="182" y="-24"/>
      <point x="182" y="0" type="curve" smooth="yes"/>
      <point x="182" y="24"/>
      <point x="160" y="29"/>
      <point x="110" y="29" type="curve"/>
      <point x="109" y="59"/>
      <point x="107" y="90"/>
      <point x="105" y="102" type="curve"/>
      <point x="117" y="100"/>
      <point x="148" y="98"/>
      <point x="178" y="97" type="curve"/>
      <point x="178" y="47"/>
      <point x="183" y="25"/>
      <point x="207" y="25" type="curve" smooth="yes"/>
      <point x="231" y="25"/>
      <point x="236" y="47"/>
      <point x="236" y="97" type="curve"/>
      <point x="266" y="98"/>
      <point x="297" y="100"/>
      <point x="309" y="102" type="curve"/>
      <point x="307" y="90"/>
      <point x="305" y="59"/>
      <point x="304" y="29" type="curve"/>
      <point x="254" y="29"/>
      <point x="232" y="24"/>
    </contour>
  </outline>
</glyph>
<glyph name="asciicircum" format="2">
  <advance width="348"/>
  <unicode hex="005E"/>
  <outline>
    <contour>
      <point x="348" y="0" type="line"/>
      <point x="243" y="0" type="line"/>
      <point x="152" y="194" type="line" smooth="yes"/>
      <point x="150" y="198"/>
      <point x="145" y="200"/>
      <point x="141" y="200" type="curve" smooth="yes"/>
      <point x="137" y="200"/>
      <point x="131" y="198"/>
      <point x="129" y="194" type="curve"/>
      <point x="39" y="0" type="line"/>
      <point x="0" y="0" type="line"/>
      <point x="169" y="364" type="line"/>
      <point x="170" y="367"/>
      <point x="172" y="368"/>
      <point x="173" y="368" type="curve"/>
      <point x="174" y="368"/>
      <point x="176" y="367"/>
      <point x="177" y="364" type="curve"/>
    </contour>
  </outline>
</glyph>
<glyph name="underscore" format="2">
  <advance width="422"/>
  <unicode hex="005F"/>
  <outline>
    <contour>
      <point x="423" y="19" type="line"/>
      <point x="423" y="0" type="line"/>
      <point x="0" y="0" type="line"/>
      <point x="0" y="19" type="line"/>
    </contour>
  </outline>
</glyph>
<glyph name="grave" format="2">
  <advance width="850"/>
  <unicode hex="0060"/>
  <outline>
    <contour>
      <point x="774" y="19" type="curve" smooth="yes"/>
      <point x="786" y="19"/>
      <point x="799" y="27"/>
      <point x="799" y="41" type="curve" smooth="yes"/>
      <point x="799" y="52"/>
      <point x="789" y="62"/>
      <point x="772" y="68" type="curve" smooth="yes"/>
      <point x="761" y="72"/>
      <point x="749" y="82"/>
      <point x="749" y="94" type="curve" smooth="yes"/>
      <point x="749" y="106"/>
      <point x="755" y="120"/>
      <point x="780" y="120" type="curve" smooth="yes"/>
      <point x="804" y="120"/>
      <point x="828" y="93"/>
      <point x="828" y="59" type="curve" smooth="yes"/>
      <point x="828" y="9"/>
      <point x="791" y="-15"/>
      <point x="761" y="-15" type="curve" smooth="yes"/>
      <point x="718" y="-15"/>
      <point x="696" y="35"/>
      <point x="656" y="35" type="curve" smooth="yes"/>
      <point x="636" y="35"/>
      <point x="609" y="9"/>
      <point x="591" y="-1" type="curve" smooth="yes"/>
      <point x="586" y="-4"/>
      <point x="582" y="-5"/>
      <point x="579" y="-5" type="curve" smooth="yes"/>
      <point x="573" y="-5"/>
      <point x="570" y="-1"/>
      <point x="570" y="5" type="curve" smooth="yes"/>
      <point x="570" y="10"/>
      <point x="573" y="17"/>
      <point x="579" y="22" type="curve" smooth="yes"/>
      <point x="613" y="55" type="line" smooth="yes"/>
      <point x="652" y="89"/>
      <point x="711.5" y="148.5"/>
      <point x="753.5" y="191.5" type="curve" smooth="yes"/>
      <point x="756.5" y="194.5"/>
      <point x="758.5" y="197.5"/>
      <point x="758.5" y="200.5" type="curve" smooth="yes"/>
      <point x="758.5" y="211.5"/>
      <point x="703.5" y="211.5"/>
      <point x="690.5" y="211.5" type="curve" smooth="yes"/>
      <point x="680.5" y="211.5"/>
      <point x="672.076" y="208.151"/>
      <point x="663.5" y="194.5" type="curve" smooth="yes"/>
      <point x="647.479" y="169" type="line" smooth="yes"/>
      <point x="640.796" y="158.403"/>
      <point x="633.49" y="156.5"/>
      <point x="629.49" y="156.5" type="curve" smooth="yes"/>
      <point x="625.49" y="156.5"/>
      <point x="622.49" y="159.5"/>
      <point x="622.49" y="165.5" type="curve" smooth="yes"/>
      <point x="622.49" y="168.5"/>
      <point x="623.49" y="172.5"/>
      <point x="624.49" y="176.5" type="curve" smooth="yes"/>
      <point x="646" y="235" type="line" smooth="yes"/>
      <point x="652.548" y="252.809"/>
      <point x="654" y="258"/>
      <point x="669" y="258" type="curve" smooth="yes"/>
      <point x="687" y="258"/>
      <point x="711" y="251"/>
      <point x="761" y="251" type="curve" smooth="yes"/>
      <point x="795" y="251"/>
      <point x="830" y="258"/>
      <point x="839" y="258" type="curve" smooth="yes"/>
      <point x="848" y="258"/>
      <point x="850" y="255"/>
      <point x="850" y="251" type="curve" smooth="yes"/>
      <point x="850" y="242"/>
      <point x="849" y="241"/>
      <point x="827" y="219" type="curve" smooth="yes"/>
      <point x="732" y="128" type="line"/>
      <point x="697" y="92" type="line" smooth="yes"/>
      <point x="690" y="85"/>
      <point x="686" y="79"/>
      <point x="686" y="74" type="curve" smooth="yes"/>
      <point x="686" y="67"/>
      <point x="691" y="63"/>
      <point x="699" y="58" type="curve" smooth="yes"/>
      <point x="713" y="50"/>
      <point x="730" y="36"/>
      <point x="747" y="27" type="curve" smooth="yes"/>
      <point x="755" y="22"/>
      <point x="765" y="19"/>
    </contour>
    <contour>
      <point x="609" y="426" type="curve" smooth="yes"/>
      <point x="653.333" y="426"/>
      <point x="691" y="398"/>
      <point x="691" y="357" type="curve" smooth="yes"/>
      <point x="691" y="328"/>
      <point x="670" y="305"/>
      <point x="641" y="305" type="curve" smooth="yes"/>
      <point x="621" y="305"/>
      <point x="604" y="319"/>
      <point x="604" y="339" type="curve" smooth="yes"/>
      <point x="604" y="374"/>
      <point x="631" y="377"/>
      <point x="631" y="389" type="curve" smooth="yes"/>
      <point x="631" y="396"/>
      <point x="622" y="399"/>
      <point x="613" y="399" type="curve" smooth="yes"/>
      <point x="574" y="399"/>
      <point x="548" y="359"/>
      <point x="518" y="274" type="curve" smooth="yes"/>
      <point x="510" y="248"/>
      <point x="516" y="238"/>
      <point x="537" y="238" type="curve" smooth="yes"/>
      <point x="587" y="238" type="line" smooth="yes"/>
      <point x="595" y="238"/>
      <point x="601" y="236"/>
      <point x="597" y="223" type="curve" smooth="yes"/>
      <point x="593" y="211"/>
      <point x="588" y="207"/>
      <point x="577" y="207" type="curve" smooth="yes"/>
      <point x="531" y="207" type="line" smooth="yes"/>
      <point x="509" y="207"/>
      <point x="497" y="204"/>
      <point x="490" y="177" type="curve" smooth="yes"/>
      <point x="480" y="141" type="line" smooth="yes"/>
      <point x="428" y="-49"/>
      <point x="334.5" y="-189"/>
      <point x="234" y="-189" type="curve" smooth="yes"/>
      <point x="188" y="-189"/>
      <point x="153" y="-158"/>
      <point x="153" y="-116" type="curve" smooth="yes"/>
      <point x="153" y="-87"/>
      <point x="174" y="-62"/>
      <point x="203" y="-62" type="curve" smooth="yes"/>
      <point x="224" y="-62"/>
      <point x="244" y="-75"/>
      <point x="244" y="-98" type="curve" smooth="yes"/>
      <point x="244" y="-137"/>
      <point x="216" y="-137"/>
      <point x="216" y="-151" type="curve" smooth="yes"/>
      <point x="216" y="-157"/>
      <point x="220" y="-161"/>
      <point x="231" y="-161" type="curve" smooth="yes"/>
      <point x="303" y="-161"/>
      <point x="345" y="-16"/>
      <point x="391" y="136" type="curve" smooth="yes"/>
      <point x="405" y="180" type="line" smooth="yes"/>
      <point x="409" y="196"/>
      <point x="410" y="207"/>
      <point x="381" y="207" type="curve" smooth="yes"/>
      <point x="333" y="207" type="line" smooth="yes"/>
      <point x="325" y="207"/>
      <point x="319" y="211"/>
      <point x="323" y="225" type="curve" smooth="yes"/>
      <point x="326" y="237"/>
      <point x="333" y="238"/>
      <point x="345" y="238" type="curve" smooth="yes"/>
      <point x="393" y="238" type="line" smooth="yes"/>
      <point x="418" y="238"/>
      <point x="426" y="245"/>
      <point x="436" y="268" type="curve" smooth="yes"/>
      <point x="476" y="364"/>
      <point x="529" y="426"/>
    </contour>
    <contour>
      <point x="229" y="254" type="curve" smooth="yes"/>
      <point x="262" y="254"/>
      <point x="286" y="232"/>
      <point x="286" y="198" type="curve" smooth="yes"/>
      <point x="286" y="168"/>
      <point x="267" y="152"/>
      <point x="243" y="152" type="curve" smooth="yes"/>
      <point x="223" y="152"/>
      <point x="208" y="164"/>
      <point x="208" y="183" type="curve" smooth="yes"/>
      <point x="208" y="203"/>
      <point x="222" y="210"/>
      <point x="222" y="219" type="curve" smooth="yes"/>
      <point x="222" y="222"/>
      <point x="219" y="224"/>
      <point x="216" y="224" type="curve" smooth="yes"/>
      <point x="164" y="224"/>
      <point x="118" y="124"/>
      <point x="101" y="80" type="curve" smooth="yes"/>
      <point x="78" y="19" type="line" smooth="yes"/>
      <point x="71" y="3"/>
      <point x="72" y="-1"/>
      <point x="65" y="-1" type="curve" smooth="yes"/>
      <point x="58" y="-1"/>
      <point x="57" y="3"/>
      <point x="49" y="3" type="curve" smooth="yes"/>
      <point x="39" y="3"/>
      <point x="38" y="-1"/>
      <point x="30" y="-1" type="curve" smooth="yes"/>
      <point x="27" y="-1"/>
      <point x="25" y="1"/>
      <point x="25" y="4" type="curve" smooth="yes"/>
      <point x="25" y="6"/>
      <point x="26" y="10"/>
      <point x="28" y="14" type="curve" smooth="yes"/>
      <point x="91" y="184" type="line" smooth="yes"/>
      <point x="94" y="192"/>
      <point x="95" y="198"/>
      <point x="95" y="203" type="curve" smooth="yes"/>
      <point x="95" y="213"/>
      <point x="90" y="217"/>
      <point x="83" y="217" type="curve" smooth="yes"/>
      <point x="62" y="217"/>
      <point x="45" y="192"/>
      <point x="22" y="147" type="curve" smooth="yes"/>
      <point x="18" y="140"/>
      <point x="13" y="136"/>
      <point x="8" y="136" type="curve" smooth="yes"/>
      <point x="3" y="136"/>
      <point x="0" y="140"/>
      <point x="0" y="148" type="curve" smooth="yes"/>
      <point x="0" y="151"/>
      <point x="0" y="155"/>
      <point x="2" y="159" type="curve" smooth="yes"/>
      <point x="21" y="212"/>
      <point x="57" y="254"/>
      <point x="97" y="254" type="curve" smooth="yes"/>
      <point x="118" y="254"/>
      <point x="129" y="245"/>
      <point x="136" y="233" type="curve" smooth="yes"/>
      <point x="140" y="227"/>
      <point x="144" y="223"/>
      <point x="149" y="223" type="curve" smooth="yes"/>
      <point x="153" y="223"/>
      <point x="157" y="225"/>
      <point x="163" y="230" type="curve" smooth="yes"/>
      <point x="182" y="243"/>
      <point x="205" y="254"/>
    </contour>
  </outline>
</glyph>
<glyph name="a" format="2">
  <advance width="196"/>
  <unicode hex="0061"/>
  <outline>
    <contour>
      <point x="69" y="-56" type="line" smooth="yes"/>
      <point x="69" y="-64"/>
      <point x="79" y="-70"/>
      <point x="87" y="-68" type="curve" smooth="yes"/>
      <point x="116" y="-60" type="line"/>
      <point x="122" y="-58"/>
      <point x="127" y="-52"/>
      <point x="127" y="-44" type="curve" smooth="yes"/>
      <point x="127" y="56" type="line" smooth="yes"/>
      <point x="127" y="64"/>
      <point x="117" y="70"/>
      <point x="109" y="68" type="curve" smooth="yes"/>
      <point x="80" y="60" type="line"/>
      <point x="74" y="58"/>
      <point x="69" y="52"/>
      <point x="69" y="44" type="curve" smooth="yes"/>
    </contour>
    <contour>
      <point x="43" y="32" type="line" smooth="yes"/>
      <point x="43" y="40"/>
      <point x="35" y="47"/>
      <point x="28" y="45" type="curve" smooth="yes"/>
      <point x="0" y="37" type="line"/>
      <point x="0" y="98" type="line"/>
      <point x="24" y="104" type="line"/>
      <point x="37" y="108"/>
      <point x="42" y="116" name="hr01"/>
      <point x="42" y="128" type="curve" smooth="yes"/>
      <point x="42" y="244" type="line"/>
      <point x="70" y="244" type="line"/>
      <point x="70" y="135" type="line" smooth="yes"/>
      <point x="70" y="127"/>
      <point x="80" y="121"/>
      <point x="87" y="123" type="curve" smooth="yes"/>
      <point x="113" y="130" type="line"/>
      <point x="123" y="133"/>
      <point x="126" y="138"/>
      <point x="126" y="146" type="curve" smooth="yes"/>
      <point x="126" y="264" type="line"/>
      <point x="154" y="264" type="line"/>
      <point x="154" y="160" type="line" smooth="yes"/>
      <point x="154" y="152"/>
      <point x="163.99" y="145.037"/>
      <point x="171" y="147" type="curve" smooth="yes"/>
      <point x="196" y="154" type="line"/>
      <point x="196" y="93" type="line"/>
      <point x="165" y="84" type="line"/>
      <point x="158" y="83"/>
      <point x="153" y="78"/>
      <point x="153" y="70" type="curve" smooth="yes"/>
      <point x="153" y="-32" type="line" smooth="yes"/>
      <point x="153" y="-40"/>
      <point x="161" y="-47"/>
      <point x="168" y="-45" type="curve" smooth="yes"/>
      <point x="196" y="-37" type="line"/>
      <point x="196" y="-98" type="line"/>
      <point x="172" y="-104" type="line"/>
      <point x="159" y="-108"/>
      <point x="154" y="-116" name="hr03"/>
      <point x="154" y="-128" type="curve" smooth="yes"/>
      <point x="154" y="-244" type="line"/>
      <point x="126" y="-244" type="line"/>
      <point x="126" y="-135" type="line" smooth="yes"/>
      <point x="126" y="-127"/>
      <point x="116" y="-121"/>
      <point x="109" y="-123" type="curve" smooth="yes"/>
      <point x="83" y="-130" type="line"/>
      <point x="73" y="-133"/>
      <point x="70" y="-138"/>
      <point x="70" y="-146" type="curve" smooth="yes"/>
      <point x="70" y="-264" type="line"/>
      <point x="42" y="-264" type="line" name="hr04"/>
      <point x="42" y="-160" type="line" smooth="yes"/>
      <point x="42" y="-152"/>
      <point x="32" y="-145"/>
      <point x="25" y="-147" type="curve" smooth="yes"/>
      <point x="0" y="-154" type="line" name="hr05"/>
      <point x="0" y="-93" type="line"/>
      <point x="31" y="-84" type="line"/>
      <point x="38" y="-83"/>
      <point x="43" y="-78"/>
      <point x="43" y="-70" type="curve" smooth="yes"/>
    </contour>
    <contour>
      <point x="-83.498" y="2.5254" type="curve" smooth="yes"/>
      <point x="-83.498" y="-101.182"/>
      <point x="-36.7577" y="-166.504"/>
      <point x="-13.0878" y="-201.6" type="curve"/>
      <point x="-25.8886" y="-213.6" type="line"/>
      <point x="-61.0878" y="-177.6"/>
      <point x="-109.889" y="-108"/>
      <point x="-109.889" y="0" type="curve"/>
      <point x="-109.895" y="0.8613"/>
      <point x="-109.898" y="1.7207"/>
      <point x="-109.898" y="2.5772" type="curve"/>
      <point x="-109.898" y="109.108"/>
      <point x="-60.8074" y="177.887"/>
      <point x="-25.8885" y="213.6" type="curve"/>
      <point x="-13.0877" y="201.6" type="line"/>
      <point x="-36.0965" y="167.483"/>
      <point x="-83.4979" y="103.467"/>
    </contour>
    <contour>
      <point x="210.111" y="201.6" type="curve"/>
      <point x="222.912" y="213.6" type="line"/>
      <point x="258.111" y="177.6"/>
      <point x="306.912" y="108"/>
      <point x="306.912" y="0" type="curve"/>
      <point x="306.919" y="-0.8613"/>
      <point x="306.922" y="-1.7207"/>
      <point x="306.922" y="-2.5772" type="curve"/>
      <point x="306.922" y="-109.108"/>
      <point x="257.831" y="-177.887"/>
      <point x="222.912" y="-213.6" type="curve"/>
      <point x="210.111" y="-201.6" type="line"/>
      <point x="233.12" y="-167.483"/>
      <point x="280.521" y="-103.467"/>
      <point x="280.521" y="-2.5254" type="curve" smooth="yes"/>
      <point x="280.521" y="101.184"/>
      <point x="233.784" y="166.5"/>
    </contour>
  </outline>
</glyph>
<glyph name="b" format="2">
  <advance width="220"/>
  <unicode hex="0062"/>
  <outline>
    <contour>
      <point x="0" y="445" type="line"/>
      <point x="52" y="445" type="line"/>
      <point x="52" y="157" type="line" smooth="yes"/>
      <point x="52" y="150.093"/>
      <point x="63.9253" y="140.205"/>
      <point x="74.9066" y="140.205" type="curve"/>
      <point x="76.6451" y="140.205"/>
      <point x="78.3599" y="140.453"/>
      <point x="80" y="141" type="curve"/>
      <point x="99" y="149"/>
      <point x="117" y="153"/>
      <point x="133" y="153" type="curve" smooth="yes"/>
      <point x="180" y="153"/>
      <point x="220" y="117"/>
      <point x="220" y="62" type="curve" smooth="yes"/>
      <point x="220" y="-25"/>
      <point x="127" y="-80"/>
      <point x="63" y="-132" type="curve" smooth="yes"/>
      <point x="16" y="-170" type="line" smooth="yes"/>
      <point x="9.80682" y="-174.866"/>
      <point x="5.96194" y="-177.775"/>
      <point x="3.59964" y="-177.775" type="curve" smooth="yes"/>
      <point x="0.62184" y="-177.775"/>
      <point x="0" y="-173.153"/>
      <point x="0" y="-162" type="curve" smooth="yes"/>
    </contour>
    <contour>
      <point x="88" y="112" type="curve" smooth="yes"/>
      <point x="66" y="112"/>
      <point x="46" y="103"/>
      <point x="30" y="88" type="curve"/>
      <point x="30" y="-90" type="line" smooth="yes"/>
      <point x="30" y="-103"/>
      <point x="47.1156" y="-107.168"/>
      <point x="53" y="-103" type="curve" smooth="yes"/>
      <point x="104.801" y="-66.3075"/>
      <point x="142" y="-29"/>
      <point x="142" y="31" type="curve" smooth="yes"/>
      <point x="142" y="89"/>
      <point x="120" y="112"/>
    </contour>
  </outline>
</glyph>
<glyph name="c" format="2">
  <advance width="416"/>
  <unicode hex="0063"/>
  <outline>
    <contour>
      <point x="314" y="207" type="curve" smooth="yes"/>
      <point x="296" y="216"/>
      <point x="275" y="222"/>
      <point x="251" y="222" type="curve" smooth="yes"/>
      <point x="171" y="222"/>
      <point x="118" y="178"/>
      <point x="118" y="18" type="curve" smooth="yes"/>
      <point x="118" y="-22" type="line" smooth="yes"/>
      <point x="118" y="-177"/>
      <point x="162" y="-218"/>
      <point x="243" y="-218" type="curve" smooth="yes"/>
      <point x="310" y="-218"/>
      <point x="372" y="-155"/>
      <point x="383" y="-68" type="curve"/>
      <point x="413" y="-70" type="line"/>
      <point x="403" y="-159"/>
      <point x="340" y="-255"/>
      <point x="220" y="-255" type="curve" smooth="yes"/>
      <point x="102" y="-255"/>
      <point x="0" y="-145"/>
      <point x="0" y="0" type="curve" smooth="yes"/>
      <point x="0" y="146"/>
      <point x="95" y="255"/>
      <point x="235" y="255" type="curve" smooth="yes"/>
      <point x="342" y="255"/>
      <point x="415" y="180"/>
      <point x="416" y="113" type="curve" smooth="yes"/>
      <point x="416" y="75"/>
      <point x="386" y="44" name="hr01"/>
      <point x="348" y="44" type="curve" smooth="yes"/>
      <point x="310" y="44"/>
      <point x="280" y="75"/>
      <point x="280" y="113" type="curve" smooth="yes"/>
      <point x="280" y="137"/>
      <point x="292" y="160"/>
      <point x="313" y="172" type="curve" smooth="yes"/>
      <point x="320" y="176"/>
      <point x="323" y="183"/>
      <point x="323" y="190" type="curve" smooth="yes"/>
      <point x="323" y="197"/>
      <point x="320" y="204"/>
    </contour>
  </outline>
</glyph>
<glyph name="e" format="2">
  <advance width="326"/>
  <unicode hex="0065"/>
  <outline>
    <contour>
      <point x="95" y="101" type="curve" smooth="yes"/>
      <point x="130" y="125"/>
      <point x="178" y="141"/>
      <point x="221" y="141" type="curve" smooth="yes"/>
      <point x="246" y="141"/>
      <point x="269" y="136"/>
      <point x="287" y="124" type="curve"/>
      <point x="291" y="122"/>
      <point x="300" y="126"/>
      <point x="300" y="129" type="curve" smooth="yes"/>
      <point x="300" y="850" type="line"/>
      <point x="327" y="850" type="line"/>
      <point x="327" y="818"/>
      <point x="340" y="769"/>
      <point x="373" y="728" type="curve" smooth="yes"/>
      <point x="445" y="637"/>
      <point x="575" y="535"/>
      <point x="575" y="320" type="curve" smooth="yes"/>
      <point x="575" y="214"/>
      <point x="536" y="123"/>
      <point x="517" y="88" type="curve"/>
      <point x="489" y="102" type="line"/>
      <point x="515" y="155"/>
      <point x="541" y="232"/>
      <point x="541" y="321" type="curve" smooth="yes"/>
      <point x="541" y="437"/>
      <point x="498" y="521"/>
      <point x="425" y="569" type="curve" smooth="yes"/>
      <point x="395" y="588"/>
      <point x="369" y="595"/>
      <point x="342" y="595" type="curve" smooth="yes"/>
      <point x="333" y="595"/>
      <point x="326" y="588"/>
      <point x="326" y="582" type="curve" smooth="yes"/>
      <point x="326" y="49" type="line"/>
      <point x="325" y="-7"/>
      <point x="280" y="-68"/>
      <point x="231" y="-101" type="curve" smooth="yes"/>
      <point x="196" y="-125"/>
      <point x="148" y="-141"/>
      <point x="105" y="-141" type="curve" smooth="yes"/>
      <point x="68" y="-141"/>
      <point x="34" y="-130"/>
      <point x="15" y="-100" type="curve"/>
      <point x="4" y="-85"/>
      <point x="0" y="-68"/>
      <point x="0" y="-50" type="curve" smooth="yes"/>
      <point x="0" y="6"/>
      <point x="46" y="68"/>
    </contour>
  </outline>
</glyph>
<glyph name="f" format="2">
  <advance width="378"/>
  <unicode hex="0066"/>
  <outline>
    <contour>
      <point x="5" y="-116" type="curve" smooth="yes"/>
      <point x="70" y="-116"/>
      <point x="91.0181" y="-46.5311"/>
      <point x="143" y="151" type="curve" smooth="yes"/>
      <point x="153" y="189" type="line" smooth="yes"/>
      <point x="156.418" y="201.913"/>
      <point x="158.538" y="210.787"/>
      <point x="158.538" y="216.828" type="curve" smooth="yes"/>
      <point x="158.538" y="226.692"/>
      <point x="152.885" y="229"/>
      <point x="138" y="229" type="curve" smooth="yes"/>
      <point x="86" y="229" type="line" smooth="yes"/>
      <point x="74" y="229"/>
      <point x="71" y="230"/>
      <point x="77" y="248" type="curve"/>
      <point x="81" y="262"/>
      <point x="83" y="262"/>
      <point x="98" y="262" type="curve" smooth="yes"/>
      <point x="149" y="262" type="line" smooth="yes"/>
      <point x="172" y="262"/>
      <point x="176" y="266"/>
      <point x="184" y="286" type="curve" smooth="yes"/>
      <point x="228" y="391"/>
      <point x="291" y="446"/>
      <point x="371" y="446" type="curve" smooth="yes"/>
      <point x="415" y="446"/>
      <point x="458" y="414"/>
      <point x="458" y="373" type="curve" smooth="yes"/>
      <point x="458" y="345"/>
      <point x="438" y="320"/>
      <point x="407" y="320" type="curve" smooth="yes"/>
      <point x="379" y="320"/>
      <point x="365" y="341"/>
      <point x="365" y="360" type="curve" smooth="yes"/>
      <point x="365" y="394"/>
      <point x="392" y="397"/>
      <point x="392" y="408" type="curve" smooth="yes"/>
      <point x="392" y="415"/>
      <point x="381" y="418" name="hr01"/>
      <point x="372" y="418" type="curve" smooth="yes"/>
      <point x="325" y="418"/>
      <point x="302" y="382"/>
      <point x="273" y="287" type="curve" smooth="yes"/>
      <point x="271.028" y="280.802"/>
      <point x="270.008" y="276.111"/>
      <point x="270.008" y="272.572" type="curve" smooth="yes"/>
      <point x="270.008" y="263.548"/>
      <point x="276.635" y="262"/>
      <point x="291" y="262" type="curve" smooth="yes"/>
      <point x="341" y="262" type="line" smooth="yes"/>
      <point x="351" y="262"/>
      <point x="356" y="260"/>
      <point x="351" y="246" type="curve" smooth="yes"/>
      <point x="345" y="229"/>
      <point x="341" y="229"/>
      <point x="331" y="229" type="curve" smooth="yes"/>
      <point x="279" y="229" type="line" smooth="yes"/>
      <point x="258" y="229"/>
      <point x="254" y="224"/>
      <point x="248" y="199" type="curve" smooth="yes"/>
      <point x="225" y="113" type="line" smooth="yes"/>
      <point x="180.731" y="-52.527"/>
      <point x="109" y="-144"/>
      <point x="7" y="-144" type="curve" smooth="yes"/>
      <point x="-37" y="-144"/>
      <point x="-80" y="-112"/>
      <point x="-80" y="-71" type="curve" smooth="yes"/>
      <point x="-80" y="-43"/>
      <point x="-60" y="-18" name="hr02"/>
      <point x="-29" y="-18" type="curve" smooth="yes"/>
      <point x="-1" y="-18"/>
      <point x="13" y="-39"/>
      <point x="13" y="-58" type="curve" smooth="yes"/>
      <point x="13" y="-92"/>
      <point x="-14" y="-95"/>
      <point x="-14" y="-106" type="curve" smooth="yes"/>
      <point x="-14" y="-113"/>
      <point x="-4" y="-116" name="hr03"/>
    </contour>
  </outline>
</glyph>
<glyph name="i" format="2">
  <advance width="400"/>
  <unicode hex="0069"/>
  <outline>
    <contour>
      <point x="146" y="140" type="curve" smooth="yes"/>
      <point x="146" y="94"/>
      <point x="106" y="59"/>
      <point x="55" y="69" type="curve"/>
      <point x="73" y="38"/>
      <point x="122" y="12"/>
      <point x="192" y="12" type="curve" smooth="yes"/>
      <point x="269" y="12"/>
      <point x="322" y="49"/>
      <point x="322" y="105" type="curve" smooth="yes"/>
      <point x="322" y="258"/>
      <point x="0" y="266"/>
      <point x="0" y="449" type="curve" smooth="yes"/>
      <point x="0" y="508"/>
      <point x="42" y="555"/>
      <point x="88" y="579" type="curve"/>
      <point x="43" y="615"/>
      <point x="10" y="661"/>
      <point x="10" y="728" type="curve" smooth="yes"/>
      <point x="10" y="818"/>
      <point x="98" y="894"/>
      <point x="208" y="894" type="curve" smooth="yes"/>
      <point x="320" y="894"/>
      <point x="400" y="824"/>
      <point x="400" y="750" type="curve" smooth="yes"/>
      <point x="400" y="702"/>
      <point x="367" y="669"/>
      <point x="327" y="669" type="curve" smooth="yes"/>
      <point x="287" y="669"/>
      <point x="254" y="702"/>
      <point x="254" y="742" type="curve" smooth="yes"/>
      <point x="254" y="788"/>
      <point x="294" y="823"/>
      <point x="345" y="813" type="curve"/>
      <point x="327" y="844"/>
      <point x="278" y="870"/>
      <point x="208" y="870" type="curve" smooth="yes"/>
      <point x="131" y="870"/>
      <point x="78" y="833"/>
      <point x="78" y="777" type="curve" smooth="yes"/>
      <point x="78" y="624"/>
      <point x="400" y="616"/>
      <point x="400" y="433" type="curve" smooth="yes"/>
      <point x="400" y="374"/>
      <point x="358" y="327"/>
      <point x="312" y="303" type="curve"/>
      <point x="357" y="267"/>
      <point x="390" y="221"/>
      <point x="390" y="154" type="curve" smooth="yes"/>
      <point x="390" y="64"/>
      <point x="302" y="-12"/>
      <point x="192" y="-12" type="curve" smooth="yes"/>
      <point x="80" y="-12"/>
      <point x="0" y="58"/>
      <point x="0" y="132" type="curve" smooth="yes"/>
      <point x="0" y="180"/>
      <point x="33" y="213"/>
      <point x="73" y="213" type="curve" smooth="yes"/>
      <point x="113" y="213"/>
      <point x="146" y="180"/>
    </contour>
    <contour>
      <point x="293" y="317" type="curve"/>
      <point x="322" y="331"/>
      <point x="336" y="352"/>
      <point x="336" y="380" type="curve" smooth="yes"/>
      <point x="336" y="466"/>
      <point x="203" y="498"/>
      <point x="107" y="565" type="curve"/>
      <point x="78" y="551"/>
      <point x="64" y="530"/>
      <point x="64" y="502" type="curve" smooth="yes"/>
      <point x="64" y="416"/>
      <point x="197" y="384"/>
    </contour>
  </outline>
</glyph>
<glyph name="j" format="2">
  <advance width="292"/>
  <unicode hex="006A"/>
  <outline>
    <contour>
      <point x="41" y="13" type="curve" smooth="yes"/>
      <point x="32" y="13"/>
      <point x="25" y="6"/>
      <point x="25" y="0" type="curve"/>
      <point x="25" y="0"/>
      <point x="0" y="0"/>
      <point x="0" y="0" type="curve"/>
      <point x="0" y="0"/>
      <point x="0" y="268"/>
      <point x="0" y="268" type="curve"/>
      <point x="0" y="268"/>
      <point x="26" y="268"/>
      <point x="26" y="268" type="curve"/>
      <point x="26" y="236"/>
      <point x="40" y="187"/>
      <point x="73" y="146" type="curve" smooth="yes"/>
      <point x="145" y="55"/>
      <point x="292" y="-47"/>
      <point x="292" y="-262" type="curve" smooth="yes"/>
      <point x="292" y="-368"/>
      <point x="238" y="-508"/>
      <point x="224" y="-544" type="curve"/>
      <point x="220" y="-548"/>
      <point x="215" y="-550"/>
      <point x="211" y="-550" type="curve" smooth="yes"/>
      <point x="203" y="-550"/>
      <point x="195" y="-544"/>
      <point x="195" y="-535" type="curve"/>
      <point x="195" y="-534"/>
      <point x="196" y="-532"/>
      <point x="196" y="-530" type="curve"/>
      <point x="211" y="-491"/>
      <point x="258" y="-350"/>
      <point x="258" y="-261" type="curve" smooth="yes"/>
      <point x="258" y="-145"/>
      <point x="204" y="-61"/>
      <point x="131" y="-13" type="curve" smooth="yes"/>
      <point x="101" y="6"/>
      <point x="72" y="13"/>
    </contour>
  </outline>
  <guideline angle="0" x="0" y="-813"/>
</glyph>
<glyph name="k" format="2">
  <advance width="96"/>
  <unicode hex="006B"/>
  <outline>
    <contour>
      <point x="0" y="0" type="curve" smooth="yes"/>
      <point x="0" y="26"/>
      <point x="22" y="48"/>
      <point x="48" y="48" type="curve" smooth="yes"/>
      <point x="74" y="48"/>
      <point x="96" y="26"/>
      <point x="96" y="0" type="curve" smooth="yes"/>
      <point x="96" y="-26"/>
      <point x="74" y="-48"/>
      <point x="48" y="-48" type="curve" smooth="yes"/>
      <point x="22" y="-48"/>
      <point x="0" y="-26"/>
    </contour>
  </outline>
</glyph>
